<?xml version="1.0" encoding="UTF-8"?>
<!-- Generator: Adobe Illustrator 24.3.0, SVG Export Plug-In . SVG Version: 6.00 Build 0)  -->
<svg xmlns="http://www.w3.org/2000/svg" xmlns:xlink="http://www.w3.org/1999/xlink" version="1.1" id="Layer_1" x="0px" y="0px" viewBox="0 0 164 50" style="enable-background:new 0 0 164 50;" xml:space="preserve">
<style type="text/css">
	.st0{clip-path:url(#SVGID_2_);fill:url(#SVGID_3_);}
	.st1{clip-path:url(#SVGID_5_);fill:url(#SVGID_6_);}
	.st2{clip-path:url(#SVGID_8_);fill:url(#SVGID_9_);}
	.st3{clip-path:url(#SVGID_11_);fill:url(#SVGID_12_);}
	.st4{clip-path:url(#SVGID_14_);fill:url(#SVGID_15_);}
	.st5{clip-path:url(#SVGID_17_);fill:url(#SVGID_18_);}
	.st6{clip-path:url(#SVGID_20_);fill:url(#SVGID_21_);}
	.st7{clip-path:url(#SVGID_23_);fill:url(#SVGID_24_);}
	.st8{clip-path:url(#SVGID_26_);fill:url(#SVGID_27_);}
</style>
<g>
	<g>
		<g>
			<g>
				<g>
					<defs>
						<path id="SVGID_1_" d="M10.6,6.5c-3.4,2-6.1,4.5-7.9,7.6C0.9,17.3,0,20.9,0,24.9c0,2,0.2,4,0.6,5.8c0.9,3.7,2.7,6.9,5.4,9.6        c4,4,9.2,6,15.5,6c1.4,0,2.8-0.1,4-0.3c1.8-0.3,3.6-0.7,5.1-1.4c0.8-0.4,1.6-0.8,2.4-1.3c1.6-1,3.3-2.3,5.1-4l1-0.9l7.4-7.1        l0.1-0.1l6.7-6.6l2-2l0.3-0.2l9.8-9.4l1.5-1.5l0.1-0.1l1.8-1.7L75,4c0,0-0.4-0.1-1.1-0.2c-2.6-0.3-9.3-0.2-16.2,6.3        c-0.1,0.1-0.3,0.3-0.4,0.4L55.9,12c-0.9,1-1.8,2-2.8,2.9L34.2,33.2L32,34.9l0,0L30,36.4c-0.8,0.5-1.5,0.9-2.2,1.2        c-0.7,0.3-1.3,0.5-2,0.7c-1.3,0.4-2.7,0.5-4.1,0.5c-1.8,0-3.5-0.3-5.1-0.9c-0.7-0.2-1.4-0.5-2.1-0.9c-2.2-1.2-3.8-2.8-5-4.9        c-1.2-2.1-1.8-4.5-1.8-7.2c0-3.9,1.3-7.2,4-9.8c2.6-2.6,5.9-4,9.8-4c4.6,0,8.8,1.9,12.4,5.8l5.4-5.2c-2.2-2.6-4.9-4.6-8-6        c-3.1-1.4-6.3-2.1-9.7-2.1C17.7,3.6,14,4.6,10.6,6.5"></path>
					</defs>
					<clipPath id="SVGID_2_">
						<use xlink:href="#SVGID_1_" style="overflow:visible;"></use>
					</clipPath>
					
						<linearGradient id="SVGID_3_" gradientUnits="userSpaceOnUse" x1="-1801.6853" y1="-442.8535" x2="-1801.5535" y2="-442.8535" gradientTransform="matrix(-541.4642 299.2303 -299.2303 -541.4642 -1107988.75 299334)">
						<stop offset="0" style="stop-color:#4B6BB3"></stop>
						<stop offset="6.080000e-02" style="stop-color:#4B6BB3"></stop>
						<stop offset="0.1695" style="stop-color:#4D7BBE"></stop>
						<stop offset="0.3582" style="stop-color:#5195D0"></stop>
						<stop offset="0.5408" style="stop-color:#55ABDF"></stop>
						<stop offset="0.7129" style="stop-color:#58BBEA"></stop>
						<stop offset="0.8705" style="stop-color:#5AC5F1"></stop>
						<stop offset="1" style="stop-color:#5ACAF4"></stop>
					</linearGradient>
					<polygon class="st0" points="93.2,36.3 17.6,78.1 -18.1,13.5 57.5,-28.2      "></polygon>
				</g>
			</g>
		</g>
	</g>
	<g>
		<g>
			<g>
				<g>
					<defs>
						<path id="SVGID_4_" d="M10.6,6.5c-3.4,1.9-6,4.5-7.9,7.6C0.9,17.3,0,20.9,0,24.9c0,2,0.2,4,0.6,5.8c4.5,3.7,9.9,6.3,15.9,7.4        c-0.7-0.3-1.4-0.6-2.1-0.9c-2.1-1.2-3.8-2.8-5-5c-1.2-2.1-1.8-4.5-1.8-7.2c0-3.9,1.3-7.2,4-9.8c2.7-2.7,5.9-4,9.8-4        c4.6,0,8.7,1.9,12.4,5.8l5.4-5.2c-2.2-2.6-4.9-4.6-8-6c-3.1-1.4-6.3-2.1-9.7-2.1C17.7,3.6,14,4.6,10.6,6.5"></path>
					</defs>
					<clipPath id="SVGID_5_">
						<use xlink:href="#SVGID_4_" style="overflow:visible;"></use>
					</clipPath>
					
						<linearGradient id="SVGID_6_" gradientUnits="userSpaceOnUse" x1="-1802.4772" y1="-434.6219" x2="-1802.345" y2="-434.6219" gradientTransform="matrix(95.6685 -240.189 240.189 95.6685 276844.625 -391317.75)">
						<stop offset="0" style="stop-color:#4B6BB3"></stop>
						<stop offset="1" style="stop-color:#5ACAF4"></stop>
					</linearGradient>
					<polygon class="st1" points="-11.8,33.3 5.4,-9.9 51.2,8.3 34,51.6      "></polygon>
				</g>
			</g>
		</g>
	</g>
	<g>
		<g>
			<g>
				<g>
					<defs>
						<path id="SVGID_7_" d="M81.1,21.6v24.7h8.3V21.6c0-5.3,4.3-9.7,9.7-9.7c5.3,0,9.7,4.3,9.7,9.7v24.7h8.3V21.6        c0-9.9-8.1-18-18-18C89.1,3.6,81.1,11.7,81.1,21.6"></path>
					</defs>
					<clipPath id="SVGID_8_">
						<use xlink:href="#SVGID_7_" style="overflow:visible;"></use>
					</clipPath>
					
						<linearGradient id="SVGID_9_" gradientUnits="userSpaceOnUse" x1="-1798.1556" y1="-437.1182" x2="-1798.0238" y2="-437.1182" gradientTransform="matrix(272.6988 0 0 272.6988 490435.8438 119226.5859)">
						<stop offset="0" style="stop-color:#778AA5"></stop>
						<stop offset="0.3476" style="stop-color:#778AA5"></stop>
						<stop offset="0.5113" style="stop-color:#8697B1"></stop>
						<stop offset="0.8462" style="stop-color:#B3BFD2"></stop>
						<stop offset="0.9973" style="stop-color:#CAD5E4"></stop>
						<stop offset="1" style="stop-color:#CAD5E4"></stop>
					</linearGradient>
					<rect x="81.1" y="3.6" class="st2" width="35.9" height="42.7"></rect>
				</g>
			</g>
		</g>
	</g>
	<g>
		<g>
			<g>
				<g>
					<defs>
						<polygon id="SVGID_10_" points="55.4,27.9 55.1,28.2 53.5,29.8 53.5,46.3 61.8,46.3 61.8,21.8       "></polygon>
					</defs>
					<clipPath id="SVGID_11_">
						<use xlink:href="#SVGID_10_" style="overflow:visible;"></use>
					</clipPath>
					
						<linearGradient id="SVGID_12_" gradientUnits="userSpaceOnUse" x1="-1784.9249" y1="-426.6449" x2="-1784.7931" y2="-426.6449" gradientTransform="matrix(62.9818 0 0 62.9818 112471.2734 26904.9414)">
						<stop offset="0" style="stop-color:#778AA5"></stop>
						<stop offset="0.3476" style="stop-color:#778AA5"></stop>
						<stop offset="0.512" style="stop-color:#8697B1"></stop>
						<stop offset="0.8483" style="stop-color:#B3BFD2"></stop>
						<stop offset="1" style="stop-color:#CAD5E4"></stop>
					</linearGradient>
					<rect x="53.5" y="21.8" class="st3" width="8.3" height="24.5"></rect>
				</g>
			</g>
		</g>
	</g>
	<g>
		<g>
			<g>
				<g>
					<defs>
						<path id="SVGID_13_" d="M71.9,12c5.1,0.3,9.1,4.5,9.1,9.6v24.7h8.3V21.6c0-4.4-1.6-8.4-4.2-11.5c-1.7-2-3.9-3.7-6.3-4.8        L71.9,12z"></path>
					</defs>
					<clipPath id="SVGID_14_">
						<use xlink:href="#SVGID_13_" style="overflow:visible;"></use>
					</clipPath>
					
						<linearGradient id="SVGID_15_" gradientUnits="userSpaceOnUse" x1="-1795.5542" y1="-434.8389" x2="-1795.4226" y2="-434.8389" gradientTransform="matrix(162.8752 0 0 162.8752 292519.8125 70850.2891)">
						<stop offset="0" style="stop-color:#778AA5"></stop>
						<stop offset="0.3476" style="stop-color:#778AA5"></stop>
						<stop offset="0.512" style="stop-color:#8697B1"></stop>
						<stop offset="0.8483" style="stop-color:#B3BFD2"></stop>
						<stop offset="1" style="stop-color:#CAD5E4"></stop>
					</linearGradient>
					<rect x="71.9" y="5.3" class="st4" width="17.4" height="41"></rect>
				</g>
			</g>
		</g>
	</g>
	<g>
		<g>
			<g>
				<g>
					<defs>
						<path id="SVGID_16_" d="M155.3,1.5L153,3.7l-1,0.9l-6.9,6.8c-0.1,0.1-0.4,0.3-0.4,0.3c-0.8,0.5-1.9,0.4-2.6-0.3l-9.7-9.9        c-2-2-5.2-2-7.2,0c-1,1-1.5,2.3-1.5,3.6s0.5,2.6,1.4,3.6L136.3,20l0.1,0.1c0,0,0,0,0.1,0.1c2,2,4.6,3,7.2,3c2.6,0,5.2-1,7.2-3        l11.7-11.5c2-2,2-5.2,0-7.2c-1-1.1-2.3-1.5-3.6-1.5C157.6,0,156.3,0.5,155.3,1.5"></path>
					</defs>
					<clipPath id="SVGID_17_">
						<use xlink:href="#SVGID_16_" style="overflow:visible;"></use>
					</clipPath>
					
						<linearGradient id="SVGID_18_" gradientUnits="userSpaceOnUse" x1="-1798.7937" y1="-444.9863" x2="-1798.6616" y2="-444.9863" gradientTransform="matrix(-162.8025 172.3791 -172.3791 -162.8025 -369396.0938 237625.8281)">
						<stop offset="0" style="stop-color:#4B6BB3"></stop>
						<stop offset="1" style="stop-color:#5ACAF4"></stop>
					</linearGradient>
					<polygon class="st5" points="176.3,10.7 145.3,43.6 111.9,12 143,-20.9      "></polygon>
				</g>
			</g>
		</g>
	</g>
	<g>
		<g>
			<g>
				<g>
					<defs>
						<path id="SVGID_19_" d="M125.2,1.5c-1,1-1.5,2.3-1.5,3.6s0.5,2.6,1.4,3.6l2.8,2.8c4.6,4.7,12.1,4.8,16.9,0.2l0,0        c-0.8,0.5-1.9,0.4-2.6-0.3l-9.7-9.9c-1-1-2.3-1.5-3.6-1.5C127.5,0,126.2,0.5,125.2,1.5"></path>
					</defs>
					<clipPath id="SVGID_20_">
						<use xlink:href="#SVGID_19_" style="overflow:visible;"></use>
					</clipPath>
					
						<linearGradient id="SVGID_21_" gradientUnits="userSpaceOnUse" x1="-1808.9127" y1="-443.0299" x2="-1808.7809" y2="-443.0299" gradientTransform="matrix(-93.6378 -100.8014 100.8014 -93.6378 -124584.9688 -223811.3438)">
						<stop offset="0" style="stop-color:#4B6BB3"></stop>
						<stop offset="1" style="stop-color:#5ACAF4"></stop>
					</linearGradient>
					<polygon class="st6" points="133.5,26.8 115.6,7.6 135,-10.5 152.9,8.8      "></polygon>
				</g>
			</g>
		</g>
	</g>
	<g>
		<g>
			<g>
				<g>
					<defs>
						<path id="SVGID_22_" d="M136.4,29.8C136.4,29.9,136.4,29.9,136.4,29.8l-0.1,0.1l-11.1,11.3c-1,1-1.4,2.3-1.4,3.6        c0,1.3,0.5,2.6,1.5,3.6c2,2,5.3,2,7.2,0l5-5.1l0.3-0.3l4.4-4.4c0.1-0.1,0.2-0.2,0.3-0.3l0,0c0.7-0.4,1.6-0.5,2.3,0        c0,0,0.3,0.2,0.4,0.3l6.9,6.8l1,0.9l2.3,2.3c1,1,2.3,1.5,3.6,1.5c1.3,0,2.6-0.5,3.6-1.5c2-2,1.9-5.3,0-7.2l-11.6-11.4        l-0.1-0.1c-2-2-4.6-3-7.2-3C141,26.8,138.4,27.8,136.4,29.8"></path>
					</defs>
					<clipPath id="SVGID_23_">
						<use xlink:href="#SVGID_22_" style="overflow:visible;"></use>
					</clipPath>
					
						<linearGradient id="SVGID_24_" gradientUnits="userSpaceOnUse" x1="-1802.0491" y1="-436.5033" x2="-1801.9172" y2="-436.5033" gradientTransform="matrix(150.7508 -153.1186 153.1186 150.7508 338627.4375 -210071.375)">
						<stop offset="0" style="stop-color:#4B6BB3"></stop>
						<stop offset="1" style="stop-color:#5ACAF4"></stop>
					</linearGradient>
					<polygon class="st7" points="111.9,38.8 143.8,6.4 176.4,38.5 144.4,70.9      "></polygon>
				</g>
			</g>
		</g>
	</g>
	<g>
		<g>
			<g>
				<g>
					<defs>
						<path id="SVGID_25_" d="M142.5,38.3c0.7-0.4,1.6-0.5,2.3,0c0,0,0.3,0.2,0.4,0.3l6.9,6.8l1,0.9l2.3,2.3c1,1,2.3,1.5,3.6,1.5        c1.3,0,2.6-0.5,3.6-1.5c2-2,1.9-5.3,0-7.2l-3.1-3.1c-2.3-2.3-5.4-3.4-8.4-3.4C147.9,34.7,144.9,35.9,142.5,38.3"></path>
					</defs>
					<clipPath id="SVGID_26_">
						<use xlink:href="#SVGID_25_" style="overflow:visible;"></use>
					</clipPath>
					
						<linearGradient id="SVGID_27_" gradientUnits="userSpaceOnUse" x1="-1795.3584" y1="-437.954" x2="-1795.2267" y2="-437.954" gradientTransform="matrix(113.7931 98.3635 -98.3635 113.7931 161366.1719 226469.2812)">
						<stop offset="0" style="stop-color:#4B6BB3"></stop>
						<stop offset="1" style="stop-color:#5ACAF4"></stop>
					</linearGradient>
					<polygon class="st8" points="151.9,23.9 172.1,41.3 155.1,60.9 135,43.5      "></polygon>
				</g>
			</g>
		</g>
	</g>
</g>
</svg>
