<svg width="855" height="262" viewBox="0 0 855 262" fill="none" xmlns="http://www.w3.org/2000/svg">
<path d="M55.7107 34.3705C37.7427 44.5839 24.1253 57.6345 14.668 74.0905C5.02134 90.5452 0.291992 109.46 0.291992 130.644C0.291992 141.236 1.23733 151.261 3.508 160.719C8.236 180.012 17.504 196.844 31.6907 211.031C52.6853 231.836 79.7333 242.239 112.833 242.239C120.211 242.239 127.208 241.672 133.828 240.727C143.475 239.403 152.363 236.944 160.497 233.54C164.657 231.648 168.82 229.568 173.169 226.918C181.681 221.813 190.571 214.813 199.84 206.301L204.945 201.572L243.532 164.501L244.099 164.124L279.28 129.699L289.872 119.296L291.196 118.161L342.265 68.9838L350.209 61.4172L350.587 60.8492L360.044 51.7718L391.82 21.3185C391.82 21.3185 389.741 20.7518 385.957 20.3732C372.339 18.8598 337.348 19.2385 301.221 53.4732C300.464 54.2305 299.707 54.9865 298.949 55.7439L291.953 62.9318C287.224 68.2265 282.305 73.1452 277.2 78.2518L178.465 173.96L167.117 182.66L166.928 182.849L156.904 190.604C152.932 193.063 149.148 195.33 145.553 196.844C142.151 198.357 138.557 199.683 134.963 200.627C128.153 202.52 120.967 203.467 113.4 203.467C103.943 203.467 95.0533 201.952 86.7307 198.925C82.948 197.791 79.3533 196.088 75.9493 194.008C64.6013 187.956 56.0893 179.253 49.848 168.284C43.6053 157.315 40.58 144.831 40.58 130.644C40.58 110.408 47.5773 93.1932 61.3853 79.3865C75.1933 65.5785 92.4053 58.5798 112.644 58.5798C136.665 58.5798 158.417 68.6052 177.52 89.0332L205.703 61.9852C194.165 48.3678 180.168 37.9638 163.901 30.5865C147.635 23.2105 130.803 19.4265 113.212 19.4265C92.784 19.4265 73.4907 24.5345 55.7107 34.3705Z" fill="url(#paint0_linear_928_1513)"/>
<path d="M55.684 34.4357C37.8254 44.4797 24.176 57.6717 14.5867 74.0597C5.04802 90.5504 0.228027 109.374 0.228027 130.582C0.228027 141.236 1.34402 151.232 3.57735 160.618C26.9667 180.052 55.4307 193.597 86.736 198.977C82.9814 197.657 79.3787 196.033 75.8774 194.105C64.6654 187.865 55.988 179.238 49.7987 168.229C43.66 157.32 40.5653 144.738 40.5653 130.582C40.5653 110.288 47.5667 93.1877 61.4187 79.3384C75.2693 65.4864 92.368 58.5344 112.663 58.5344C136.661 58.5344 158.325 68.6837 177.556 88.9771L205.765 62.0357C194.045 48.3877 180.092 37.9357 163.907 30.5277C147.671 23.1197 130.827 19.4157 113.272 19.4157C92.7733 19.4157 73.544 24.4904 55.684 34.4357Z" fill="url(#paint1_linear_928_1513)"/>
<path d="M423.357 113.218V242.298H466.649V113.218C466.649 85.3677 489.305 62.709 517.157 62.709C545.009 62.709 567.664 85.3677 567.664 113.218V242.298H610.956V113.218C610.956 61.4117 568.963 19.417 517.157 19.417C465.352 19.417 423.357 61.4117 423.357 113.218Z" fill="url(#paint2_linear_928_1513)"/>
<path d="M289.455 146.288L287.959 147.674L279.313 155.994V242.298H322.64V114.376L289.455 146.288Z" fill="url(#paint3_linear_928_1513)"/>
<path d="M375.661 63.0237C402.162 64.4957 423.342 86.3317 423.342 113.194V242.298H466.669V113.194C466.669 90.3597 458.472 69.4757 445.005 53.1797C436.044 42.5663 424.742 34.0503 411.974 28.145L375.661 63.0237Z" fill="url(#paint4_linear_928_1513)"/>
<path d="M809.513 8.04778L797.417 19.9558L792.313 24.8704L756.477 60.1384C755.911 60.7051 754.588 61.6504 754.588 61.6504C750.241 64.4838 744.569 63.9184 740.979 60.1384L690.321 8.53712C679.925 -2.04688 663.103 -2.04689 652.519 8.34644C647.227 13.4518 644.58 20.4451 644.58 27.2491C644.58 34.0531 647.037 40.8571 652.141 45.9611L710.168 104.936L710.547 105.313L710.924 105.692C721.321 116.086 734.931 121.378 748.728 121.378C762.148 121.378 775.757 116.276 786.153 105.88L846.939 46.0398C857.333 35.8318 857.524 18.8224 847.128 8.42644C842.024 2.94377 835.031 0.487759 828.227 0.487759C821.421 0.487759 814.616 2.94378 809.513 8.04778Z" fill="url(#paint5_linear_928_1513)"/>
<path d="M652.519 8.34687C647.227 13.4522 644.58 20.4455 644.58 27.2495C644.58 34.0535 647.037 40.8575 652.141 45.9615L666.673 60.7309C690.728 85.1789 730.019 85.5922 754.583 61.6549L754.588 61.6509C750.241 64.4842 744.569 63.9189 740.979 60.1389L690.321 8.53755C685.1 3.22021 678.259 0.574859 671.399 0.574859C664.601 0.576193 657.787 3.17487 652.519 8.34687Z" fill="url(#paint6_linear_928_1513)"/>
<path d="M710.92 156.038C710.701 156.185 710.701 156.185 710.556 156.402L710.193 156.764L652.118 215.71C647.044 220.857 644.577 227.672 644.577 234.488C644.577 241.232 647.261 248.264 652.553 253.34C663.138 263.778 679.96 263.778 690.328 253.194L716.43 226.585L718.241 224.773L741.008 201.572C741.516 200.992 742.096 200.557 742.674 200.121L742.748 200.049C746.228 197.729 750.869 197.657 754.565 200.049C754.565 200.049 755.944 200.992 756.451 201.572L792.341 236.808L797.416 241.737L809.524 253.628C814.599 258.777 821.414 261.242 828.229 261.242C835.045 261.242 842.005 258.777 847.153 253.266C857.521 242.898 857.304 225.86 846.934 215.637L786.466 156.112L786.177 155.822C775.737 145.454 762.179 140.305 748.693 140.305C734.917 140.305 721.287 145.598 710.92 156.038Z" fill="url(#paint7_linear_928_1513)"/>
<path d="M742.748 200.049C746.228 197.729 750.869 197.657 754.565 200.049C754.565 200.049 755.944 200.992 756.451 201.572L792.341 236.808L797.416 241.737L809.524 253.628C814.599 258.777 821.415 261.242 828.229 261.242C835.045 261.242 842.005 258.777 847.153 253.266C857.521 242.898 857.304 225.86 846.935 215.637L830.639 199.594C818.504 187.649 802.712 181.686 786.924 181.688C770.921 181.689 754.921 187.816 742.748 200.049Z" fill="url(#paint8_linear_928_1513)"/>
<defs>
<linearGradient id="paint0_linear_928_1513" x1="369.762" y1="-10.403" x2="-2.72821" y2="195.447" gradientUnits="userSpaceOnUse">
<stop stop-color="#406CCF"/>
<stop offset="0.060801" stop-color="#406CCF"/>
<stop offset="0.612171" stop-color="#4FCCFC"/>
<stop offset="1" stop-color="#4FCCFC"/>
</linearGradient>
<linearGradient id="paint1_linear_928_1513" x1="60.1084" y1="192.282" x2="125.922" y2="27.0487" gradientUnits="userSpaceOnUse">
<stop stop-color="#406CCF"/>
<stop offset="1" stop-color="#4FCCFC"/>
</linearGradient>
<linearGradient id="paint2_linear_928_1513" x1="423.358" y1="130.857" x2="610.956" y2="130.857" gradientUnits="userSpaceOnUse">
<stop stop-color="#29333D"/>
<stop offset="0.347594" stop-color="#29333D"/>
<stop offset="0.42964" stop-color="#29333D"/>
<stop offset="1" stop-color="#485360"/>
</linearGradient>
<linearGradient id="paint3_linear_928_1513" x1="279.313" y1="178.337" x2="322.64" y2="178.337" gradientUnits="userSpaceOnUse">
<stop stop-color="#29333D"/>
<stop offset="0.347594" stop-color="#29333D"/>
<stop offset="0.42964" stop-color="#29333D"/>
<stop offset="1" stop-color="#485360"/>
</linearGradient>
<linearGradient id="paint4_linear_928_1513" x1="358.005" y1="135.221" x2="470.052" y2="135.221" gradientUnits="userSpaceOnUse">
<stop stop-color="#29333D"/>
<stop offset="0.347594" stop-color="#29333D"/>
<stop offset="0.42964" stop-color="#29333D"/>
<stop offset="1" stop-color="#485360"/>
</linearGradient>
<linearGradient id="paint5_linear_928_1513" x1="808.27" y1="-34.7979" x2="696.349" y2="83.707" gradientUnits="userSpaceOnUse">
<stop stop-color="#406CCF"/>
<stop offset="1" stop-color="#4FCCFC"/>
</linearGradient>
<linearGradient id="paint6_linear_928_1513" x1="724.418" y1="76.483" x2="660.045" y2="7.18542" gradientUnits="userSpaceOnUse">
<stop stop-color="#406CCF"/>
<stop offset="1" stop-color="#4FCCFC"/>
</linearGradient>
<linearGradient id="paint7_linear_928_1513" x1="694.207" y1="290.791" x2="797.844" y2="185.527" gradientUnits="userSpaceOnUse">
<stop stop-color="#406CCF"/>
<stop offset="1" stop-color="#4FCCFC"/>
</linearGradient>
<linearGradient id="paint8_linear_928_1513" x1="762.585" y1="178.894" x2="840.814" y2="246.516" gradientUnits="userSpaceOnUse">
<stop stop-color="#406CCF"/>
<stop offset="1" stop-color="#4FCCFC"/>
</linearGradient>
</defs>
</svg>
