<?xml version="1.0" encoding="UTF-8"?>
<!-- Generator: Adobe Illustrator 16.0.0, SVG Export Plug-In . SVG Version: 6.00 Build 0)  -->
<!DOCTYPE svg PUBLIC "-//W3C//DTD SVG 1.1//EN" "http://www.w3.org/Graphics/SVG/1.1/DTD/svg11.dtd">
<svg version="1.1" id="Layer_1" xmlns="http://www.w3.org/2000/svg" xmlns:xlink="http://www.w3.org/1999/xlink" x="0px" y="0px" width="1920.805px" height="584.875px" viewBox="0 0 1920.805 584.875" enable-background="new 0 0 1920.805 584.875" xml:space="preserve">
<g opacity="0.22">
	<path opacity="0.47" fill="none" stroke="#FFFFFF" stroke-miterlimit="10" enable-background="new    " d="M1115.592,581.823   c0,0,152.169,14.23,386.221-43.496c234.051-57.727,418.595-57.995,418.595-57.995"/>
	<path opacity="0.47" fill="none" stroke="#FFFFFF" stroke-miterlimit="10" enable-background="new    " d="M821.035,583.376   c65.215-14.559,178.256-53.506,178.256-53.506c229.343-88.604,414.118-95.72,637.301-93.035   c223.181,2.688,283.815-14.498,283.815-14.498"/>
	<path opacity="0.47" fill="none" stroke="#FFFFFF" stroke-miterlimit="10" enable-background="new    " d="M43.883,583.376   C404.92,412.918,708.379,421.03,954.648,438.01c246.269,16.981,448.185-16.981,633.762-84.472   c185.576-67.489,331.997-77.794,331.997-77.794"/>
	<path opacity="0.47" fill="none" stroke="#FFFFFF" stroke-miterlimit="10" enable-background="new    " d="M0.409,229.019   c0,0,141.297,38.664,322.816,66.454c181.514,27.788,534.765,22.15,752.149-33.831c217.386-55.983,530.782-39.873,634.402-32.354   c103.62,7.517,210.63,6.577,210.63,6.577"/>
	<path opacity="0.47" fill="none" stroke="#FFFFFF" stroke-miterlimit="10" enable-background="new    " d="M330.832,1.38   c253.616,108.25,516.289,106.816,746.72,91.511c230.427-15.303,453.245-12.887,593.46,9.264   c140.212,22.15,249.396,24.567,249.396,24.567"/>
</g>
</svg>