<?xml version="1.0" encoding="UTF-8"?>
<!-- Generator: Adobe Illustrator 16.0.0, SVG Export Plug-In . SVG Version: 6.00 Build 0)  -->
<!DOCTYPE svg PUBLIC "-//W3C//DTD SVG 1.1//EN" "http://www.w3.org/Graphics/SVG/1.1/DTD/svg11.dtd">
<svg version="1.1" id="Layer_1" xmlns="http://www.w3.org/2000/svg" xmlns:xlink="http://www.w3.org/1999/xlink" x="0px" y="0px" width="532.215px" height="111.23px" viewBox="273.214 57.1 532.215 111.23" enable-background="new 273.214 57.1 532.215 111.23" xml:space="preserve">
<g>
	<g opacity="0.36">
		<polygon fill="#D0D3CB" points="716.403,72.052 713.702,74.754 711,72.052 709.151,73.901 711.852,76.604 709.151,79.306     711,81.153 713.702,78.452 716.403,81.153 718.251,79.306 715.549,76.604 718.251,73.901   "/>
		<polygon fill="#D0D3CB" points="738.197,72.052 735.497,74.754 732.792,72.052 730.945,73.901 733.648,76.604 730.945,79.306     732.792,81.153 735.497,78.452 738.197,81.153 740.045,79.306 737.344,76.604 740.045,73.901   "/>
		<polygon fill="#D0D3CB" points="759.991,72.052 757.29,74.754 754.587,72.052 752.74,73.901 755.44,76.604 752.74,79.306     754.587,81.153 757.29,78.452 759.991,81.153 761.841,79.306 759.138,76.604 761.841,73.901   "/>
		<polygon fill="#D0D3CB" points="781.785,72.052 779.084,74.754 776.382,72.052 774.534,73.901 777.235,76.604 774.534,79.306     776.382,81.153 779.084,78.452 781.785,81.153 783.634,79.306 780.932,76.604 783.634,73.901   "/>
		<polygon fill="#D0D3CB" points="798.175,81.153 800.878,78.452 803.58,81.153 805.429,79.306 802.727,76.604 805.429,73.901     803.58,72.052 800.878,74.754 798.175,72.052 796.329,73.901 799.03,76.604 796.329,79.306   "/>
		<polygon fill="#D0D3CB" points="716.403,93.847 713.702,96.549 711,93.847 709.151,95.695 711.852,98.397 709.151,101.1     711,102.947 713.702,100.246 716.403,102.947 718.251,101.1 715.549,98.397 718.251,95.695   "/>
		<polygon fill="#D0D3CB" points="738.197,93.847 735.497,96.549 732.792,93.847 730.945,95.695 733.648,98.397 730.945,101.1     732.792,102.947 735.497,100.246 738.197,102.947 740.045,101.1 737.344,98.397 740.045,95.695   "/>
		<polygon fill="#D0D3CB" points="759.991,93.847 757.29,96.549 754.587,93.847 752.74,95.695 755.44,98.397 752.74,101.1     754.587,102.947 757.29,100.246 759.991,102.947 761.841,101.1 759.138,98.397 761.841,95.695   "/>
		<polygon fill="#D0D3CB" points="781.785,93.847 779.084,96.549 776.382,93.847 774.534,95.695 777.235,98.397 774.534,101.1     776.382,102.947 779.084,100.246 781.785,102.947 783.634,101.1 780.932,98.397 783.634,95.695   "/>
		<polygon fill="#D0D3CB" points="805.429,95.695 803.58,93.847 800.878,96.549 798.175,93.847 796.329,95.695 799.03,98.397     796.329,101.1 798.175,102.947 800.878,100.246 803.58,102.947 805.429,101.1 802.727,98.397   "/>
		<polygon fill="#D0D3CB" points="716.403,115.642 713.702,118.344 711,115.642 709.151,117.491 711.852,120.191 709.151,122.893     711,124.742 713.702,122.04 716.403,124.742 718.251,122.893 715.549,120.191 718.251,117.491   "/>
		<polygon fill="#D0D3CB" points="738.197,115.642 735.497,118.344 732.792,115.642 730.945,117.491 733.648,120.191     730.945,122.893 732.792,124.742 735.497,122.04 738.197,124.742 740.045,122.893 737.344,120.191 740.045,117.491   "/>
		<polygon fill="#D0D3CB" points="759.991,115.642 757.29,118.344 754.587,115.642 752.74,117.491 755.44,120.191 752.74,122.893     754.587,124.742 757.29,122.04 759.991,124.742 761.841,122.893 759.138,120.191 761.841,117.491   "/>
		<polygon fill="#D0D3CB" points="781.785,115.642 779.084,118.344 776.382,115.642 774.534,117.491 777.235,120.191     774.534,122.893 776.382,124.742 779.084,122.04 781.785,124.742 783.634,122.893 780.932,120.191 783.634,117.491   "/>
		<polygon fill="#D0D3CB" points="805.429,117.491 803.58,115.642 800.878,118.344 798.175,115.642 796.329,117.491 799.03,120.191     796.329,122.893 798.175,124.742 800.878,122.04 803.58,124.742 805.429,122.893 802.727,120.191   "/>
		<polygon fill="#D0D3CB" points="716.403,137.435 713.702,140.137 711,137.435 709.151,139.284 711.852,141.985 709.151,144.688     711,146.537 713.702,143.835 716.403,146.537 718.251,144.688 715.549,141.985 718.251,139.284   "/>
		<polygon fill="#D0D3CB" points="738.197,137.435 735.497,140.137 732.792,137.435 730.945,139.284 733.648,141.985     730.945,144.688 732.792,146.537 735.497,143.835 738.197,146.537 740.045,144.688 737.344,141.985 740.045,139.284   "/>
		<polygon fill="#D0D3CB" points="759.991,137.435 757.29,140.137 754.587,137.435 752.74,139.284 755.44,141.985 752.74,144.688     754.587,146.537 757.29,143.835 759.991,146.537 761.841,144.688 759.138,141.985 761.841,139.284   "/>
		<polygon fill="#D0D3CB" points="781.785,137.435 779.084,140.137 776.382,137.435 774.534,139.284 777.235,141.985     774.534,144.688 776.382,146.537 779.084,143.835 781.785,146.537 783.634,144.688 780.932,141.985 783.634,139.284   "/>
		<polygon fill="#D0D3CB" points="805.429,139.284 803.58,137.435 800.878,140.137 798.175,137.435 796.329,139.284 799.03,141.985     796.329,144.688 798.175,146.537 800.878,143.835 803.58,146.537 805.429,144.688 802.727,141.985   "/>
		<polygon fill="#D0D3CB" points="716.403,159.229 713.702,161.931 711,159.229 709.151,161.077 711.852,163.778 709.151,166.482     711,168.33 713.702,165.629 716.403,168.33 718.251,166.482 715.549,163.778 718.251,161.077   "/>
		<polygon fill="#D0D3CB" points="738.197,159.229 735.497,161.931 732.792,159.229 730.945,161.077 733.648,163.778     730.945,166.482 732.792,168.33 735.497,165.629 738.197,168.33 740.045,166.482 737.344,163.778 740.045,161.077   "/>
		<polygon fill="#D0D3CB" points="759.991,159.229 757.29,161.931 754.587,159.229 752.74,161.077 755.44,163.778 752.74,166.482     754.587,168.33 757.29,165.629 759.991,168.33 761.841,166.482 759.138,163.778 761.841,161.077   "/>
		<polygon fill="#D0D3CB" points="781.785,159.229 779.084,161.931 776.382,159.229 774.534,161.077 777.235,163.778     774.534,166.482 776.382,168.33 779.084,165.629 781.785,168.33 783.634,166.482 780.932,163.778 783.634,161.077   "/>
		<polygon fill="#D0D3CB" points="805.429,161.077 803.58,159.229 800.878,161.931 798.175,159.229 796.329,161.077 799.03,163.778     796.329,166.482 798.175,168.33 800.878,165.629 803.58,168.33 805.429,166.482 802.727,163.778   "/>
	</g>
	<g opacity="0.31">
		<path fill="#5297D1" d="M303.163,65.134c0.093-0.043,0.185-0.086,0.277-0.129l-1.555-3.334c-0.093,0.042-0.186,0.086-0.277,0.13    L303.163,65.134z"/>
		<path fill="#5297D1" d="M303.886,64.797c0.094-0.041,0.188-0.082,0.281-0.123l-1.497-3.361c-0.094,0.041-0.187,0.082-0.281,0.123    L303.886,64.797z"/>
		<path fill="#5297D1" d="M301.025,66.212c0.09-0.048,0.181-0.095,0.271-0.142l-1.728-3.248c-0.089,0.047-0.181,0.094-0.27,0.144    L301.025,66.212z"/>
		<path fill="#5297D1" d="M302.443,65.483c0.093-0.046,0.183-0.093,0.276-0.137l-1.613-3.307c-0.093,0.044-0.183,0.092-0.273,0.137    L302.443,65.483z"/>
		<path fill="#5297D1" d="M301.731,65.841c0.09-0.047,0.182-0.093,0.273-0.14l-1.671-3.278c-0.092,0.046-0.182,0.092-0.273,0.139    L301.731,65.841z"/>
		<path fill="#5297D1" d="M306.094,63.874c0.096-0.038,0.192-0.074,0.287-0.11l-1.318-3.435c-0.097,0.037-0.192,0.072-0.288,0.109    L306.094,63.874z"/>
		<path fill="#5297D1" d="M307.592,63.32c0.097-0.033,0.192-0.068,0.29-0.102l-1.198-3.479c-0.096,0.034-0.193,0.069-0.29,0.103    L307.592,63.32z"/>
		<path fill="#5297D1" d="M304.618,64.478c0.094-0.041,0.187-0.082,0.281-0.122l-1.438-3.387c-0.094,0.04-0.187,0.082-0.281,0.122    L304.618,64.478z"/>
		<path fill="#5297D1" d="M308.349,63.064c0.096-0.031,0.194-0.063,0.291-0.096l-1.136-3.499c-0.098,0.032-0.194,0.063-0.292,0.095    L308.349,63.064z"/>
		<path fill="#5297D1" d="M300.326,66.598c0.089-0.051,0.178-0.1,0.267-0.151l-1.782-3.217c-0.09,0.05-0.18,0.1-0.268,0.15    L300.326,66.598z"/>
		<path fill="#5297D1" d="M306.841,63.588c0.097-0.035,0.193-0.068,0.289-0.103l-1.259-3.457c-0.097,0.035-0.192,0.069-0.289,0.103    L306.841,63.588z"/>
		<path fill="#5297D1" d="M295.633,69.62c0.083-0.061,0.165-0.121,0.248-0.181l-2.161-2.976c-0.083,0.061-0.165,0.12-0.248,0.181    L295.633,69.62z"/>
		<path fill="#5297D1" d="M294.994,70.098c0.082-0.062,0.162-0.125,0.244-0.187l-2.214-2.938c-0.081,0.062-0.162,0.125-0.243,0.187    L294.994,70.098z"/>
		<path fill="#5297D1" d="M294.362,70.584c0.08-0.063,0.161-0.125,0.243-0.188l-2.266-2.898c-0.08,0.062-0.162,0.124-0.242,0.187    L294.362,70.584z"/>
		<path fill="#5297D1" d="M299.633,66.994c0.089-0.052,0.176-0.105,0.264-0.156l-1.838-3.186c-0.089,0.052-0.176,0.104-0.264,0.156    L299.633,66.994z"/>
		<path fill="#5297D1" d="M293.74,71.084c0.08-0.064,0.16-0.127,0.238-0.192l-2.314-2.858c-0.08,0.064-0.159,0.127-0.239,0.192    L293.74,71.084z"/>
		<path fill="#5297D1" d="M296.28,69.152c0.083-0.058,0.168-0.116,0.252-0.174l-2.11-3.014c-0.084,0.059-0.168,0.116-0.253,0.176    L296.28,69.152z"/>
		<path fill="#5297D1" d="M296.936,68.698c0.083-0.058,0.168-0.115,0.254-0.172l-2.057-3.049c-0.085,0.057-0.17,0.114-0.254,0.171    L296.936,68.698z"/>
		<path fill="#5297D1" d="M298.947,67.4c0.086-0.053,0.176-0.104,0.262-0.156l-1.894-3.152c-0.088,0.052-0.177,0.103-0.264,0.156    L298.947,67.4z"/>
		<path fill="#5297D1" d="M298.27,67.822c0.087-0.053,0.173-0.107,0.26-0.162l-1.949-3.119c-0.085,0.053-0.173,0.107-0.26,0.162    L298.27,67.822z"/>
		<path fill="#5297D1" d="M297.599,68.254c0.085-0.054,0.169-0.113,0.256-0.168l-2.003-3.084c-0.086,0.056-0.171,0.113-0.257,0.168    L297.599,68.254z"/>
		<path fill="#5297D1" d="M305.354,64.169c0.094-0.038,0.188-0.078,0.284-0.116l-1.377-3.412c-0.097,0.039-0.191,0.078-0.285,0.117    L305.354,64.169z"/>
		<path fill="#5297D1" d="M326.459,60.941c0.102,0.009,0.204,0.018,0.306,0.027l0.32-3.666c-0.101-0.01-0.204-0.019-0.306-0.028    L326.459,60.941z"/>
		<path fill="#5297D1" d="M320.08,60.852c0.102-0.006,0.206-0.012,0.307-0.017l-0.192-3.675c-0.103,0.006-0.206,0.011-0.307,0.017    L320.08,60.852z"/>
		<path fill="#5297D1" d="M321.675,60.792c0.102-0.001,0.204-0.002,0.307-0.004l-0.064-3.678c-0.103,0.001-0.205,0.001-0.307,0.004    L321.675,60.792z"/>
		<path fill="#5297D1" d="M319.284,60.902c0.102-0.007,0.204-0.013,0.307-0.019l-0.257-3.671c-0.101,0.007-0.204,0.012-0.307,0.02    L319.284,60.902z"/>
		<path fill="#5297D1" d="M318.489,60.969c0.101-0.01,0.203-0.019,0.305-0.027l-0.319-3.666c-0.103,0.009-0.204,0.018-0.306,0.028    L318.489,60.969z"/>
		<path fill="#5297D1" d="M320.876,60.816c0.103-0.004,0.206-0.009,0.307-0.013l-0.128-3.676c-0.102,0.003-0.205,0.007-0.307,0.012    L320.876,60.816z"/>
		<path fill="#5297D1" d="M324.866,60.835c0.103,0.005,0.206,0.011,0.307,0.017l0.192-3.675c-0.102-0.006-0.203-0.012-0.305-0.017    L324.866,60.835z"/>
		<path fill="#5297D1" d="M309.108,62.819c0.097-0.03,0.196-0.059,0.293-0.087l-1.077-3.519c-0.097,0.03-0.196,0.056-0.293,0.087    L309.108,62.819z"/>
		<path fill="#5297D1" d="M322.474,57.102v3.68c0.051,0,0.102-0.002,0.153-0.002c0.051,0,0.102,0.002,0.152,0.002v-3.68    c-0.051,0-0.102-0.001-0.152-0.001C322.575,57.1,322.524,57.102,322.474,57.102z"/>
		<path fill="#5297D1" d="M323.272,60.788c0.102,0.002,0.204,0.002,0.306,0.004l0.065-3.678c-0.103-0.002-0.205-0.002-0.307-0.004    L323.272,60.788z"/>
		<path fill="#5297D1" d="M324.069,60.804c0.103,0.004,0.205,0.009,0.307,0.013l0.127-3.677c-0.102-0.004-0.204-0.008-0.306-0.012    L324.069,60.804z"/>
		<path fill="#5297D1" d="M325.664,60.883c0.102,0.007,0.205,0.012,0.307,0.019l0.256-3.67c-0.102-0.008-0.204-0.013-0.306-0.02    L325.664,60.883z"/>
		<path fill="#5297D1" d="M311.414,62.172c0.099-0.024,0.199-0.048,0.298-0.072l-0.891-3.571c-0.1,0.025-0.198,0.048-0.297,0.073    L311.414,62.172z"/>
		<path fill="#5297D1" d="M312.968,61.81c0.099-0.021,0.199-0.044,0.299-0.066l-0.765-3.599c-0.1,0.021-0.2,0.043-0.299,0.066    L312.968,61.81z"/>
		<path fill="#5297D1" d="M312.188,61.983c0.099-0.023,0.199-0.046,0.299-0.069l-0.828-3.585c-0.099,0.021-0.2,0.044-0.299,0.068    L312.188,61.983z"/>
		<path fill="#5297D1" d="M310.642,62.376c0.098-0.027,0.197-0.055,0.295-0.081l-0.951-3.554c-0.099,0.026-0.198,0.053-0.296,0.08    L310.642,62.376z"/>
		<path fill="#5297D1" d="M309.874,62.593c0.098-0.029,0.195-0.06,0.293-0.087l-1.014-3.538c-0.098,0.027-0.196,0.058-0.295,0.086    L309.874,62.593z"/>
		<path fill="#5297D1" d="M316.901,61.137c0.102-0.013,0.203-0.023,0.305-0.035l-0.448-3.652c-0.102,0.012-0.204,0.021-0.305,0.034    L316.901,61.137z"/>
		<path fill="#5297D1" d="M313.75,61.647c0.1-0.019,0.202-0.039,0.302-0.058l-0.703-3.612c-0.1,0.019-0.2,0.037-0.301,0.058    L313.75,61.647z"/>
		<path fill="#5297D1" d="M315.321,61.366c0.1-0.016,0.201-0.035,0.302-0.051l-0.576-3.634c-0.1,0.016-0.202,0.034-0.302,0.051    L315.321,61.366z"/>
		<path fill="#5297D1" d="M316.11,61.245c0.102-0.014,0.203-0.028,0.305-0.042l-0.513-3.644c-0.102,0.014-0.202,0.028-0.303,0.042    L316.11,61.245z"/>
		<path fill="#5297D1" d="M314.534,61.497c0.1-0.018,0.202-0.033,0.302-0.05l-0.639-3.624c-0.1,0.017-0.203,0.032-0.303,0.05    L314.534,61.497z"/>
		<path fill="#5297D1" d="M317.694,61.047c0.1-0.012,0.203-0.024,0.304-0.034l-0.385-3.659c-0.102,0.01-0.203,0.022-0.306,0.033    L317.694,61.047z"/>
		<path fill="#5297D1" d="M279.084,92.526c0.032-0.098,0.064-0.196,0.095-0.293l-3.5-1.136c-0.032,0.095-0.063,0.194-0.095,0.291    L279.084,92.526z"/>
		<path fill="#5297D1" d="M279.333,91.768c0.033-0.097,0.069-0.193,0.102-0.29l-3.479-1.198c-0.034,0.097-0.069,0.192-0.102,0.29    L279.333,91.768z"/>
		<path fill="#5297D1" d="M278.41,94.823c0.026-0.099,0.053-0.198,0.08-0.296l-3.554-0.951c-0.026,0.098-0.054,0.196-0.08,0.294    L278.41,94.823z"/>
		<path fill="#5297D1" d="M278.62,94.053c0.028-0.099,0.057-0.196,0.086-0.294l-3.538-1.015c-0.029,0.099-0.059,0.196-0.087,0.294    L278.62,94.053z"/>
		<path fill="#5297D1" d="M278.846,93.287c0.029-0.097,0.057-0.196,0.087-0.292l-3.519-1.078c-0.03,0.098-0.058,0.197-0.087,0.295    L278.846,93.287z"/>
		<path fill="#5297D1" d="M279.599,91.015c0.035-0.096,0.069-0.191,0.104-0.288l-3.458-1.259c-0.035,0.096-0.069,0.191-0.103,0.288    L279.599,91.015z"/>
		<path fill="#5297D1" d="M281.119,87.326c0.042-0.093,0.086-0.186,0.13-0.277l-3.334-1.557c-0.043,0.093-0.087,0.187-0.13,0.277    L281.119,87.326z"/>
		<path fill="#5297D1" d="M279.878,90.267c0.036-0.095,0.072-0.191,0.109-0.287l-3.435-1.318c-0.037,0.096-0.072,0.191-0.109,0.287    L279.878,90.267z"/>
		<path fill="#5297D1" d="M280.79,88.053c0.042-0.093,0.081-0.188,0.124-0.28l-3.362-1.497c-0.042,0.093-0.081,0.187-0.123,0.282    L280.79,88.053z"/>
		<path fill="#5297D1" d="M280.168,89.523c0.039-0.096,0.077-0.189,0.116-0.284l-3.412-1.379c-0.039,0.096-0.078,0.189-0.116,0.283    L280.168,89.523z"/>
		<path fill="#5297D1" d="M280.47,88.784c0.04-0.094,0.081-0.188,0.122-0.281l-3.387-1.438c-0.04,0.096-0.083,0.188-0.123,0.282    L280.47,88.784z"/>
		<path fill="#5297D1" d="M278.028,96.373c0.023-0.099,0.045-0.199,0.069-0.298l-3.586-0.828c-0.024,0.099-0.047,0.199-0.069,0.299    L278.028,96.373z"/>
		<path fill="#5297D1" d="M277.217,101.092c0.012-0.103,0.022-0.204,0.035-0.306l-3.651-0.449c-0.014,0.103-0.023,0.205-0.036,0.306    L277.217,101.092z"/>
		<path fill="#5297D1" d="M277.318,100.3c0.014-0.102,0.028-0.203,0.042-0.305l-3.643-0.511c-0.014,0.1-0.028,0.202-0.042,0.303    L277.318,100.3z"/>
		<path fill="#5297D1" d="M277.055,102.679c0.009-0.102,0.018-0.203,0.027-0.305l-3.665-0.32c-0.009,0.102-0.019,0.204-0.027,0.306    L277.055,102.679z"/>
		<path fill="#5297D1" d="M277.43,99.51c0.015-0.102,0.034-0.201,0.05-0.303l-3.634-0.576c-0.016,0.102-0.036,0.202-0.05,0.304    L277.43,99.51z"/>
		<path fill="#5297D1" d="M277.126,101.884c0.011-0.103,0.023-0.203,0.035-0.305l-3.66-0.385c-0.011,0.102-0.023,0.203-0.034,0.305    L277.126,101.884z"/>
		<path fill="#5297D1" d="M278.214,95.597c0.024-0.099,0.048-0.199,0.072-0.297l-3.57-0.891c-0.025,0.099-0.048,0.199-0.072,0.298    L278.214,95.597z"/>
		<path fill="#5297D1" d="M281.46,86.604c0.044-0.093,0.091-0.184,0.136-0.275l-3.306-1.612c-0.046,0.093-0.093,0.183-0.137,0.274    L281.46,86.604z"/>
		<path fill="#5297D1" d="M277.561,98.722c0.017-0.101,0.031-0.203,0.05-0.304l-3.624-0.639c-0.018,0.101-0.033,0.203-0.05,0.304    L277.561,98.722z"/>
		<path fill="#5297D1" d="M277.857,97.153c0.022-0.101,0.044-0.199,0.066-0.3l-3.599-0.765c-0.021,0.099-0.044,0.199-0.066,0.299    L277.857,97.153z"/>
		<path fill="#5297D1" d="M277.704,97.937c0.019-0.101,0.038-0.201,0.057-0.301l-3.612-0.703c-0.02,0.101-0.039,0.2-0.058,0.301    L277.704,97.937z"/>
		<path fill="#5297D1" d="M291.342,73.188c0.074-0.069,0.149-0.139,0.225-0.208l-2.508-2.69c-0.074,0.069-0.15,0.14-0.225,0.209    L291.342,73.188z"/>
		<path fill="#5297D1" d="M288.027,76.638c0.067-0.077,0.135-0.153,0.203-0.23l-2.776-2.413c-0.067,0.077-0.136,0.151-0.203,0.23    L288.027,76.638z"/>
		<path fill="#5297D1" d="M288.556,76.041c0.068-0.076,0.135-0.152,0.204-0.229l-2.733-2.461c-0.069,0.076-0.136,0.152-0.204,0.229    L288.556,76.041z"/>
		<path fill="#5297D1" d="M287.007,77.865c0.064-0.08,0.127-0.159,0.193-0.239l-2.859-2.313c-0.064,0.078-0.127,0.159-0.193,0.238    L287.007,77.865z"/>
		<path fill="#5297D1" d="M287.512,77.248c0.065-0.078,0.132-0.156,0.198-0.234l-2.817-2.363c-0.066,0.077-0.132,0.155-0.199,0.234    L287.512,77.248z"/>
		<path fill="#5297D1" d="M289.093,75.451c0.069-0.074,0.139-0.151,0.208-0.225l-2.69-2.508c-0.07,0.075-0.14,0.15-0.208,0.225    L289.093,75.451z"/>
		<path fill="#5297D1" d="M293.128,71.595c0.078-0.067,0.154-0.131,0.234-0.198l-2.364-2.817c-0.079,0.065-0.157,0.131-0.234,0.198    L293.128,71.595z"/>
		<path fill="#5297D1" d="M292.523,72.115c0.076-0.067,0.152-0.135,0.229-0.203l-2.413-2.776c-0.077,0.068-0.152,0.136-0.23,0.204    L292.523,72.115z"/>
		<path fill="#5297D1" d="M291.926,72.645c0.075-0.069,0.152-0.135,0.229-0.204l-2.461-2.733c-0.075,0.068-0.154,0.135-0.229,0.205    L291.926,72.645z"/>
		<path fill="#5297D1" d="M276.998,103.476c0.007-0.103,0.013-0.204,0.019-0.307l-3.67-0.256c-0.007,0.102-0.013,0.204-0.02,0.306    L276.998,103.476z"/>
		<path fill="#5297D1" d="M290.766,73.739c0.073-0.07,0.146-0.144,0.219-0.214l-2.556-2.646c-0.073,0.071-0.146,0.143-0.219,0.214    L290.766,73.739z"/>
		<path fill="#5297D1" d="M286.511,78.49c0.063-0.081,0.125-0.162,0.188-0.243l-2.899-2.264c-0.064,0.079-0.125,0.161-0.188,0.242    L286.511,78.49z"/>
		<path fill="#5297D1" d="M282.183,85.182c0.048-0.09,0.095-0.181,0.144-0.271l-3.248-1.727c-0.049,0.09-0.095,0.181-0.143,0.271    L282.183,85.182z"/>
		<path fill="#5297D1" d="M282.952,83.783c0.052-0.089,0.104-0.176,0.156-0.264l-3.186-1.839c-0.052,0.089-0.105,0.176-0.156,0.265    L282.952,83.783z"/>
		<path fill="#5297D1" d="M283.774,82.416c0.054-0.087,0.108-0.173,0.162-0.26l-3.12-1.949c-0.054,0.086-0.108,0.174-0.162,0.261    L283.774,82.416z"/>
		<path fill="#5297D1" d="M283.359,83.096c0.052-0.086,0.103-0.176,0.156-0.264l-3.153-1.894c-0.054,0.088-0.104,0.177-0.156,0.264    L283.359,83.096z"/>
		<path fill="#5297D1" d="M282.563,84.48c0.049-0.09,0.099-0.179,0.15-0.267l-3.218-1.784c-0.05,0.089-0.1,0.179-0.15,0.269    L282.563,84.48z"/>
		<path fill="#5297D1" d="M281.815,85.889c0.046-0.091,0.092-0.181,0.139-0.272l-3.279-1.671c-0.046,0.092-0.092,0.183-0.139,0.275    L281.815,85.889z"/>
		<path fill="#5297D1" d="M284.64,81.075c0.057-0.085,0.114-0.169,0.171-0.254l-3.049-2.057c-0.058,0.084-0.114,0.169-0.172,0.254    L284.64,81.075z"/>
		<path fill="#5297D1" d="M284.201,81.741c0.055-0.085,0.113-0.171,0.169-0.256l-3.085-2.003c-0.056,0.085-0.113,0.171-0.169,0.255    L284.201,81.741z"/>
		<path fill="#5297D1" d="M285.092,80.417c0.059-0.084,0.116-0.169,0.175-0.251l-3.013-2.11c-0.06,0.083-0.117,0.168-0.175,0.251    L285.092,80.417z"/>
		<path fill="#5297D1" d="M285.554,79.767c0.061-0.082,0.12-0.165,0.181-0.248l-2.976-2.161c-0.061,0.083-0.121,0.165-0.18,0.249    L285.554,79.767z"/>
		<path fill="#5297D1" d="M286.025,79.123c0.062-0.082,0.125-0.162,0.187-0.243l-2.938-2.214c-0.062,0.082-0.126,0.162-0.187,0.244    L286.025,79.123z"/>
		<path fill="#5297D1" d="M289.639,74.871c0.07-0.074,0.144-0.147,0.215-0.219l-2.647-2.556c-0.071,0.074-0.143,0.147-0.213,0.22    L289.639,74.871z"/>
		<path fill="#5297D1" d="M364.341,87.772c0.041,0.093,0.082,0.188,0.123,0.28l3.362-1.495c-0.042-0.096-0.082-0.189-0.124-0.282    L364.341,87.772z"/>
		<path fill="#5297D1" d="M364.969,89.241c0.04,0.094,0.078,0.188,0.116,0.282l3.412-1.378c-0.037-0.096-0.078-0.189-0.116-0.283    L364.969,89.241z"/>
		<path fill="#5297D1" d="M364.662,88.503c0.041,0.094,0.082,0.188,0.121,0.281l3.388-1.438c-0.041-0.095-0.082-0.187-0.123-0.282    L364.662,88.503z"/>
		<path fill="#5297D1" d="M363.657,86.329c0.044,0.092,0.093,0.183,0.137,0.275l3.306-1.613c-0.043-0.092-0.09-0.182-0.136-0.274    L363.657,86.329z"/>
		<path fill="#5297D1" d="M364.004,87.049c0.043,0.092,0.086,0.185,0.129,0.277l3.334-1.557c-0.042-0.091-0.085-0.185-0.13-0.277    L364.004,87.049z"/>
		<path fill="#5297D1" d="M363.299,85.616c0.047,0.092,0.094,0.182,0.139,0.272l3.279-1.668c-0.046-0.092-0.093-0.183-0.139-0.275    L363.299,85.616z"/>
		<path fill="#5297D1" d="M366.074,92.233c0.032,0.097,0.063,0.195,0.096,0.293l3.499-1.138c-0.031-0.097-0.063-0.196-0.095-0.291    L366.074,92.233z"/>
		<path fill="#5297D1" d="M365.266,89.981c0.037,0.095,0.073,0.19,0.11,0.287l3.434-1.32c-0.036-0.095-0.071-0.19-0.109-0.287    L365.266,89.981z"/>
		<path fill="#5297D1" d="M366.319,92.994c0.03,0.097,0.059,0.195,0.088,0.293l3.52-1.075c-0.03-0.098-0.059-0.197-0.088-0.295    L366.319,92.994z"/>
		<path fill="#5297D1" d="M365.818,91.478c0.033,0.097,0.069,0.191,0.102,0.29l3.48-1.198c-0.033-0.097-0.069-0.192-0.103-0.29    L365.818,91.478z"/>
		<path fill="#5297D1" d="M365.549,90.728c0.036,0.096,0.069,0.191,0.104,0.287l3.459-1.258c-0.035-0.097-0.069-0.191-0.104-0.288    L365.549,90.728z"/>
		<path fill="#5297D1" d="M362.926,84.911c0.048,0.09,0.097,0.181,0.144,0.271l3.248-1.727c-0.047-0.09-0.095-0.181-0.143-0.271    L362.926,84.911z"/>
		<path fill="#5297D1" d="M359.986,80.166c0.059,0.082,0.116,0.167,0.176,0.251l3.013-2.11c-0.059-0.083-0.116-0.168-0.176-0.251    L359.986,80.166z"/>
		<path fill="#5297D1" d="M360.442,80.821c0.057,0.084,0.115,0.168,0.172,0.254l3.049-2.057c-0.056-0.084-0.114-0.17-0.172-0.254    L360.442,80.821z"/>
		<path fill="#5297D1" d="M360.884,81.484c0.056,0.087,0.114,0.171,0.168,0.256l3.086-2.003c-0.056-0.085-0.114-0.171-0.17-0.256    L360.884,81.484z"/>
		<path fill="#5297D1" d="M359.519,79.519c0.061,0.083,0.121,0.166,0.181,0.248l2.976-2.16c-0.061-0.084-0.12-0.166-0.181-0.249    L359.519,79.519z"/>
		<path fill="#5297D1" d="M359.042,78.88c0.062,0.081,0.125,0.162,0.188,0.243l2.936-2.213c-0.061-0.082-0.124-0.162-0.186-0.244    L359.042,78.88z"/>
		<path fill="#5297D1" d="M361.316,82.155c0.056,0.087,0.109,0.173,0.163,0.26l3.12-1.949c-0.053-0.088-0.108-0.174-0.163-0.261    L361.316,82.155z"/>
		<path fill="#5297D1" d="M362.145,83.52c0.052,0.088,0.105,0.174,0.156,0.264l3.185-1.839c-0.049-0.089-0.104-0.176-0.154-0.264    L362.145,83.52z"/>
		<path fill="#5297D1" d="M366.548,93.759c0.027,0.098,0.057,0.195,0.086,0.294l3.538-1.015c-0.028-0.098-0.058-0.195-0.086-0.294    L366.548,93.759z"/>
		<path fill="#5297D1" d="M362.541,84.211c0.05,0.09,0.101,0.178,0.15,0.268l3.217-1.783c-0.049-0.09-0.099-0.18-0.15-0.269    L362.541,84.211z"/>
		<path fill="#5297D1" d="M361.739,82.831c0.054,0.089,0.103,0.179,0.156,0.265l3.153-1.894c-0.052-0.089-0.104-0.177-0.156-0.265    L361.739,82.831z"/>
		<path fill="#5297D1" d="M368.093,101.579c0.011,0.102,0.024,0.203,0.034,0.305l3.66-0.385c-0.011-0.102-0.023-0.203-0.035-0.305    L368.093,101.579z"/>
		<path fill="#5297D1" d="M355.056,74.299l2.602-2.601c-0.073-0.073-0.145-0.145-0.218-0.217l-2.601,2.601    C354.913,74.154,354.984,74.227,355.056,74.299z"/>
		<path fill="#5297D1" d="M372.027,105.496l-3.679,0.064c0.001,0.103,0.001,0.205,0.002,0.307l3.681-0.064    C372.028,105.701,372.028,105.599,372.027,105.496z"/>
		<path fill="#5297D1" d="M368.323,104.764c0.003,0.102,0.008,0.204,0.012,0.307l3.676-0.129c-0.003-0.103-0.008-0.204-0.012-0.307    L368.323,104.764z"/>
		<path fill="#5297D1" d="M368.287,103.966c0.005,0.102,0.012,0.205,0.016,0.306l3.675-0.191c-0.005-0.103-0.011-0.204-0.016-0.307    L368.287,103.966z"/>
		<path fill="#5297D1" d="M368.236,103.169c0.007,0.103,0.014,0.204,0.02,0.307l3.671-0.257c-0.007-0.102-0.014-0.204-0.021-0.306    L368.236,103.169z"/>
		<path fill="#5297D1" d="M290.197,74.299c0.071-0.072,0.145-0.145,0.217-0.217l-2.602-2.601c-0.072,0.072-0.145,0.144-0.216,0.217    L290.197,74.299z"/>
		<path fill="#5297D1" d="M355.056,138.725c-0.072,0.072-0.144,0.145-0.217,0.217l2.601,2.601c0.073-0.07,0.145-0.144,0.218-0.217    L355.056,138.725z"/>
		<path fill="#5297D1" d="M368.359,106.511c0,0.053-0.002,0.104-0.002,0.154h3.68c0-0.051,0.002-0.102,0.002-0.154    c0-0.051-0.002-0.102-0.002-0.152h-3.68C368.356,106.409,368.359,106.46,368.359,106.511z"/>
		<path fill="#5297D1" d="M366.762,94.527c0.027,0.098,0.055,0.197,0.081,0.296l3.555-0.953c-0.027-0.098-0.055-0.196-0.081-0.294    L366.762,94.527z"/>
		<path fill="#5297D1" d="M276.894,106.511c0-0.051,0.001-0.102,0.001-0.152h-3.679c-0.001,0.051-0.002,0.102-0.002,0.152    c0,0.053,0.001,0.104,0.002,0.154h3.679C276.896,106.614,276.894,106.563,276.894,106.511z"/>
		<path fill="#5297D1" d="M290.197,138.725l-2.601,2.601c0.071,0.073,0.144,0.146,0.216,0.217l2.602-2.601    C290.341,138.869,290.269,138.798,290.197,138.725z"/>
		<path fill="#5297D1" d="M367.331,96.854c0.021,0.101,0.043,0.199,0.064,0.3l3.6-0.766c-0.021-0.1-0.043-0.2-0.066-0.299    L367.331,96.854z"/>
		<path fill="#5297D1" d="M367.491,97.636c0.02,0.101,0.04,0.2,0.058,0.301l3.612-0.702c-0.019-0.1-0.039-0.201-0.059-0.301    L367.491,97.636z"/>
		<path fill="#5297D1" d="M366.966,95.3c0.025,0.098,0.048,0.198,0.073,0.297l3.57-0.89c-0.025-0.099-0.048-0.199-0.073-0.298    L366.966,95.3z"/>
		<path fill="#5297D1" d="M367.156,96.075c0.023,0.099,0.046,0.199,0.069,0.298l3.586-0.828c-0.022-0.099-0.046-0.2-0.069-0.3    L367.156,96.075z"/>
		<path fill="#5297D1" d="M367.642,98.419c0.018,0.1,0.034,0.202,0.05,0.303l3.625-0.639c-0.018-0.101-0.032-0.203-0.051-0.304    L367.642,98.419z"/>
		<path fill="#5297D1" d="M368.001,100.786c0.012,0.102,0.023,0.203,0.034,0.306l3.653-0.449c-0.014-0.101-0.022-0.203-0.036-0.306    L368.001,100.786z"/>
		<path fill="#5297D1" d="M368.169,102.374c0.01,0.102,0.019,0.203,0.027,0.305l3.665-0.319c-0.008-0.102-0.017-0.204-0.026-0.306    L368.169,102.374z"/>
		<path fill="#5297D1" d="M358.554,78.248c0.064,0.081,0.125,0.162,0.188,0.243l2.898-2.265c-0.062-0.081-0.124-0.163-0.187-0.242    L358.554,78.248z"/>
		<path fill="#5297D1" d="M367.892,99.995c0.015,0.102,0.03,0.203,0.043,0.305l3.643-0.513c-0.014-0.101-0.027-0.203-0.042-0.303    L367.892,99.995z"/>
		<path fill="#5297D1" d="M367.773,99.207c0.016,0.102,0.035,0.201,0.049,0.303l3.636-0.575c-0.016-0.102-0.035-0.202-0.051-0.304    L367.773,99.207z"/>
		<path fill="#5297D1" d="M328.84,61.203c0.102,0.014,0.202,0.028,0.303,0.042l0.513-3.644c-0.101-0.014-0.203-0.029-0.305-0.042    L328.84,61.203z"/>
		<path fill="#5297D1" d="M338.124,63.485c0.097,0.035,0.193,0.068,0.289,0.103l1.259-3.458c-0.097-0.035-0.192-0.068-0.289-0.103    L338.124,63.485z"/>
		<path fill="#5297D1" d="M338.871,63.764c0.097,0.037,0.192,0.072,0.287,0.11l1.318-3.436c-0.095-0.037-0.19-0.072-0.287-0.109    L338.871,63.764z"/>
		<path fill="#5297D1" d="M339.615,64.053c0.095,0.039,0.189,0.078,0.285,0.116l1.378-3.411c-0.094-0.039-0.188-0.079-0.284-0.117    L339.615,64.053z"/>
		<path fill="#5297D1" d="M337.371,63.219c0.098,0.034,0.193,0.069,0.29,0.102l1.198-3.478c-0.097-0.035-0.193-0.069-0.29-0.103    L337.371,63.219z"/>
		<path fill="#5297D1" d="M336.613,62.97c0.097,0.032,0.194,0.063,0.291,0.095l1.138-3.5c-0.097-0.032-0.194-0.063-0.291-0.095    L336.613,62.97z"/>
		<path fill="#5297D1" d="M341.085,64.675c0.094,0.042,0.188,0.082,0.281,0.124l1.497-3.361c-0.093-0.042-0.187-0.081-0.28-0.123    L341.085,64.675z"/>
		<path fill="#5297D1" d="M343.25,65.701c0.09,0.047,0.182,0.093,0.272,0.14l1.67-3.279c-0.091-0.047-0.182-0.093-0.272-0.139    L343.25,65.701z"/>
		<path fill="#5297D1" d="M342.535,65.346c0.092,0.044,0.182,0.091,0.273,0.137l1.612-3.308c-0.092-0.045-0.181-0.092-0.273-0.137    L342.535,65.346z"/>
		<path fill="#5297D1" d="M340.354,64.355c0.094,0.041,0.188,0.082,0.281,0.122l1.438-3.387c-0.094-0.041-0.187-0.083-0.281-0.122    L340.354,64.355z"/>
		<path fill="#5297D1" d="M341.812,65.005c0.093,0.042,0.185,0.085,0.277,0.129l1.556-3.334c-0.093-0.043-0.186-0.087-0.278-0.129    L341.812,65.005z"/>
		<path fill="#5297D1" d="M335.852,62.731c0.097,0.029,0.196,0.058,0.292,0.088l1.077-3.519c-0.098-0.031-0.195-0.058-0.295-0.087    L335.852,62.731z"/>
		<path fill="#5297D1" d="M329.631,61.315c0.1,0.016,0.201,0.035,0.302,0.051l0.575-3.634c-0.101-0.017-0.201-0.035-0.302-0.051    L329.631,61.315z"/>
		<path fill="#5297D1" d="M331.202,61.59c0.102,0.019,0.202,0.039,0.302,0.058l0.702-3.612c-0.099-0.021-0.199-0.039-0.301-0.058    L331.202,61.59z"/>
		<path fill="#5297D1" d="M335.086,62.506c0.098,0.027,0.197,0.058,0.294,0.087l1.014-3.539c-0.098-0.028-0.195-0.06-0.293-0.086    L335.086,62.506z"/>
		<path fill="#5297D1" d="M343.958,66.07c0.09,0.048,0.181,0.094,0.271,0.142l1.727-3.247c-0.091-0.05-0.181-0.097-0.271-0.144    L343.958,66.07z"/>
		<path fill="#5297D1" d="M327.255,61.013c0.102,0.01,0.203,0.022,0.305,0.034l0.384-3.66c-0.101-0.011-0.203-0.023-0.305-0.034    L327.255,61.013z"/>
		<path fill="#5297D1" d="M328.047,61.103c0.102,0.012,0.205,0.021,0.305,0.035l0.449-3.652c-0.102-0.013-0.204-0.022-0.305-0.035    L328.047,61.103z"/>
		<path fill="#5297D1" d="M330.417,61.446c0.101,0.018,0.203,0.033,0.302,0.05l0.64-3.624c-0.101-0.018-0.202-0.033-0.302-0.05    L330.417,61.446z"/>
		<path fill="#5297D1" d="M334.316,62.295c0.098,0.026,0.197,0.053,0.296,0.081l0.952-3.555c-0.099-0.027-0.197-0.054-0.296-0.08    L334.316,62.295z"/>
		<path fill="#5297D1" d="M333.542,62.099c0.099,0.024,0.198,0.048,0.297,0.073l0.89-3.57c-0.098-0.025-0.198-0.048-0.297-0.073    L333.542,62.099z"/>
		<path fill="#5297D1" d="M331.985,61.743c0.101,0.021,0.201,0.043,0.3,0.066l0.765-3.599c-0.101-0.022-0.2-0.044-0.3-0.066    L331.985,61.743z"/>
		<path fill="#5297D1" d="M332.766,61.914c0.099,0.022,0.199,0.045,0.298,0.069l0.828-3.585c-0.1-0.024-0.201-0.046-0.299-0.068    L332.766,61.914z"/>
		<path fill="#5297D1" d="M355.4,74.651c0.071,0.072,0.143,0.145,0.213,0.219l2.646-2.555c-0.07-0.073-0.144-0.146-0.214-0.22    L355.4,74.651z"/>
		<path fill="#5297D1" d="M354.269,73.525c0.073,0.07,0.146,0.144,0.219,0.214l2.555-2.645c-0.073-0.072-0.146-0.145-0.219-0.214    L354.269,73.525z"/>
		<path fill="#5297D1" d="M353.687,72.978c0.075,0.069,0.149,0.14,0.224,0.209l2.509-2.69c-0.074-0.069-0.15-0.139-0.224-0.208    L353.687,72.978z"/>
		<path fill="#5297D1" d="M352.5,71.912c0.078,0.068,0.153,0.136,0.23,0.203l2.414-2.775c-0.078-0.068-0.152-0.136-0.23-0.204    L352.5,71.912z"/>
		<path fill="#5297D1" d="M353.098,72.442c0.077,0.068,0.154,0.135,0.23,0.203l2.461-2.733c-0.075-0.068-0.153-0.135-0.229-0.205    L353.098,72.442z"/>
		<path fill="#5297D1" d="M344.659,66.447c0.089,0.051,0.178,0.1,0.266,0.151l1.785-3.218c-0.09-0.05-0.178-0.099-0.269-0.15    L344.659,66.447z"/>
		<path fill="#5297D1" d="M351.891,71.397c0.078,0.067,0.156,0.131,0.234,0.198l2.364-2.817c-0.078-0.067-0.156-0.133-0.233-0.198    L351.891,71.397z"/>
		<path fill="#5297D1" d="M357.024,76.409c0.067,0.076,0.135,0.152,0.203,0.229l2.774-2.413c-0.065-0.078-0.135-0.152-0.202-0.23    L357.024,76.409z"/>
		<path fill="#5297D1" d="M355.951,75.227c0.069,0.075,0.14,0.15,0.208,0.224l2.691-2.508c-0.069-0.074-0.14-0.15-0.209-0.224    L355.951,75.227z"/>
		<path fill="#5297D1" d="M357.542,77.014c0.067,0.078,0.133,0.156,0.2,0.234l2.817-2.364c-0.066-0.078-0.132-0.156-0.2-0.234    L357.542,77.014z"/>
		<path fill="#5297D1" d="M356.495,75.812c0.068,0.075,0.135,0.152,0.203,0.229l2.733-2.461c-0.068-0.076-0.135-0.153-0.203-0.229    L356.495,75.812z"/>
		<path fill="#5297D1" d="M358.054,77.626c0.065,0.081,0.128,0.16,0.193,0.239l2.858-2.315c-0.064-0.079-0.127-0.16-0.191-0.238    L358.054,77.626z"/>
		<path fill="#5297D1" d="M346.723,67.659c0.087,0.054,0.175,0.109,0.261,0.163l1.948-3.119c-0.086-0.055-0.173-0.109-0.26-0.164    L346.723,67.659z"/>
		<path fill="#5297D1" d="M347.399,68.086c0.085,0.056,0.169,0.114,0.255,0.168l2.004-3.084c-0.085-0.056-0.171-0.113-0.256-0.168    L347.399,68.086z"/>
		<path fill="#5297D1" d="M345.355,66.837c0.09,0.052,0.177,0.105,0.264,0.156l1.839-3.187c-0.088-0.05-0.176-0.104-0.262-0.156    L345.355,66.837z"/>
		<path fill="#5297D1" d="M348.065,68.525c0.084,0.057,0.168,0.114,0.253,0.172l2.056-3.05c-0.084-0.057-0.168-0.114-0.254-0.171    L348.065,68.525z"/>
		<path fill="#5297D1" d="M346.042,67.244c0.089,0.052,0.178,0.103,0.265,0.156l1.894-3.153c-0.086-0.054-0.177-0.104-0.264-0.156    L346.042,67.244z"/>
		<path fill="#5297D1" d="M350.016,69.911c0.083,0.062,0.162,0.125,0.244,0.187l2.213-2.938c-0.081-0.062-0.161-0.125-0.243-0.187    L350.016,69.911z"/>
		<path fill="#5297D1" d="M350.649,70.396c0.081,0.063,0.162,0.125,0.243,0.188l2.265-2.899c-0.082-0.063-0.164-0.125-0.243-0.187    L350.649,70.396z"/>
		<path fill="#5297D1" d="M351.274,70.892c0.079,0.064,0.16,0.127,0.238,0.193l2.316-2.859c-0.081-0.064-0.16-0.127-0.239-0.192    L351.274,70.892z"/>
		<path fill="#5297D1" d="M349.372,69.439c0.083,0.061,0.166,0.122,0.249,0.181l2.161-2.976c-0.083-0.061-0.166-0.122-0.248-0.181    L349.372,69.439z"/>
		<path fill="#5297D1" d="M348.722,68.978c0.084,0.058,0.168,0.116,0.251,0.174l2.109-3.012c-0.083-0.059-0.167-0.118-0.251-0.176    L348.722,68.978z"/>
		<path fill="#5297D1" d="M353.911,139.836c-0.075,0.071-0.149,0.141-0.224,0.208l2.509,2.69c0.074-0.068,0.15-0.139,0.224-0.21    L353.911,139.836z"/>
		<path fill="#5297D1" d="M344.925,146.427c-0.089,0.049-0.177,0.1-0.266,0.149l1.783,3.218c0.09-0.049,0.18-0.1,0.269-0.15    L344.925,146.427z"/>
		<path fill="#5297D1" d="M343.522,147.186c-0.091,0.046-0.182,0.092-0.272,0.139l1.67,3.277c0.09-0.044,0.182-0.093,0.272-0.139    L343.522,147.186z"/>
		<path fill="#5297D1" d="M344.229,146.813c-0.09,0.049-0.181,0.096-0.271,0.144l1.727,3.248c0.091-0.048,0.181-0.097,0.271-0.144    L344.229,146.813z"/>
		<path fill="#5297D1" d="M345.619,146.031c-0.088,0.051-0.175,0.104-0.264,0.154l1.841,3.186c0.088-0.049,0.176-0.104,0.262-0.155    L345.619,146.031z"/>
		<path fill="#5297D1" d="M346.307,145.624c-0.088,0.054-0.177,0.104-0.265,0.156l1.895,3.153c0.088-0.054,0.177-0.104,0.264-0.156    L346.307,145.624z"/>
		<path fill="#5297D1" d="M341.367,148.227c-0.093,0.042-0.187,0.08-0.281,0.122l1.498,3.363c0.093-0.042,0.187-0.081,0.28-0.125    L341.367,148.227z"/>
		<path fill="#5297D1" d="M340.635,148.547c-0.093,0.041-0.187,0.083-0.281,0.123l1.438,3.387c0.094-0.04,0.187-0.082,0.281-0.123    L340.635,148.547z"/>
		<path fill="#5297D1" d="M342.809,147.543c-0.091,0.045-0.182,0.092-0.273,0.136l1.612,3.307c0.093-0.045,0.182-0.09,0.273-0.136    L342.809,147.543z"/>
		<path fill="#5297D1" d="M339.9,148.854c-0.095,0.04-0.189,0.078-0.285,0.118l1.379,3.41c0.095-0.038,0.189-0.077,0.284-0.116    L339.9,148.854z"/>
		<path fill="#5297D1" d="M342.089,147.89c-0.093,0.043-0.184,0.087-0.277,0.13l1.555,3.335c0.093-0.043,0.186-0.087,0.278-0.13    L342.089,147.89z"/>
		<path fill="#5297D1" d="M346.984,145.201c-0.086,0.056-0.174,0.108-0.261,0.163l1.95,3.119c0.087-0.054,0.173-0.107,0.26-0.162    L346.984,145.201z"/>
		<path fill="#5297D1" d="M339.158,149.152c-0.095,0.037-0.19,0.071-0.287,0.108l1.318,3.436c0.097-0.036,0.192-0.072,0.287-0.109    L339.158,149.152z"/>
		<path fill="#5297D1" d="M351.512,141.94c-0.078,0.064-0.159,0.128-0.238,0.192l2.315,2.857c0.079-0.063,0.158-0.127,0.239-0.192    L351.512,141.94z"/>
		<path fill="#5297D1" d="M350.892,142.44c-0.081,0.063-0.162,0.124-0.243,0.188l2.265,2.897c0.079-0.063,0.161-0.124,0.243-0.187    L350.892,142.44z"/>
		<path fill="#5297D1" d="M352.125,141.43c-0.077,0.065-0.154,0.132-0.234,0.198l2.365,2.816c0.078-0.065,0.156-0.132,0.233-0.197    L352.125,141.43z"/>
		<path fill="#5297D1" d="M352.73,140.908c-0.077,0.068-0.152,0.136-0.229,0.204l2.413,2.775c0.076-0.068,0.152-0.136,0.229-0.203    L352.73,140.908z"/>
		<path fill="#5297D1" d="M353.327,140.38c-0.075,0.068-0.152,0.135-0.229,0.203l2.461,2.734c0.077-0.069,0.153-0.135,0.229-0.204    L353.327,140.38z"/>
		<path fill="#5297D1" d="M348.973,143.872c-0.084,0.059-0.168,0.116-0.252,0.176l2.11,3.013c0.083-0.059,0.168-0.116,0.251-0.175    L348.973,143.872z"/>
		<path fill="#5297D1" d="M348.318,144.327c-0.085,0.057-0.169,0.116-0.253,0.173l2.056,3.049c0.085-0.057,0.17-0.114,0.254-0.172    L348.318,144.327z"/>
		<path fill="#5297D1" d="M350.259,142.927c-0.082,0.063-0.161,0.125-0.244,0.188l2.214,2.938c0.082-0.063,0.162-0.125,0.243-0.188    L350.259,142.927z"/>
		<path fill="#5297D1" d="M347.654,144.769c-0.085,0.058-0.171,0.114-0.256,0.17l2.003,3.085c0.086-0.056,0.17-0.112,0.257-0.17    L347.654,144.769z"/>
		<path fill="#5297D1" d="M349.621,143.403c-0.083,0.061-0.166,0.122-0.249,0.182l2.163,2.976c0.082-0.06,0.165-0.12,0.248-0.181    L349.621,143.403z"/>
		<path fill="#5297D1" d="M325.173,152.173c-0.102,0.006-0.204,0.012-0.307,0.017l0.194,3.675c0.102-0.006,0.203-0.012,0.305-0.017    L325.173,152.173z"/>
		<path fill="#5297D1" d="M326.765,152.057c-0.102,0.008-0.204,0.019-0.306,0.026l0.32,3.664c0.102-0.007,0.205-0.017,0.306-0.025    L326.765,152.057z"/>
		<path fill="#5297D1" d="M329.933,151.659c-0.101,0.016-0.202,0.034-0.302,0.049l0.574,3.636c0.102-0.016,0.202-0.034,0.302-0.051    L329.933,151.659z"/>
		<path fill="#5297D1" d="M328.352,151.888c-0.1,0.013-0.203,0.021-0.305,0.035l0.449,3.651c0.101-0.013,0.203-0.022,0.305-0.035    L328.352,151.888z"/>
		<path fill="#5297D1" d="M329.143,151.777c-0.102,0.016-0.202,0.03-0.303,0.042l0.511,3.646c0.102-0.014,0.204-0.028,0.305-0.042    L329.143,151.777z"/>
		<path fill="#5297D1" d="M325.97,152.122c-0.102,0.009-0.205,0.014-0.307,0.02l0.257,3.672c0.102-0.008,0.204-0.014,0.306-0.021    L325.97,152.122z"/>
		<path fill="#5297D1" d="M327.56,151.979c-0.102,0.011-0.203,0.023-0.305,0.033l0.384,3.66c0.102-0.01,0.204-0.022,0.305-0.034    L327.56,151.979z"/>
		<path fill="#5297D1" d="M322.779,155.922v-3.679c-0.051,0-0.102,0.002-0.152,0.002s-0.103-0.002-0.153-0.002v3.679    c0.052,0.001,0.103,0.004,0.153,0.004S322.729,155.923,322.779,155.922z"/>
		<path fill="#5297D1" d="M323.578,152.232c-0.102,0.003-0.204,0.003-0.306,0.005l0.064,3.679c0.102-0.001,0.204-0.003,0.307-0.004    L323.578,152.232z"/>
		<path fill="#5297D1" d="M338.412,149.436c-0.095,0.035-0.192,0.068-0.289,0.104l1.259,3.457c0.097-0.035,0.192-0.068,0.289-0.104    L338.412,149.436z"/>
		<path fill="#5297D1" d="M354.488,139.285c-0.073,0.071-0.146,0.144-0.219,0.215l2.555,2.645c0.073-0.07,0.146-0.144,0.219-0.214    L354.488,139.285z"/>
		<path fill="#5297D1" d="M324.376,152.208c-0.103,0.004-0.204,0.009-0.307,0.012l0.129,3.678c0.102-0.004,0.204-0.009,0.306-0.013    L324.376,152.208z"/>
		<path fill="#5297D1" d="M336.144,150.204c-0.096,0.031-0.195,0.059-0.292,0.088l1.074,3.52c0.1-0.029,0.197-0.059,0.295-0.088    L336.144,150.204z"/>
		<path fill="#5297D1" d="M335.38,150.434c-0.098,0.028-0.197,0.058-0.294,0.087l1.015,3.537c0.098-0.028,0.195-0.058,0.293-0.086    L335.38,150.434z"/>
		<path fill="#5297D1" d="M330.719,151.527c-0.099,0.018-0.202,0.034-0.302,0.05l0.64,3.624c0.1-0.017,0.202-0.032,0.302-0.051    L330.719,151.527z"/>
		<path fill="#5297D1" d="M334.612,150.648c-0.099,0.025-0.198,0.053-0.296,0.079l0.952,3.556c0.099-0.026,0.197-0.055,0.296-0.081    L334.612,150.648z"/>
		<path fill="#5297D1" d="M336.904,149.959c-0.095,0.032-0.194,0.063-0.291,0.096l1.138,3.499c0.097-0.03,0.194-0.063,0.292-0.095    L336.904,149.959z"/>
		<path fill="#5297D1" d="M337.661,149.703c-0.097,0.034-0.192,0.069-0.29,0.102l1.198,3.48c0.096-0.033,0.193-0.069,0.29-0.103    L337.661,149.703z"/>
		<path fill="#5297D1" d="M333.839,150.852c-0.099,0.026-0.198,0.049-0.297,0.073l0.89,3.571c0.099-0.024,0.199-0.048,0.297-0.073    L333.839,150.852z"/>
		<path fill="#5297D1" d="M332.286,151.216c-0.1,0.021-0.2,0.043-0.299,0.065l0.765,3.599c0.1-0.02,0.199-0.043,0.298-0.064    L332.286,151.216z"/>
		<path fill="#5297D1" d="M331.503,151.377c-0.1,0.02-0.2,0.039-0.302,0.058l0.703,3.613c0.099-0.02,0.2-0.038,0.301-0.058    L331.503,151.377z"/>
		<path fill="#5297D1" d="M333.064,151.042c-0.099,0.022-0.199,0.045-0.298,0.068l0.827,3.586c0.099-0.022,0.199-0.044,0.299-0.067    L333.064,151.042z"/>
		<path fill="#5297D1" d="M367.225,116.65c-0.023,0.101-0.046,0.2-0.069,0.3l3.586,0.828c0.023-0.101,0.046-0.199,0.069-0.299    L367.225,116.65z"/>
		<path fill="#5297D1" d="M366.843,118.201c-0.026,0.1-0.055,0.198-0.081,0.296l3.555,0.952c0.026-0.098,0.053-0.197,0.081-0.296    L366.843,118.201z"/>
		<path fill="#5297D1" d="M367.04,117.428c-0.025,0.099-0.048,0.199-0.073,0.297l3.57,0.892c0.024-0.098,0.048-0.199,0.073-0.299    L367.04,117.428z"/>
		<path fill="#5297D1" d="M321.982,152.237c-0.103-0.002-0.205-0.002-0.307-0.005l-0.064,3.68c0.102,0.001,0.204,0.003,0.307,0.004    L321.982,152.237z"/>
		<path fill="#5297D1" d="M367.549,115.088c-0.019,0.101-0.038,0.202-0.058,0.301l3.612,0.702c0.02-0.099,0.04-0.199,0.059-0.3    L367.549,115.088z"/>
		<path fill="#5297D1" d="M367.395,115.87c-0.021,0.101-0.043,0.201-0.066,0.3l3.598,0.765c0.022-0.099,0.045-0.199,0.067-0.299    L367.395,115.87z"/>
		<path fill="#5297D1" d="M366.635,118.972c-0.03,0.099-0.06,0.196-0.086,0.294l3.538,1.014c0.028-0.098,0.058-0.195,0.086-0.293    L366.635,118.972z"/>
		<path fill="#5297D1" d="M365.654,122.009c-0.035,0.097-0.069,0.193-0.104,0.29l3.458,1.258c0.036-0.096,0.069-0.192,0.104-0.289    L365.654,122.009z"/>
		<path fill="#5297D1" d="M365.376,122.758c-0.037,0.096-0.073,0.19-0.11,0.287l3.435,1.318c0.037-0.097,0.073-0.192,0.109-0.287    L365.376,122.758z"/>
		<path fill="#5297D1" d="M365.919,121.258c-0.032,0.097-0.068,0.191-0.102,0.289l3.479,1.197c0.033-0.097,0.069-0.191,0.103-0.288    L365.919,121.258z"/>
		<path fill="#5297D1" d="M365.085,123.501c-0.039,0.095-0.077,0.188-0.116,0.284l3.412,1.379c0.038-0.095,0.078-0.189,0.116-0.284    L365.085,123.501z"/>
		<path fill="#5297D1" d="M366.407,119.736c-0.029,0.098-0.058,0.196-0.088,0.295l3.52,1.075c0.029-0.098,0.058-0.195,0.088-0.293    L366.407,119.736z"/>
		<path fill="#5297D1" d="M366.169,120.499c-0.032,0.097-0.063,0.192-0.096,0.291l3.5,1.137c0.032-0.096,0.064-0.194,0.095-0.29    L366.169,120.499z"/>
		<path fill="#5297D1" d="M368.303,108.753c-0.005,0.102-0.011,0.204-0.016,0.306l3.675,0.193c0.006-0.102,0.011-0.204,0.016-0.308    L368.303,108.753z"/>
		<path fill="#5297D1" d="M368.256,109.549c-0.007,0.103-0.014,0.205-0.02,0.307l3.67,0.257c0.009-0.101,0.014-0.204,0.02-0.306    L368.256,109.549z"/>
		<path fill="#5297D1" d="M368.197,110.345c-0.009,0.102-0.017,0.204-0.027,0.306l3.666,0.32c0.01-0.102,0.019-0.202,0.027-0.304    L368.197,110.345z"/>
		<path fill="#5297D1" d="M367.693,114.302c-0.017,0.102-0.032,0.203-0.051,0.303l3.625,0.64c0.018-0.101,0.032-0.202,0.05-0.302    L367.693,114.302z"/>
		<path fill="#5297D1" d="M368.334,107.954c-0.004,0.104-0.009,0.206-0.011,0.308l3.676,0.129c0.004-0.104,0.007-0.205,0.011-0.308    L368.334,107.954z"/>
		<path fill="#5297D1" d="M368.35,107.157c-0.001,0.102-0.001,0.204-0.002,0.307l3.679,0.063c0.001-0.102,0.001-0.204,0.004-0.306    L368.35,107.157z"/>
		<path fill="#5297D1" d="M367.936,112.726c-0.013,0.101-0.028,0.202-0.042,0.304l3.644,0.512c0.014-0.101,0.029-0.202,0.042-0.304    L367.936,112.726z"/>
		<path fill="#5297D1" d="M367.823,113.515c-0.015,0.102-0.033,0.203-0.049,0.304l3.634,0.575c0.016-0.1,0.035-0.201,0.05-0.303    L367.823,113.515z"/>
		<path fill="#5297D1" d="M355.613,138.155c-0.07,0.072-0.142,0.145-0.213,0.219l2.646,2.554c0.07-0.073,0.144-0.145,0.214-0.22    L355.613,138.155z"/>
		<path fill="#5297D1" d="M368.126,111.14c-0.01,0.103-0.022,0.204-0.034,0.306l3.659,0.385c0.011-0.103,0.023-0.204,0.035-0.306    L368.126,111.14z"/>
		<path fill="#5297D1" d="M368.036,111.933c-0.011,0.102-0.022,0.204-0.034,0.305l3.651,0.449c0.014-0.102,0.022-0.203,0.036-0.306    L368.036,111.933z"/>
		<path fill="#5297D1" d="M359.229,133.902c-0.062,0.081-0.125,0.162-0.188,0.243l2.938,2.214c0.062-0.082,0.125-0.162,0.186-0.244    L359.229,133.902z"/>
		<path fill="#5297D1" d="M358.744,134.536c-0.063,0.079-0.125,0.16-0.188,0.241l2.898,2.264c0.064-0.079,0.125-0.161,0.188-0.242    L358.744,134.536z"/>
		<path fill="#5297D1" d="M358.247,135.16c-0.064,0.079-0.127,0.159-0.193,0.237l2.858,2.314c0.066-0.079,0.129-0.158,0.192-0.237    L358.247,135.16z"/>
		<path fill="#5297D1" d="M360.162,132.607c-0.06,0.084-0.117,0.168-0.176,0.252l3.013,2.109c0.06-0.083,0.117-0.168,0.176-0.252    L360.162,132.607z"/>
		<path fill="#5297D1" d="M359.7,133.259c-0.061,0.082-0.121,0.164-0.181,0.247l2.976,2.161c0.061-0.083,0.12-0.166,0.179-0.247    L359.7,133.259z"/>
		<path fill="#5297D1" d="M357.227,136.387c-0.068,0.076-0.136,0.152-0.203,0.229l2.775,2.413c0.067-0.077,0.136-0.153,0.202-0.231    L357.227,136.387z"/>
		<path fill="#5297D1" d="M364.783,124.239c-0.04,0.095-0.082,0.188-0.121,0.281l3.386,1.438c0.041-0.095,0.083-0.188,0.122-0.281    L364.783,124.239z"/>
		<path fill="#5297D1" d="M356.697,136.983c-0.068,0.076-0.135,0.153-0.203,0.229l2.733,2.461c0.068-0.075,0.135-0.153,0.203-0.229    L356.697,136.983z"/>
		<path fill="#5297D1" d="M357.742,135.777c-0.067,0.077-0.134,0.155-0.2,0.232l2.817,2.364c0.067-0.078,0.134-0.155,0.2-0.233    L357.742,135.777z"/>
		<path fill="#5297D1" d="M360.614,131.948c-0.057,0.086-0.115,0.17-0.172,0.256l3.049,2.056c0.058-0.084,0.116-0.168,0.172-0.254    L360.614,131.948z"/>
		<path fill="#5297D1" d="M356.159,137.572c-0.068,0.074-0.139,0.151-0.208,0.226l2.69,2.508c0.069-0.073,0.14-0.15,0.209-0.225    L356.159,137.572z"/>
		<path fill="#5297D1" d="M363.794,126.421c-0.046,0.091-0.093,0.182-0.137,0.273l3.307,1.612c0.044-0.091,0.093-0.182,0.136-0.274    L363.794,126.421z"/>
		<path fill="#5297D1" d="M361.052,131.284c-0.055,0.085-0.113,0.171-0.168,0.256l3.084,2.003c0.057-0.085,0.114-0.169,0.17-0.256    L361.052,131.284z"/>
		<path fill="#5297D1" d="M363.07,127.844c-0.048,0.091-0.096,0.18-0.144,0.271l3.248,1.727c0.048-0.091,0.095-0.18,0.144-0.271    L363.07,127.844z"/>
		<path fill="#5297D1" d="M364.134,125.699c-0.042,0.093-0.087,0.185-0.13,0.277l3.334,1.555c0.043-0.092,0.087-0.185,0.13-0.277    L364.134,125.699z"/>
		<path fill="#5297D1" d="M364.463,124.971c-0.041,0.095-0.08,0.188-0.123,0.282l3.361,1.496c0.042-0.094,0.082-0.188,0.124-0.28    L364.463,124.971z"/>
		<path fill="#5297D1" d="M363.438,127.134c-0.044,0.093-0.092,0.183-0.139,0.273l3.279,1.67c0.046-0.091,0.093-0.182,0.139-0.272    L363.438,127.134z"/>
		<path fill="#5297D1" d="M361.895,129.929c-0.053,0.087-0.103,0.176-0.156,0.263l3.153,1.895c0.052-0.087,0.104-0.176,0.156-0.264    L361.895,129.929z"/>
		<path fill="#5297D1" d="M362.691,128.545c-0.049,0.089-0.1,0.18-0.151,0.268l3.218,1.782c0.05-0.089,0.099-0.177,0.15-0.267    L362.691,128.545z"/>
		<path fill="#5297D1" d="M361.479,130.608c-0.054,0.088-0.107,0.174-0.163,0.261l3.12,1.948c0.055-0.086,0.109-0.172,0.163-0.26    L361.479,130.608z"/>
		<path fill="#5297D1" d="M362.301,129.241c-0.051,0.09-0.104,0.178-0.156,0.264l3.185,1.839c0.052-0.088,0.106-0.175,0.156-0.263    L362.301,129.241z"/>
		<path fill="#5297D1" d="M299.211,145.78c-0.088-0.052-0.177-0.103-0.264-0.156l-1.894,3.153c0.087,0.053,0.176,0.103,0.264,0.156    L299.211,145.78z"/>
		<path fill="#5297D1" d="M283.515,130.191c-0.053-0.087-0.104-0.176-0.156-0.263l-3.152,1.894c0.052,0.088,0.102,0.177,0.156,0.264    L283.515,130.191z"/>
		<path fill="#5297D1" d="M282.327,128.114c-0.048-0.091-0.095-0.18-0.144-0.271l-3.248,1.726c0.048,0.092,0.095,0.181,0.143,0.271    L282.327,128.114z"/>
		<path fill="#5297D1" d="M283.108,129.505c-0.051-0.089-0.104-0.176-0.156-0.264l-3.186,1.84c0.051,0.088,0.104,0.176,0.156,0.263    L283.108,129.505z"/>
		<path fill="#5297D1" d="M282.713,128.813c-0.051-0.09-0.101-0.179-0.15-0.268l-3.218,1.783c0.049,0.09,0.099,0.179,0.15,0.267    L282.713,128.813z"/>
		<path fill="#5297D1" d="M281.596,126.694c-0.044-0.092-0.092-0.183-0.136-0.273l-3.307,1.611c0.044,0.093,0.091,0.184,0.137,0.274    L281.596,126.694z"/>
		<path fill="#5297D1" d="M281.955,127.407c-0.047-0.091-0.093-0.181-0.139-0.273l-3.278,1.671c0.046,0.091,0.092,0.182,0.139,0.272    L281.955,127.407z"/>
		<path fill="#5297D1" d="M279.703,122.299c-0.035-0.097-0.069-0.192-0.104-0.29l-3.457,1.259c0.034,0.097,0.068,0.193,0.103,0.289    L279.703,122.299z"/>
		<path fill="#5297D1" d="M280.284,123.785c-0.039-0.096-0.078-0.189-0.116-0.284l-3.412,1.379c0.039,0.095,0.078,0.189,0.116,0.284    L280.284,123.785z"/>
		<path fill="#5297D1" d="M280.913,125.253c-0.042-0.094-0.082-0.188-0.124-0.282l-3.361,1.498c0.042,0.093,0.082,0.187,0.124,0.28    L280.913,125.253z"/>
		<path fill="#5297D1" d="M281.249,125.977c-0.044-0.093-0.087-0.187-0.13-0.279l-3.334,1.557c0.042,0.093,0.086,0.186,0.13,0.277    L281.249,125.977z"/>
		<path fill="#5297D1" d="M280.592,124.521c-0.041-0.094-0.082-0.188-0.121-0.282l-3.388,1.438c0.04,0.094,0.083,0.187,0.123,0.281    L280.592,124.521z"/>
		<path fill="#5297D1" d="M279.987,123.045c-0.037-0.097-0.073-0.191-0.109-0.287l-3.436,1.318c0.037,0.095,0.072,0.19,0.109,0.287    L279.987,123.045z"/>
		<path fill="#5297D1" d="M288.759,137.212c-0.069-0.075-0.136-0.152-0.205-0.229l-2.732,2.461c0.068,0.075,0.135,0.153,0.204,0.229    L288.759,137.212z"/>
		<path fill="#5297D1" d="M287.2,135.397c-0.065-0.078-0.129-0.158-0.193-0.237l-2.859,2.314c0.065,0.079,0.128,0.158,0.193,0.237    L287.2,135.397z"/>
		<path fill="#5297D1" d="M286.699,134.777c-0.063-0.081-0.125-0.162-0.188-0.241l-2.898,2.264c0.063,0.08,0.125,0.162,0.188,0.241    L286.699,134.777z"/>
		<path fill="#5297D1" d="M283.937,130.869c-0.054-0.087-0.108-0.173-0.162-0.261l-3.121,1.949c0.055,0.088,0.109,0.174,0.163,0.26    L283.937,130.869z"/>
		<path fill="#5297D1" d="M287.71,136.012c-0.066-0.078-0.132-0.156-0.198-0.234l-2.818,2.364c0.066,0.078,0.133,0.154,0.199,0.234    L287.71,136.012z"/>
		<path fill="#5297D1" d="M288.23,136.616c-0.068-0.077-0.136-0.153-0.203-0.229l-2.776,2.411c0.067,0.078,0.136,0.153,0.204,0.231    L288.23,136.616z"/>
		<path fill="#5297D1" d="M284.37,131.539c-0.056-0.085-0.114-0.17-0.169-0.256l-3.085,2.003c0.056,0.086,0.113,0.172,0.169,0.257    L284.37,131.539z"/>
		<path fill="#5297D1" d="M285.734,133.506c-0.061-0.083-0.121-0.165-0.181-0.247l-2.976,2.161c0.061,0.081,0.121,0.164,0.181,0.247    L285.734,133.506z"/>
		<path fill="#5297D1" d="M284.812,132.204c-0.058-0.085-0.114-0.17-0.171-0.256l-3.05,2.058c0.058,0.086,0.114,0.17,0.172,0.254    L284.812,132.204z"/>
		<path fill="#5297D1" d="M285.267,132.858c-0.059-0.084-0.117-0.167-0.175-0.251l-3.014,2.109c0.06,0.083,0.116,0.168,0.176,0.251    L285.267,132.858z"/>
		<path fill="#5297D1" d="M286.212,134.146c-0.062-0.081-0.125-0.162-0.187-0.243l-2.938,2.213c0.062,0.082,0.125,0.162,0.187,0.244    L286.212,134.146z"/>
		<path fill="#5297D1" d="M277.083,110.65c-0.009-0.102-0.018-0.204-0.027-0.306l-3.665,0.322c0.009,0.102,0.018,0.202,0.027,0.304    L277.083,110.65z"/>
		<path fill="#5297D1" d="M277.016,109.855c-0.007-0.102-0.012-0.204-0.019-0.307l-3.671,0.258c0.007,0.102,0.013,0.204,0.02,0.306    L277.016,109.855z"/>
		<path fill="#5297D1" d="M276.966,109.059c-0.006-0.102-0.012-0.204-0.017-0.306l-3.675,0.191c0.005,0.104,0.012,0.206,0.016,0.308    L276.966,109.059z"/>
		<path fill="#5297D1" d="M277.251,112.237c-0.012-0.101-0.022-0.203-0.035-0.305l-3.652,0.448c0.012,0.103,0.022,0.204,0.036,0.306    L277.251,112.237z"/>
		<path fill="#5297D1" d="M277.161,111.445c-0.011-0.102-0.023-0.203-0.035-0.306l-3.659,0.385c0.011,0.102,0.023,0.203,0.034,0.306    L277.161,111.445z"/>
		<path fill="#5297D1" d="M276.902,105.867c0.001-0.102,0.002-0.204,0.004-0.307l-3.679-0.064c-0.001,0.102-0.002,0.205-0.003,0.307    L276.902,105.867z"/>
		<path fill="#5297D1" d="M277.36,113.029c-0.015-0.102-0.03-0.203-0.042-0.304l-3.645,0.512c0.014,0.102,0.029,0.203,0.042,0.304    L277.36,113.029z"/>
		<path fill="#5297D1" d="M276.931,108.262c-0.004-0.102-0.009-0.204-0.013-0.308l-3.677,0.129c0.003,0.103,0.008,0.204,0.012,0.308    L276.931,108.262z"/>
		<path fill="#5297D1" d="M276.918,105.07c0.004-0.103,0.008-0.205,0.013-0.307l-3.677-0.129c-0.004,0.103-0.009,0.204-0.012,0.307    L276.918,105.07z"/>
		<path fill="#5297D1" d="M276.906,107.464c-0.002-0.103-0.002-0.205-0.004-0.307l-3.679,0.064c0.001,0.102,0.002,0.204,0.003,0.306    L276.906,107.464z"/>
		<path fill="#5297D1" d="M279.179,120.791c-0.032-0.098-0.063-0.194-0.095-0.291l-3.499,1.137c0.031,0.098,0.063,0.194,0.094,0.29    L279.179,120.791z"/>
		<path fill="#5297D1" d="M278.287,117.725c-0.024-0.098-0.049-0.198-0.072-0.297l-3.571,0.892c0.025,0.098,0.047,0.199,0.073,0.297    L278.287,117.725z"/>
		<path fill="#5297D1" d="M277.48,113.818c-0.016-0.101-0.035-0.202-0.05-0.304l-3.634,0.576c0.015,0.102,0.034,0.203,0.05,0.303    L277.48,113.818z"/>
		<path fill="#5297D1" d="M278.706,119.266c-0.029-0.098-0.058-0.195-0.086-0.294l-3.539,1.015c0.028,0.098,0.058,0.195,0.087,0.293    L278.706,119.266z"/>
		<path fill="#5297D1" d="M279.436,121.546c-0.033-0.097-0.069-0.193-0.102-0.29l-3.479,1.198c0.033,0.097,0.069,0.193,0.102,0.29    L279.436,121.546z"/>
		<path fill="#5297D1" d="M278.934,120.031c-0.031-0.099-0.058-0.197-0.087-0.295l-3.519,1.077c0.03,0.098,0.058,0.195,0.087,0.294    L278.934,120.031z"/>
		<path fill="#5297D1" d="M278.49,118.497c-0.026-0.098-0.054-0.196-0.08-0.296l-3.554,0.952c0.026,0.099,0.054,0.198,0.08,0.296    L278.49,118.497z"/>
		<path fill="#5297D1" d="M278.098,116.95c-0.024-0.1-0.046-0.199-0.069-0.3l-3.585,0.829c0.022,0.1,0.044,0.198,0.069,0.299    L278.098,116.95z"/>
		<path fill="#5297D1" d="M277.611,114.604c-0.018-0.1-0.033-0.201-0.05-0.303l-3.625,0.641c0.018,0.1,0.032,0.201,0.05,0.302    L277.611,114.604z"/>
		<path fill="#5297D1" d="M277.761,115.389c-0.019-0.099-0.038-0.2-0.057-0.301l-3.612,0.703c0.019,0.101,0.039,0.201,0.058,0.3    L277.761,115.389z"/>
		<path fill="#5297D1" d="M277.924,116.171c-0.022-0.099-0.044-0.199-0.066-0.299l-3.598,0.765c0.02,0.101,0.044,0.199,0.065,0.3    L277.924,116.171z"/>
		<path fill="#5297D1" d="M292.752,141.112c-0.077-0.068-0.153-0.136-0.23-0.204l-2.413,2.776c0.078,0.067,0.153,0.137,0.231,0.203    L292.752,141.112z"/>
		<path fill="#5297D1" d="M310.167,150.521c-0.098-0.029-0.196-0.059-0.293-0.087l-1.015,3.538c0.099,0.028,0.197,0.058,0.295,0.086    L310.167,150.521z"/>
		<path fill="#5297D1" d="M309.402,150.292c-0.097-0.029-0.195-0.057-0.293-0.088l-1.076,3.52c0.097,0.029,0.196,0.059,0.293,0.088    L309.402,150.292z"/>
		<path fill="#5297D1" d="M308.639,150.055c-0.096-0.032-0.194-0.063-0.291-0.096l-1.138,3.5c0.098,0.032,0.194,0.064,0.292,0.095    L308.639,150.055z"/>
		<path fill="#5297D1" d="M311.712,150.925c-0.099-0.024-0.2-0.047-0.298-0.073l-0.89,3.571c0.099,0.025,0.198,0.049,0.297,0.073    L311.712,150.925z"/>
		<path fill="#5297D1" d="M312.488,151.11c-0.099-0.022-0.199-0.044-0.298-0.068l-0.829,3.587c0.1,0.021,0.201,0.044,0.299,0.067    L312.488,151.11z"/>
		<path fill="#5297D1" d="M304.167,148.349c-0.093-0.042-0.187-0.08-0.281-0.122l-1.497,3.36c0.094,0.042,0.187,0.083,0.281,0.125    L304.167,148.349z"/>
		<path fill="#5297D1" d="M305.636,148.972c-0.094-0.04-0.188-0.078-0.282-0.118l-1.379,3.412c0.094,0.039,0.188,0.079,0.284,0.116    L305.636,148.972z"/>
		<path fill="#5297D1" d="M304.899,148.668c-0.094-0.039-0.187-0.08-0.282-0.122l-1.438,3.388c0.094,0.041,0.187,0.082,0.281,0.123    L304.899,148.668z"/>
		<path fill="#5297D1" d="M307.882,149.805c-0.097-0.032-0.193-0.068-0.29-0.102l-1.198,3.479c0.097,0.033,0.193,0.069,0.29,0.103    L307.882,149.805z"/>
		<path fill="#5297D1" d="M306.381,149.261c-0.096-0.037-0.191-0.071-0.287-0.108l-1.319,3.435c0.097,0.037,0.192,0.073,0.287,0.109    L306.381,149.261z"/>
		<path fill="#5297D1" d="M307.129,149.54c-0.097-0.035-0.193-0.068-0.289-0.104l-1.259,3.458c0.096,0.035,0.192,0.069,0.289,0.104    L307.129,149.54z"/>
		<path fill="#5297D1" d="M310.937,150.728c-0.098-0.026-0.197-0.054-0.295-0.079l-0.952,3.554c0.098,0.026,0.197,0.055,0.296,0.081    L310.937,150.728z"/>
		<path fill="#5297D1" d="M318.793,152.083c-0.102-0.008-0.204-0.019-0.305-0.026l-0.32,3.665c0.102,0.009,0.203,0.019,0.306,0.025    L318.793,152.083z"/>
		<path fill="#5297D1" d="M313.268,151.279c-0.1-0.021-0.201-0.043-0.299-0.064l-0.765,3.6c0.099,0.021,0.199,0.044,0.299,0.064    L313.268,151.279z"/>
		<path fill="#5297D1" d="M317.206,151.923c-0.102-0.014-0.203-0.022-0.305-0.035l-0.448,3.65c0.101,0.014,0.203,0.023,0.305,0.036    L317.206,151.923z"/>
		<path fill="#5297D1" d="M320.387,152.189c-0.102-0.006-0.206-0.012-0.307-0.017l-0.192,3.675c0.102,0.006,0.204,0.013,0.307,0.017    L320.387,152.189z"/>
		<path fill="#5297D1" d="M319.59,152.142c-0.103-0.008-0.205-0.014-0.307-0.02l-0.258,3.67c0.103,0.009,0.206,0.014,0.307,0.021    L319.59,152.142z"/>
		<path fill="#5297D1" d="M317.999,152.012c-0.102-0.01-0.204-0.022-0.304-0.033l-0.386,3.659c0.103,0.012,0.204,0.024,0.306,0.034    L317.999,152.012z"/>
		<path fill="#5297D1" d="M314.051,151.435c-0.1-0.019-0.202-0.038-0.302-0.058l-0.702,3.613c0.101,0.019,0.201,0.038,0.301,0.058    L314.051,151.435z"/>
		<path fill="#5297D1" d="M314.836,151.578c-0.1-0.017-0.202-0.032-0.302-0.049l-0.64,3.623c0.101,0.017,0.203,0.032,0.303,0.051    L314.836,151.578z"/>
		<path fill="#5297D1" d="M316.415,151.821c-0.102-0.014-0.203-0.028-0.305-0.042l-0.511,3.644c0.102,0.016,0.202,0.028,0.303,0.044    L316.415,151.821z"/>
		<path fill="#5297D1" d="M315.624,151.708c-0.102-0.015-0.202-0.033-0.302-0.049l-0.576,3.634c0.101,0.017,0.202,0.035,0.302,0.051    L315.624,151.708z"/>
		<path fill="#5297D1" d="M300.595,146.576c-0.09-0.05-0.179-0.101-0.267-0.151l-1.784,3.219c0.089,0.05,0.179,0.101,0.268,0.15    L300.595,146.576z"/>
		<path fill="#5297D1" d="M321.184,152.22c-0.102-0.004-0.204-0.009-0.307-0.013l-0.127,3.677c0.103,0.005,0.204,0.01,0.307,0.014    L321.184,152.22z"/>
		<path fill="#5297D1" d="M293.362,141.628c-0.079-0.066-0.156-0.133-0.234-0.198l-2.364,2.817c0.078,0.065,0.155,0.132,0.234,0.197    L293.362,141.628z"/>
		<path fill="#5297D1" d="M293.98,142.133c-0.08-0.064-0.16-0.128-0.239-0.192l-2.314,2.857c0.08,0.065,0.159,0.129,0.239,0.192    L293.98,142.133z"/>
		<path fill="#5297D1" d="M295.237,143.114c-0.082-0.063-0.162-0.124-0.244-0.186l-2.213,2.936c0.081,0.063,0.162,0.125,0.243,0.188    L295.237,143.114z"/>
		<path fill="#5297D1" d="M295.881,143.586c-0.083-0.061-0.165-0.122-0.248-0.181l-2.161,2.976c0.083,0.061,0.165,0.121,0.248,0.181    L295.881,143.586z"/>
		<path fill="#5297D1" d="M303.44,148.02c-0.093-0.043-0.184-0.087-0.277-0.129l-1.556,3.335c0.093,0.042,0.186,0.086,0.278,0.129    L303.44,148.02z"/>
		<path fill="#5297D1" d="M289.854,138.374c-0.071-0.074-0.144-0.146-0.214-0.219l-2.646,2.553c0.07,0.075,0.143,0.146,0.213,0.22    L289.854,138.374z"/>
		<path fill="#5297D1" d="M290.985,139.5c-0.073-0.071-0.146-0.144-0.219-0.215l-2.556,2.646c0.074,0.07,0.146,0.144,0.219,0.214    L290.985,139.5z"/>
		<path fill="#5297D1" d="M292.155,140.583c-0.076-0.068-0.154-0.135-0.229-0.203l-2.462,2.733c0.076,0.067,0.153,0.135,0.23,0.204    L292.155,140.583z"/>
		<path fill="#5297D1" d="M291.566,140.044c-0.076-0.067-0.151-0.137-0.225-0.208l-2.509,2.688c0.074,0.071,0.15,0.142,0.225,0.21    L291.566,140.044z"/>
		<path fill="#5297D1" d="M294.605,142.629c-0.082-0.063-0.163-0.125-0.243-0.187l-2.265,2.897c0.08,0.063,0.162,0.124,0.242,0.188    L294.605,142.629z"/>
		<path fill="#5297D1" d="M301.296,146.955c-0.09-0.047-0.181-0.096-0.271-0.144l-1.727,3.248c0.089,0.048,0.181,0.097,0.271,0.144    L301.296,146.955z"/>
		<path fill="#5297D1" d="M296.532,144.048c-0.084-0.06-0.169-0.117-0.252-0.176l-2.11,3.014c0.084,0.059,0.168,0.116,0.253,0.175    L296.532,144.048z"/>
		<path fill="#5297D1" d="M302.004,147.324c-0.091-0.047-0.183-0.093-0.273-0.139l-1.671,3.277c0.092,0.046,0.182,0.093,0.273,0.139    L302.004,147.324z"/>
		<path fill="#5297D1" d="M302.719,147.679c-0.093-0.044-0.183-0.091-0.276-0.136l-1.61,3.307c0.091,0.046,0.181,0.091,0.273,0.136    L302.719,147.679z"/>
		<path fill="#5297D1" d="M299.898,146.187c-0.089-0.051-0.176-0.104-0.264-0.155l-1.84,3.185c0.089,0.052,0.176,0.106,0.264,0.155    L299.898,146.187z"/>
		<path fill="#5297D1" d="M289.302,137.798c-0.07-0.074-0.139-0.151-0.208-0.226l-2.69,2.509c0.069,0.074,0.138,0.151,0.209,0.225    L289.302,137.798z"/>
		<path fill="#5297D1" d="M297.855,144.938c-0.087-0.056-0.171-0.112-0.256-0.168l-2.003,3.083c0.086,0.058,0.17,0.114,0.257,0.17    L297.855,144.938z"/>
		<path fill="#5297D1" d="M276.949,104.271c0.006-0.101,0.012-0.204,0.017-0.306l-3.675-0.192c-0.006,0.103-0.012,0.204-0.016,0.307    L276.949,104.271z"/>
		<path fill="#5297D1" d="M297.189,144.5c-0.085-0.057-0.171-0.116-0.254-0.173l-2.057,3.05c0.084,0.058,0.169,0.114,0.254,0.172    L297.189,144.5z"/>
		<path fill="#5297D1" d="M298.53,145.364c-0.086-0.055-0.173-0.107-0.26-0.163l-1.95,3.12c0.087,0.055,0.175,0.108,0.26,0.162    L298.53,145.364z"/>
	</g>
</g>
</svg>