<svg width="202" height="202" viewBox="0 0 202 202" fill="none" xmlns="http://www.w3.org/2000/svg">
<g opacity="0.5" clip-path="url(#clip0_176_37)">
<path d="M28.4891 56.9781C44.2231 56.9781 56.9781 44.2231 56.9781 28.4891C56.9781 12.755 44.2231 0 28.4891 0C12.755 0 0 12.755 0 28.4891C0 44.2231 12.755 56.9781 28.4891 56.9781Z" fill="#CBD5E4"/>
<path d="M101 56.9781C116.734 56.9781 129.489 44.2231 129.489 28.4891C129.489 12.755 116.734 0 101 0C85.2659 0 72.5109 12.755 72.5109 28.4891C72.5109 44.2231 85.2659 56.9781 101 56.9781Z" fill="#CBD5E4"/>
<path d="M173.511 56.9781C189.245 56.9781 202 44.2231 202 28.4891C202 12.755 189.245 0 173.511 0C157.777 0 145.022 12.755 145.022 28.4891C145.022 44.2231 157.777 56.9781 173.511 56.9781Z" fill="#CBD5E4"/>
<path d="M28.4891 129.489C44.2231 129.489 56.9781 116.734 56.9781 101C56.9781 85.2657 44.2231 72.5107 28.4891 72.5107C12.755 72.5107 0 85.2657 0 101C0 116.734 12.755 129.489 28.4891 129.489Z" fill="#CBD5E4"/>
<path d="M101 129.489C116.734 129.489 129.489 116.734 129.489 101C129.489 85.2657 116.734 72.5107 101 72.5107C85.2659 72.5107 72.5109 85.2657 72.5109 101C72.5109 116.734 85.2659 129.489 101 129.489Z" fill="#CBD5E4"/>
<path d="M173.511 129.489C189.245 129.489 202 116.734 202 101C202 85.2657 189.245 72.5107 173.511 72.5107C157.777 72.5107 145.022 85.2657 145.022 101C145.022 116.734 157.777 129.489 173.511 129.489Z" fill="#CBD5E4"/>
<path d="M28.4891 202C44.2231 202 56.9781 189.245 56.9781 173.511C56.9781 157.777 44.2231 145.022 28.4891 145.022C12.755 145.022 0 157.777 0 173.511C0 189.245 12.755 202 28.4891 202Z" fill="#CBD5E4"/>
<path d="M101 202C116.734 202 129.489 189.245 129.489 173.511C129.489 157.777 116.734 145.022 101 145.022C85.2659 145.022 72.5109 157.777 72.5109 173.511C72.5109 189.245 85.2659 202 101 202Z" fill="#CBD5E4"/>
<path d="M173.511 202C189.245 202 202 189.245 202 173.511C202 157.777 189.245 145.022 173.511 145.022C157.777 145.022 145.022 157.777 145.022 173.511C145.022 189.245 157.777 202 173.511 202Z" fill="#CBD5E4"/>
</g>
<defs>
<clipPath id="clip0_176_37">
<rect width="202" height="202" fill="white"/>
</clipPath>
</defs>
</svg>
