<svg width="282" height="282" viewBox="0 0 282 282" fill="none" xmlns="http://www.w3.org/2000/svg">
<g opacity="0.5" clip-path="url(#clip0_76_135)">
<path d="M39.7719 79.5437C61.7373 79.5437 79.5437 61.7373 79.5437 39.7719C79.5437 17.8065 61.7373 0 39.7719 0C17.8065 0 0 17.8065 0 39.7719C0 61.7373 17.8065 79.5437 39.7719 79.5437Z" fill="white"/>
<path d="M141 79.5437C162.965 79.5437 180.772 61.7373 180.772 39.7719C180.772 17.8065 162.965 0 141 0C119.035 0 101.228 17.8065 101.228 39.7719C101.228 61.7373 119.035 79.5437 141 79.5437Z" fill="white"/>
<path d="M242.228 79.5437C264.194 79.5437 282 61.7373 282 39.7719C282 17.8065 264.194 0 242.228 0C220.263 0 202.456 17.8065 202.456 39.7719C202.456 61.7373 220.263 79.5437 242.228 79.5437Z" fill="white"/>
<path d="M39.7719 180.772C61.7373 180.772 79.5437 162.965 79.5437 141C79.5437 119.035 61.7373 101.228 39.7719 101.228C17.8065 101.228 0 119.035 0 141C0 162.965 17.8065 180.772 39.7719 180.772Z" fill="white"/>
<path d="M141 180.772C162.965 180.772 180.772 162.965 180.772 141C180.772 119.035 162.965 101.228 141 101.228C119.035 101.228 101.228 119.035 101.228 141C101.228 162.965 119.035 180.772 141 180.772Z" fill="white"/>
<path d="M242.228 180.772C264.194 180.772 282 162.965 282 141C282 119.035 264.194 101.228 242.228 101.228C220.263 101.228 202.456 119.035 202.456 141C202.456 162.965 220.263 180.772 242.228 180.772Z" fill="white"/>
<path d="M39.7719 282C61.7373 282 79.5437 264.193 79.5437 242.228C79.5437 220.263 61.7373 202.456 39.7719 202.456C17.8065 202.456 0 220.263 0 242.228C0 264.193 17.8065 282 39.7719 282Z" fill="white"/>
<path d="M141 282C162.965 282 180.772 264.193 180.772 242.228C180.772 220.263 162.965 202.456 141 202.456C119.035 202.456 101.228 220.263 101.228 242.228C101.228 264.193 119.035 282 141 282Z" fill="white"/>
<path d="M242.228 282C264.194 282 282 264.193 282 242.228C282 220.263 264.194 202.456 242.228 202.456C220.263 202.456 202.456 220.263 202.456 242.228C202.456 264.193 220.263 282 242.228 282Z" fill="white"/>
</g>
<defs>
<clipPath id="clip0_76_135">
<rect width="282" height="282" fill="white"/>
</clipPath>
</defs>
</svg>
