<?xml version="1.0" encoding="UTF-8"?>
<!-- Generator: Adobe Illustrator 24.3.0, SVG Export Plug-In . SVG Version: 6.00 Build 0)  -->
<svg version="1.1" id="Layer_1" xmlns="http://www.w3.org/2000/svg" xmlns:xlink="http://www.w3.org/1999/xlink" x="0px" y="0px" width="925.4px" height="930.6px" viewBox="0 0 925.4 930.6" style="enable-background:new 0 0 925.4 930.6;" xml:space="preserve">
<style type="text/css">
	.st0{opacity:0.24;}
	.st1{fill:#FDFEFF;}
	.st2{opacity:0.4;fill:#544C61;enable-background:new    ;}
	.st3{opacity:0.31;}
	.st4{fill:#5297D1;}
	.st5{fill:#EFEEF1;}
	.st6{fill:#544C61;}
</style>
<g class="st0">
	<polygon class="st1" points="481.4,784.9 477.3,789 473.3,784.9 470.5,787.7 474.5,791.8 470.5,795.8 473.3,798.6 477.3,794.6    481.4,798.6 484.2,795.8 480.1,791.8 484.2,787.7  "/>
	<polygon class="st1" points="514.4,784.9 510.3,789 506.2,784.9 503.4,787.7 507.5,791.8 503.4,795.8 506.2,798.6 510.3,794.6    514.4,798.6 517.2,795.8 513.1,791.8 517.2,787.7  "/>
	<polygon class="st1" points="547.4,784.9 543.3,789 539.2,784.9 536.4,787.7 540.5,791.8 536.4,795.8 539.2,798.6 543.3,794.6    547.4,798.6 550.2,795.8 546.1,791.8 550.2,787.7  "/>
	<polygon class="st1" points="580.4,784.9 576.3,789 572.2,784.9 569.4,787.7 573.5,791.8 569.4,795.8 572.2,798.6 576.3,794.6    580.4,798.6 583.2,795.8 579.1,791.8 583.2,787.7  "/>
	<polygon class="st1" points="605.2,798.6 609.3,794.6 613.4,798.6 616.2,795.8 612.1,791.8 616.2,787.7 613.4,784.9 609.3,789    605.2,784.9 602.4,787.7 606.5,791.8 602.4,795.8  "/>
	<polygon class="st1" points="481.4,817.9 477.3,821.9 473.3,817.9 470.5,820.7 474.5,824.7 470.5,828.8 473.3,831.6 477.3,827.5    481.4,831.6 484.2,828.8 480.1,824.7 484.2,820.7  "/>
	<polygon class="st1" points="514.4,817.9 510.3,821.9 506.2,817.9 503.4,820.7 507.5,824.7 503.4,828.8 506.2,831.6 510.3,827.5    514.4,831.6 517.2,828.8 513.1,824.7 517.2,820.7  "/>
	<polygon class="st1" points="547.4,817.9 543.3,821.9 539.2,817.9 536.4,820.7 540.5,824.7 536.4,828.8 539.2,831.6 543.3,827.5    547.4,831.6 550.2,828.8 546.1,824.7 550.2,820.7  "/>
	<polygon class="st1" points="580.4,817.9 576.3,821.9 572.2,817.9 569.4,820.7 573.5,824.7 569.4,828.8 572.2,831.6 576.3,827.5    580.4,831.6 583.2,828.8 579.1,824.7 583.2,820.7  "/>
	<polygon class="st1" points="616.2,820.7 613.4,817.9 609.3,821.9 605.2,817.9 602.4,820.7 606.5,824.7 602.4,828.8 605.2,831.6    609.3,827.5 613.4,831.6 616.2,828.8 612.1,824.7  "/>
	<polygon class="st1" points="481.4,850.8 477.3,854.9 473.3,850.8 470.5,853.6 474.5,857.7 470.5,861.8 473.3,864.6 477.3,860.5    481.4,864.6 484.2,861.8 480.1,857.7 484.2,853.6  "/>
	<polygon class="st1" points="514.4,850.8 510.3,854.9 506.2,850.8 503.4,853.6 507.5,857.7 503.4,861.8 506.2,864.6 510.3,860.5    514.4,864.6 517.2,861.8 513.1,857.7 517.2,853.6  "/>
	<polygon class="st1" points="547.4,850.8 543.3,854.9 539.2,850.8 536.4,853.6 540.5,857.7 536.4,861.8 539.2,864.6 543.3,860.5    547.4,864.6 550.2,861.8 546.1,857.7 550.2,853.6  "/>
	<polygon class="st1" points="580.4,850.8 576.3,854.9 572.2,850.8 569.4,853.6 573.5,857.7 569.4,861.8 572.2,864.6 576.3,860.5    580.4,864.6 583.2,861.8 579.1,857.7 583.2,853.6  "/>
	<polygon class="st1" points="616.2,853.6 613.4,850.8 609.3,854.9 605.2,850.8 602.4,853.6 606.5,857.7 602.4,861.8 605.2,864.6    609.3,860.5 613.4,864.6 616.2,861.8 612.1,857.7  "/>
	<polygon class="st1" points="481.4,883.8 477.3,887.9 473.3,883.8 470.5,886.6 474.5,890.7 470.5,894.8 473.3,897.6 477.3,893.5    481.4,897.6 484.2,894.8 480.1,890.7 484.2,886.6  "/>
	<polygon class="st1" points="514.4,883.8 510.3,887.9 506.2,883.8 503.4,886.6 507.5,890.7 503.4,894.8 506.2,897.6 510.3,893.5    514.4,897.6 517.2,894.8 513.1,890.7 517.2,886.6  "/>
	<polygon class="st1" points="547.4,883.8 543.3,887.9 539.2,883.8 536.4,886.6 540.5,890.7 536.4,894.8 539.2,897.6 543.3,893.5    547.4,897.6 550.2,894.8 546.1,890.7 550.2,886.6  "/>
	<polygon class="st1" points="580.4,883.8 576.3,887.9 572.2,883.8 569.4,886.6 573.5,890.7 569.4,894.8 572.2,897.6 576.3,893.5    580.4,897.6 583.2,894.8 579.1,890.7 583.2,886.6  "/>
	<polygon class="st1" points="616.2,886.6 613.4,883.8 609.3,887.9 605.2,883.8 602.4,886.6 606.5,890.7 602.4,894.8 605.2,897.6    609.3,893.5 613.4,897.6 616.2,894.8 612.1,890.7  "/>
	<polygon class="st1" points="481.4,916.8 477.3,920.9 473.3,916.8 470.5,919.6 474.5,923.7 470.5,927.8 473.3,930.6 477.3,926.5    481.4,930.6 484.2,927.8 480.1,923.7 484.2,919.6  "/>
	<polygon class="st1" points="514.4,916.8 510.3,920.9 506.2,916.8 503.4,919.6 507.5,923.7 503.4,927.8 506.2,930.6 510.3,926.5    514.4,930.6 517.2,927.8 513.1,923.7 517.2,919.6  "/>
	<polygon class="st1" points="547.4,916.8 543.3,920.9 539.2,916.8 536.4,919.6 540.5,923.7 536.4,927.8 539.2,930.6 543.3,926.5    547.4,930.6 550.2,927.8 546.1,923.7 550.2,919.6  "/>
	<polygon class="st1" points="580.4,916.8 576.3,920.9 572.2,916.8 569.4,919.6 573.5,923.7 569.4,927.8 572.2,930.6 576.3,926.5    580.4,930.6 583.2,927.8 579.1,923.7 583.2,919.6  "/>
	<polygon class="st1" points="616.2,919.6 613.4,916.8 609.3,920.9 605.2,916.8 602.4,919.6 606.5,923.7 602.4,927.8 605.2,930.6    609.3,926.5 613.4,930.6 616.2,927.8 612.1,923.7  "/>
</g>
<g>
	<circle class="st2" cx="161.9" cy="6.7" r="6.7"/>
	<circle class="st2" cx="123.1" cy="6.7" r="6.7"/>
	<circle class="st2" cx="84.3" cy="6.7" r="6.7"/>
	<circle class="st2" cx="45.5" cy="6.7" r="6.7"/>
	<circle class="st2" cx="6.7" cy="6.7" r="6.7"/>
	<circle class="st2" cx="161.9" cy="40.5" r="6.7"/>
	<circle class="st2" cx="123.1" cy="40.5" r="6.7"/>
	<circle class="st2" cx="84.3" cy="40.5" r="6.7"/>
	<circle class="st2" cx="45.5" cy="40.5" r="6.7"/>
	<circle class="st2" cx="6.7" cy="40.5" r="6.7"/>
	<circle class="st2" cx="161.9" cy="74.2" r="6.7"/>
	<circle class="st2" cx="123.1" cy="74.2" r="6.7"/>
	<circle class="st2" cx="84.3" cy="74.2" r="6.7"/>
	<circle class="st2" cx="45.5" cy="74.2" r="6.7"/>
	<circle class="st2" cx="6.7" cy="74.2" r="6.7"/>
	<circle class="st2" cx="161.9" cy="107.9" r="6.7"/>
	<circle class="st2" cx="123.1" cy="107.9" r="6.7"/>
	<circle class="st2" cx="84.3" cy="107.9" r="6.7"/>
	<circle class="st2" cx="45.5" cy="107.9" r="6.7"/>
	<circle class="st2" cx="6.7" cy="107.9" r="6.7"/>
</g>
<g class="st3">
	<path class="st4" d="M821.1,708.2c0.1-0.1,0.3-0.1,0.4-0.2l-2.4-5c-0.1,0.1-0.3,0.1-0.4,0.2L821.1,708.2z"/>
	<path class="st4" d="M822.2,707.7c0.1-0.1,0.3-0.1,0.4-0.2l-2.3-5.1c-0.1,0.1-0.3,0.1-0.4,0.2L822.2,707.7z"/>
	<path class="st4" d="M817.9,709.8c0.1-0.1,0.3-0.1,0.4-0.2l-2.6-4.9c-0.1,0.1-0.3,0.1-0.4,0.2L817.9,709.8z"/>
	<path class="st4" d="M820.1,708.7c0.1-0.1,0.3-0.1,0.4-0.2l-2.4-5c-0.1,0.1-0.3,0.1-0.4,0.2L820.1,708.7z"/>
	<path class="st4" d="M819,709.3c0.1-0.1,0.3-0.1,0.4-0.2l-2.5-5c-0.1,0.1-0.3,0.1-0.4,0.2L819,709.3z"/>
	<path class="st4" d="M825.6,706.3c0.1-0.1,0.3-0.1,0.4-0.2l-2-5.2c-0.1,0.1-0.3,0.1-0.4,0.2L825.6,706.3z"/>
	<path class="st4" d="M827.9,705.5c0.1-0.1,0.3-0.1,0.4-0.2l-1.8-5.3c-0.1,0-0.3,0.1-0.4,0.2L827.9,705.5z"/>
	<path class="st4" d="M823.3,707.2c0.1-0.1,0.3-0.1,0.4-0.2l-2.2-5.1c-0.1,0.1-0.3,0.1-0.4,0.2L823.3,707.2z"/>
	<path class="st4" d="M829,705.1c0.1,0,0.3-0.1,0.4-0.1l-1.7-5.3c-0.1,0-0.3,0.1-0.4,0.1L829,705.1z"/>
	<path class="st4" d="M816.9,710.4c0.1-0.1,0.3-0.2,0.4-0.2l-2.7-4.9c-0.1,0.1-0.3,0.1-0.4,0.2L816.9,710.4z"/>
	<path class="st4" d="M826.7,705.9c0.1-0.1,0.3-0.1,0.4-0.2l-1.9-5.2c-0.1,0.1-0.3,0.1-0.4,0.2L826.7,705.9z"/>
	<path class="st4" d="M809.8,715c0.1-0.1,0.2-0.2,0.4-0.3l-3.3-4.5c-0.1,0.1-0.2,0.2-0.4,0.3L809.8,715z"/>
	<path class="st4" d="M808.8,715.7c0.1-0.1,0.2-0.2,0.4-0.3l-3.3-4.4c-0.1,0.1-0.2,0.2-0.4,0.3L808.8,715.7z"/>
	<path class="st4" d="M807.8,716.4c0.1-0.1,0.2-0.2,0.4-0.3l-3.4-4.4c-0.1,0.1-0.2,0.2-0.4,0.3L807.8,716.4z"/>
	<path class="st4" d="M815.8,711c0.1-0.1,0.3-0.2,0.4-0.2l-2.8-4.8c-0.1,0.1-0.3,0.2-0.4,0.2L815.8,711z"/>
	<path class="st4" d="M806.9,717.2c0.1-0.1,0.2-0.2,0.4-0.3l-3.5-4.3c-0.1,0.1-0.2,0.2-0.4,0.3L806.9,717.2z"/>
	<path class="st4" d="M810.7,714.3c0.1-0.1,0.3-0.2,0.4-0.3l-3.2-4.6c-0.1,0.1-0.3,0.2-0.4,0.3L810.7,714.3z"/>
	<path class="st4" d="M811.7,713.6c0.1-0.1,0.3-0.2,0.4-0.3l-3.1-4.6c-0.1,0.1-0.3,0.2-0.4,0.3L811.7,713.6z"/>
	<path class="st4" d="M814.8,711.6c0.1-0.1,0.3-0.2,0.4-0.2l-2.9-4.8c-0.1,0.1-0.3,0.2-0.4,0.2L814.8,711.6z"/>
	<path class="st4" d="M813.7,712.3c0.1-0.1,0.3-0.2,0.4-0.2l-2.9-4.7c-0.1,0.1-0.3,0.2-0.4,0.2L813.7,712.3z"/>
	<path class="st4" d="M812.7,712.9c0.1-0.1,0.3-0.2,0.4-0.3l-3-4.7c-0.1,0.1-0.3,0.2-0.4,0.3L812.7,712.9z"/>
	<path class="st4" d="M824.5,706.7c0.1-0.1,0.3-0.1,0.4-0.2l-2.1-5.2c-0.1,0.1-0.3,0.1-0.4,0.2L824.5,706.7z"/>
	<path class="st4" d="M856.4,701.8c0.2,0,0.3,0,0.5,0l0.5-5.5c-0.2,0-0.3,0-0.5,0L856.4,701.8z"/>
	<path class="st4" d="M846.7,701.7c0.2,0,0.3,0,0.5,0l-0.3-5.6c-0.2,0-0.3,0-0.5,0L846.7,701.7z"/>
	<path class="st4" d="M849.2,701.6c0.2,0,0.3,0,0.5,0l-0.1-5.6c-0.2,0-0.3,0-0.5,0L849.2,701.6z"/>
	<path class="st4" d="M845.5,701.8c0.2,0,0.3,0,0.5,0l-0.4-5.6c-0.2,0-0.3,0-0.5,0L845.5,701.8z"/>
	<path class="st4" d="M844.3,701.9c0.2,0,0.3,0,0.5,0l-0.5-5.5c-0.2,0-0.3,0-0.5,0L844.3,701.9z"/>
	<path class="st4" d="M848,701.7c0.2,0,0.3,0,0.5,0l-0.2-5.6c-0.2,0-0.3,0-0.5,0L848,701.7z"/>
	<path class="st4" d="M854,701.7c0.2,0,0.3,0,0.5,0l0.3-5.6c-0.2,0-0.3,0-0.5,0L854,701.7z"/>
	<path class="st4" d="M830.1,704.7c0.1,0,0.3-0.1,0.4-0.1l-1.6-5.3c-0.1,0-0.3,0.1-0.4,0.1L830.1,704.7z"/>
	<path class="st4" d="M850.4,696v5.6c0.1,0,0.2,0,0.2,0h0.2V696c-0.1,0-0.2,0-0.2,0H850.4z"/>
	<path class="st4" d="M851.6,701.6c0.2,0,0.3,0,0.5,0l0.1-5.6c-0.2,0-0.3,0-0.5,0L851.6,701.6z"/>
	<path class="st4" d="M852.8,701.6c0.2,0,0.3,0,0.5,0l0.2-5.6c-0.2,0-0.3,0-0.5,0L852.8,701.6z"/>
	<path class="st4" d="M855.2,701.8c0.2,0,0.3,0,0.5,0l0.4-5.6c-0.2,0-0.3,0-0.5,0L855.2,701.8z"/>
	<path class="st4" d="M833.6,703.7c0.1,0,0.3-0.1,0.5-0.1l-1.3-5.4c-0.1,0-0.3,0.1-0.4,0.1L833.6,703.7z"/>
	<path class="st4" d="M836,703.2c0.2,0,0.3-0.1,0.5-0.1l-1.2-5.4c-0.1,0-0.3,0.1-0.5,0.1L836,703.2z"/>
	<path class="st4" d="M834.8,703.4c0.2,0,0.3-0.1,0.5-0.1l-1.3-5.4c-0.2,0-0.3,0.1-0.5,0.1L834.8,703.4z"/>
	<path class="st4" d="M832.5,704c0.1,0,0.3-0.1,0.4-0.1l-1.4-5.4c-0.1,0-0.3,0.1-0.4,0.1L832.5,704z"/>
	<path class="st4" d="M831.3,704.3c0.1,0,0.3-0.1,0.4-0.1l-1.5-5.4c-0.1,0-0.3,0.1-0.4,0.1L831.3,704.3z"/>
	<path class="st4" d="M841.9,702.1c0.2,0,0.3,0,0.5-0.1l-0.7-5.5c-0.2,0-0.3,0-0.5,0.1L841.9,702.1z"/>
	<path class="st4" d="M837.2,702.9c0.1,0,0.3-0.1,0.5-0.1l-1.1-5.5c-0.2,0-0.3,0.1-0.5,0.1L837.2,702.9z"/>
	<path class="st4" d="M839.5,702.5c0.2,0,0.3-0.1,0.5-0.1l-0.9-5.5c-0.2,0-0.3,0.1-0.5,0.1L839.5,702.5z"/>
	<path class="st4" d="M840.7,702.3c0.2,0,0.3,0,0.5-0.1l-0.8-5.5c-0.2,0-0.3,0-0.5,0.1L840.7,702.3z"/>
	<path class="st4" d="M838.4,702.7c0.2,0,0.3,0,0.5-0.1l-1-5.5c-0.2,0-0.3,0.1-0.5,0.1L838.4,702.7z"/>
	<path class="st4" d="M843.1,702c0.2,0,0.3,0,0.5-0.1l-0.6-5.5c-0.2,0-0.3,0-0.5,0.1L843.1,702z"/>
	<path class="st4" d="M784.7,749.6c0-0.1,0.1-0.3,0.1-0.4l-5.3-1.7c0,0.1-0.1,0.3-0.1,0.4L784.7,749.6z"/>
	<path class="st4" d="M785.1,748.5c0-0.1,0.1-0.3,0.2-0.4l-5.3-1.8c-0.1,0.1-0.1,0.3-0.2,0.4L785.1,748.5z"/>
	<path class="st4" d="M783.7,753.1c0-0.1,0.1-0.3,0.1-0.4l-5.4-1.4c0,0.1-0.1,0.3-0.1,0.4L783.7,753.1z"/>
	<path class="st4" d="M784,752c0-0.1,0.1-0.3,0.1-0.4l-5.4-1.5c0,0.1-0.1,0.3-0.1,0.4L784,752z"/>
	<path class="st4" d="M784.3,750.8c0-0.1,0.1-0.3,0.1-0.4l-5.3-1.6c0,0.1-0.1,0.3-0.1,0.4L784.3,750.8z"/>
	<path class="st4" d="M785.5,747.4c0.1-0.1,0.1-0.3,0.2-0.4l-5.2-1.9c-0.1,0.1-0.1,0.3-0.2,0.4L785.5,747.4z"/>
	<path class="st4" d="M787.8,741.8c0.1-0.1,0.1-0.3,0.2-0.4l-5-2.4c-0.1,0.1-0.1,0.3-0.2,0.4L787.8,741.8z"/>
	<path class="st4" d="M785.9,746.2c0.1-0.1,0.1-0.3,0.2-0.4l-5.2-2c-0.1,0.1-0.1,0.3-0.2,0.4L785.9,746.2z"/>
	<path class="st4" d="M787.3,742.9c0.1-0.1,0.1-0.3,0.2-0.4l-5.1-2.3c-0.1,0.1-0.1,0.3-0.2,0.4L787.3,742.9z"/>
	<path class="st4" d="M786.3,745.1c0.1-0.1,0.1-0.3,0.2-0.4l-5.2-2.1c-0.1,0.1-0.1,0.3-0.2,0.4L786.3,745.1z"/>
	<path class="st4" d="M786.8,744c0.1-0.1,0.1-0.3,0.2-0.4l-5.1-2.2c-0.1,0.1-0.1,0.3-0.2,0.4L786.8,744z"/>
	<path class="st4" d="M783.1,755.5c0-0.2,0.1-0.3,0.1-0.5l-5.4-1.3c0,0.1-0.1,0.3-0.1,0.5L783.1,755.5z"/>
	<path class="st4" d="M781.9,762.6c0-0.2,0-0.3,0.1-0.5l-5.5-0.7c0,0.2,0,0.3-0.1,0.5L781.9,762.6z"/>
	<path class="st4" d="M782,761.4c0-0.2,0-0.3,0.1-0.5l-5.5-0.8c0,0.2,0,0.3-0.1,0.5L782,761.4z"/>
	<path class="st4" d="M781.6,765c0-0.2,0-0.3,0-0.5l-5.5-0.5c0,0.2,0,0.3,0,0.5L781.6,765z"/>
	<path class="st4" d="M782.2,760.2c0-0.2,0.1-0.3,0.1-0.5l-5.5-0.9c0,0.2-0.1,0.3-0.1,0.5L782.2,760.2z"/>
	<path class="st4" d="M781.7,763.8c0-0.2,0-0.3,0.1-0.5l-5.5-0.6c0,0.2,0,0.3-0.1,0.5L781.7,763.8z"/>
	<path class="st4" d="M783.4,754.3c0-0.1,0.1-0.3,0.1-0.4l-5.4-1.3c0,0.1-0.1,0.3-0.1,0.5L783.4,754.3z"/>
	<path class="st4" d="M788.3,740.7c0.1-0.1,0.1-0.3,0.2-0.4l-5-2.4c-0.1,0.1-0.1,0.3-0.2,0.4L788.3,740.7z"/>
	<path class="st4" d="M782.4,759c0-0.2,0-0.3,0.1-0.5l-5.5-1c0,0.1,0,0.3-0.1,0.5L782.4,759z"/>
	<path class="st4" d="M782.9,756.7c0-0.2,0.1-0.3,0.1-0.5l-5.4-1.2c0,0.2-0.1,0.3-0.1,0.5L782.9,756.7z"/>
	<path class="st4" d="M782.6,757.8c0-0.2,0.1-0.3,0.1-0.5l-5.5-1.1c0,0.2-0.1,0.3-0.1,0.5L782.6,757.8z"/>
	<path class="st4" d="M803.3,720.4c0.1-0.1,0.2-0.2,0.3-0.3l-3.8-4.1c-0.1,0.1-0.2,0.2-0.3,0.3L803.3,720.4z"/>
	<path class="st4" d="M798.2,725.6c0.1-0.1,0.2-0.2,0.3-0.4l-4.2-3.6c-0.1,0.1-0.2,0.2-0.3,0.3L798.2,725.6z"/>
	<path class="st4" d="M799,724.7c0.1-0.1,0.2-0.2,0.3-0.3l-4.1-3.7c-0.1,0.1-0.2,0.2-0.3,0.3L799,724.7z"/>
	<path class="st4" d="M796.7,727.5c0.1-0.1,0.2-0.2,0.3-0.4l-4.3-3.5c-0.1,0.1-0.2,0.2-0.3,0.4L796.7,727.5z"/>
	<path class="st4" d="M797.5,726.5c0.1-0.1,0.2-0.2,0.3-0.4l-4.3-3.6c-0.1,0.1-0.2,0.2-0.3,0.4L797.5,726.5z"/>
	<path class="st4" d="M799.9,723.8c0.1-0.1,0.2-0.2,0.3-0.3l-4.1-3.8c-0.1,0.1-0.2,0.2-0.3,0.3L799.9,723.8z"/>
	<path class="st4" d="M806,718c0.1-0.1,0.2-0.2,0.4-0.3l-3.6-4.3c-0.1,0.1-0.2,0.2-0.4,0.3L806,718z"/>
	<path class="st4" d="M805,718.8c0.1-0.1,0.2-0.2,0.3-0.3l-3.7-4.2c-0.1,0.1-0.2,0.2-0.3,0.3L805,718.8z"/>
	<path class="st4" d="M804.1,719.6c0.1-0.1,0.2-0.2,0.3-0.3l-3.7-4.1c-0.1,0.1-0.2,0.2-0.3,0.3L804.1,719.6z"/>
	<path class="st4" d="M781.6,766.2c0-0.2,0-0.3,0-0.5l-5.6-0.4c0,0.2,0,0.3,0,0.5L781.6,766.2z"/>
	<path class="st4" d="M802.4,721.2c0.1-0.1,0.2-0.2,0.3-0.3l-3.9-4c-0.1,0.1-0.2,0.2-0.3,0.3L802.4,721.2z"/>
	<path class="st4" d="M795.9,728.4c0.1-0.1,0.2-0.2,0.3-0.4l-4.4-3.4c-0.1,0.1-0.2,0.2-0.3,0.4L795.9,728.4z"/>
	<path class="st4" d="M789.4,738.5c0.1-0.1,0.1-0.3,0.2-0.4l-4.9-2.6c-0.1,0.1-0.1,0.3-0.2,0.4L789.4,738.5z"/>
	<path class="st4" d="M790.6,736.4c0.1-0.1,0.2-0.3,0.2-0.4l-4.8-2.8c-0.1,0.1-0.2,0.3-0.2,0.4L790.6,736.4z"/>
	<path class="st4" d="M791.8,734.3c0.1-0.1,0.2-0.3,0.2-0.4l-4.7-3c-0.1,0.1-0.2,0.3-0.2,0.4L791.8,734.3z"/>
	<path class="st4" d="M791.2,735.4c0.1-0.1,0.2-0.3,0.2-0.4l-4.8-2.9c-0.1,0.1-0.2,0.3-0.2,0.4L791.2,735.4z"/>
	<path class="st4" d="M790,737.5c0.1-0.1,0.2-0.3,0.2-0.4l-4.9-2.7c-0.1,0.1-0.2,0.3-0.2,0.4L790,737.5z"/>
	<path class="st4" d="M788.8,739.6c0.1-0.1,0.1-0.3,0.2-0.4l-5-2.5c-0.1,0.1-0.1,0.3-0.2,0.4L788.8,739.6z"/>
	<path class="st4" d="M793.1,732.3c0.1-0.1,0.2-0.3,0.3-0.4l-4.6-3.1c-0.1,0.1-0.2,0.3-0.3,0.4L793.1,732.3z"/>
	<path class="st4" d="M792.5,733.3c0.1-0.1,0.2-0.3,0.3-0.4l-4.7-3c-0.1,0.1-0.2,0.3-0.3,0.4L792.5,733.3z"/>
	<path class="st4" d="M793.8,731.3c0.1-0.1,0.2-0.3,0.3-0.4l-4.6-3.2c-0.1,0.1-0.2,0.3-0.3,0.4L793.8,731.3z"/>
	<path class="st4" d="M794.5,730.3c0.1-0.1,0.2-0.3,0.3-0.4l-4.5-3.3c-0.1,0.1-0.2,0.2-0.3,0.4L794.5,730.3z"/>
	<path class="st4" d="M795.2,729.4c0.1-0.1,0.2-0.2,0.3-0.4l-4.4-3.3c-0.1,0.1-0.2,0.2-0.3,0.4L795.2,729.4z"/>
	<path class="st4" d="M800.7,722.9c0.1-0.1,0.2-0.2,0.3-0.3l-4-3.9c-0.1,0.1-0.2,0.2-0.3,0.3L800.7,722.9z"/>
	<path class="st4" d="M913.7,742.5c0.1,0.1,0.1,0.3,0.2,0.4l5.1-2.3c-0.1-0.1-0.1-0.3-0.2-0.4L913.7,742.5z"/>
	<path class="st4" d="M914.7,744.7c0.1,0.1,0.1,0.3,0.2,0.4l5.2-2.1c-0.1-0.1-0.1-0.3-0.2-0.4L914.7,744.7z"/>
	<path class="st4" d="M914.2,743.6c0.1,0.1,0.1,0.3,0.2,0.4l5.1-2.2c-0.1-0.1-0.1-0.3-0.2-0.4L914.2,743.6z"/>
	<path class="st4" d="M912.7,740.3c0.1,0.1,0.1,0.3,0.2,0.4l5-2.4c-0.1-0.1-0.1-0.3-0.2-0.4L912.7,740.3z"/>
	<path class="st4" d="M913.2,741.4c0.1,0.1,0.1,0.3,0.2,0.4l5-2.4c-0.1-0.1-0.1-0.3-0.2-0.4L913.2,741.4z"/>
	<path class="st4" d="M912.2,739.2c0.1,0.1,0.1,0.3,0.2,0.4l5-2.5c-0.1-0.1-0.1-0.3-0.2-0.4L912.2,739.2z"/>
	<path class="st4" d="M916.4,749.2c0,0.1,0.1,0.3,0.1,0.4l5.3-1.7c0-0.1-0.1-0.3-0.1-0.4L916.4,749.2z"/>
	<path class="st4" d="M915.1,745.8c0.1,0.1,0.1,0.3,0.2,0.4l5.2-2c-0.1-0.1-0.1-0.3-0.2-0.4L915.1,745.8z"/>
	<path class="st4" d="M916.7,750.4c0,0.1,0.1,0.3,0.1,0.4l5.3-1.6c0-0.1-0.1-0.3-0.1-0.4L916.7,750.4z"/>
	<path class="st4" d="M916,748.1c0.1,0.1,0.1,0.3,0.2,0.4l5.3-1.8c0-0.1-0.1-0.3-0.2-0.4L916,748.1z"/>
	<path class="st4" d="M915.6,746.9c0.1,0.1,0.1,0.3,0.2,0.4l5.2-1.9c-0.1-0.1-0.1-0.3-0.2-0.4L915.6,746.9z"/>
	<path class="st4" d="M911.6,738.1c0.1,0.1,0.1,0.3,0.2,0.4l4.9-2.6c-0.1-0.1-0.1-0.3-0.2-0.4L911.6,738.1z"/>
	<path class="st4" d="M907.1,730.9c0.1,0.1,0.2,0.3,0.3,0.4l4.6-3.2c-0.1-0.1-0.2-0.3-0.3-0.4L907.1,730.9z"/>
	<path class="st4" d="M907.8,731.9c0.1,0.1,0.2,0.3,0.3,0.4l4.6-3.1c-0.1-0.1-0.2-0.3-0.3-0.4L907.8,731.9z"/>
	<path class="st4" d="M908.5,732.9c0.1,0.1,0.2,0.3,0.3,0.4l4.7-3c-0.1-0.1-0.2-0.3-0.3-0.4L908.5,732.9z"/>
	<path class="st4" d="M906.4,730c0.1,0.1,0.2,0.2,0.3,0.4l4.5-3.3c-0.1-0.1-0.2-0.2-0.3-0.4L906.4,730z"/>
	<path class="st4" d="M905.7,729c0.1,0.1,0.2,0.2,0.3,0.4l4.4-3.3c-0.1-0.1-0.2-0.2-0.3-0.4L905.7,729z"/>
	<path class="st4" d="M909.2,734c0.1,0.1,0.2,0.3,0.2,0.4l4.7-3c-0.1-0.1-0.2-0.3-0.2-0.4L909.2,734z"/>
	<path class="st4" d="M910.4,736c0.1,0.1,0.2,0.3,0.2,0.4l4.8-2.8c-0.1-0.1-0.2-0.3-0.2-0.4L910.4,736z"/>
	<path class="st4" d="M917.1,751.5c0,0.1,0.1,0.3,0.1,0.4l5.4-1.5c0-0.1-0.1-0.3-0.1-0.4L917.1,751.5z"/>
	<path class="st4" d="M911,737.1c0.1,0.1,0.2,0.3,0.2,0.4l4.9-2.7c-0.1-0.1-0.2-0.3-0.2-0.4L911,737.1z"/>
	<path class="st4" d="M909.8,735c0.1,0.1,0.2,0.3,0.2,0.4l4.8-2.9c-0.1-0.1-0.2-0.3-0.2-0.4L909.8,735z"/>
	<path class="st4" d="M919.4,763.3c0,0.2,0,0.3,0.1,0.5l5.5-0.6c0-0.2,0-0.3-0.1-0.5L919.4,763.3z"/>
	<path class="st4" d="M899.7,722.1l3.9-3.9c-0.1-0.1-0.2-0.2-0.3-0.3l-3.9,3.9C899.5,721.8,899.6,722,899.7,722.1z"/>
	<path class="st4" d="M925.4,769.3l-5.6,0.1c0,0.2,0,0.3,0,0.5l5.6-0.1C925.4,769.6,925.4,769.4,925.4,769.3z"/>
	<path class="st4" d="M919.8,768.2c0,0.2,0,0.3,0,0.5l5.6-0.2c0-0.2,0-0.3,0-0.5L919.8,768.2z"/>
	<path class="st4" d="M919.7,767c0,0.2,0,0.3,0,0.5l5.6-0.3c0-0.2,0-0.3,0-0.5L919.7,767z"/>
	<path class="st4" d="M919.6,765.8c0,0.2,0,0.3,0,0.5l5.6-0.4c0-0.2,0-0.3,0-0.5L919.6,765.8z"/>
	<path class="st4" d="M801.5,722.1c0.1-0.1,0.2-0.2,0.3-0.3l-3.9-3.9c-0.1,0.1-0.2,0.2-0.3,0.3L801.5,722.1z"/>
	<path class="st4" d="M899.7,819.6c-0.1,0.1-0.2,0.2-0.3,0.3l3.9,3.9c0.1-0.1,0.2-0.2,0.3-0.3L899.7,819.6z"/>
	<path class="st4" d="M919.8,770.8c0,0.1,0,0.2,0,0.2h5.6c0-0.1,0-0.2,0-0.2c0-0.1,0-0.2,0-0.2h-5.6   C919.8,770.7,919.8,770.7,919.8,770.8z"/>
	<path class="st4" d="M917.4,752.7c0,0.1,0.1,0.3,0.1,0.4l5.4-1.4c0-0.2-0.1-0.3-0.1-0.4L917.4,752.7z"/>
	<path class="st4" d="M781.4,770.8c0-0.1,0-0.2,0-0.2h-5.6c0,0.1,0,0.2,0,0.2c0,0.1,0,0.2,0,0.2h5.6   C781.4,771,781.4,770.9,781.4,770.8z"/>
	<path class="st4" d="M801.5,819.6l-3.9,3.9c0.1,0.1,0.2,0.2,0.3,0.3l3.9-3.9C801.7,819.8,801.6,819.7,801.5,819.6z"/>
	<path class="st4" d="M918.3,756.2c0,0.2,0.1,0.3,0.1,0.5l5.4-1.2c0-0.2-0.1-0.3-0.1-0.5L918.3,756.2z"/>
	<path class="st4" d="M918.5,757.4c0,0.2,0.1,0.3,0.1,0.5l5.5-1.1c0-0.2-0.1-0.3-0.1-0.5L918.5,757.4z"/>
	<path class="st4" d="M917.7,753.8c0,0.1,0.1,0.3,0.1,0.4l5.4-1.3c0-0.2-0.1-0.3-0.1-0.5L917.7,753.8z"/>
	<path class="st4" d="M918,755c0,0.1,0.1,0.3,0.1,0.5l5.4-1.3c0-0.1-0.1-0.3-0.1-0.5L918,755z"/>
	<path class="st4" d="M918.7,758.6c0,0.2,0,0.3,0.1,0.5l5.5-1c0-0.2-0.1-0.3-0.1-0.5L918.7,758.6z"/>
	<path class="st4" d="M919.3,762.1c0,0.2,0,0.3,0.1,0.5l5.5-0.7c0-0.2,0-0.3-0.1-0.5L919.3,762.1z"/>
	<path class="st4" d="M919.5,764.6c0,0.2,0,0.3,0,0.5l5.5-0.5c0-0.2,0-0.3,0-0.5L919.5,764.6z"/>
	<path class="st4" d="M905,728c0.1,0.1,0.2,0.2,0.3,0.4l4.4-3.4c-0.1-0.1-0.2-0.2-0.3-0.4L905,728z"/>
	<path class="st4" d="M919.1,761c0,0.2,0,0.3,0.1,0.5l5.5-0.8c0-0.2,0-0.3-0.1-0.5L919.1,761z"/>
	<path class="st4" d="M918.9,759.8c0,0.2,0.1,0.3,0.1,0.5l5.5-0.9c0-0.2-0.1-0.3-0.1-0.5L918.9,759.8z"/>
	<path class="st4" d="M860,702.2c0.2,0,0.3,0,0.5,0.1l0.8-5.5c-0.2,0-0.3,0-0.5-0.1L860,702.2z"/>
	<path class="st4" d="M874.1,705.7c0.1,0.1,0.3,0.1,0.4,0.2l1.9-5.2c-0.1-0.1-0.3-0.1-0.4-0.2L874.1,705.7z"/>
	<path class="st4" d="M875.2,706.1c0.1,0.1,0.3,0.1,0.4,0.2l2-5.2c-0.1-0.1-0.3-0.1-0.4-0.2L875.2,706.1z"/>
	<path class="st4" d="M876.3,706.6c0.1,0.1,0.3,0.1,0.4,0.2l2.1-5.2c-0.1-0.1-0.3-0.1-0.4-0.2L876.3,706.6z"/>
	<path class="st4" d="M872.9,705.3c0.1,0.1,0.3,0.1,0.4,0.2l1.8-5.3c-0.1-0.1-0.3-0.1-0.4-0.2L872.9,705.3z"/>
	<path class="st4" d="M871.8,704.9c0.1,0,0.3,0.1,0.4,0.1l1.7-5.3c-0.1,0-0.3-0.1-0.4-0.1L871.8,704.9z"/>
	<path class="st4" d="M878.5,707.5c0.1,0.1,0.3,0.1,0.4,0.2l2.3-5.1c-0.1-0.1-0.3-0.1-0.4-0.2L878.5,707.5z"/>
	<path class="st4" d="M881.8,709.1c0.1,0.1,0.3,0.1,0.4,0.2l2.5-5c-0.1-0.1-0.3-0.1-0.4-0.2L881.8,709.1z"/>
	<path class="st4" d="M880.7,708.5c0.1,0.1,0.3,0.1,0.4,0.2l2.4-5c-0.1-0.1-0.3-0.1-0.4-0.2L880.7,708.5z"/>
	<path class="st4" d="M877.4,707c0.1,0.1,0.3,0.1,0.4,0.2l2.2-5.1c-0.1-0.1-0.3-0.1-0.4-0.2L877.4,707z"/>
	<path class="st4" d="M879.6,708c0.1,0.1,0.3,0.1,0.4,0.2l2.4-5c-0.1-0.1-0.3-0.1-0.4-0.2L879.6,708z"/>
	<path class="st4" d="M870.6,704.6c0.1,0,0.3,0.1,0.4,0.1l1.6-5.3c-0.1,0-0.3-0.1-0.4-0.1L870.6,704.6z"/>
	<path class="st4" d="M861.2,702.4c0.2,0,0.3,0.1,0.5,0.1l0.9-5.5c-0.2,0-0.3-0.1-0.5-0.1L861.2,702.4z"/>
	<path class="st4" d="M863.6,702.8c0.2,0,0.3,0.1,0.5,0.1l1.1-5.5c-0.2,0-0.3-0.1-0.5-0.1L863.6,702.8z"/>
	<path class="st4" d="M869.5,704.2c0.1,0,0.3,0.1,0.4,0.1l1.5-5.4c-0.1,0-0.3-0.1-0.4-0.1L869.5,704.2z"/>
	<path class="st4" d="M882.9,709.6c0.1,0.1,0.3,0.1,0.4,0.2l2.6-4.9c-0.1-0.1-0.3-0.1-0.4-0.2L882.9,709.6z"/>
	<path class="st4" d="M857.6,702c0.2,0,0.3,0,0.5,0.1l0.6-5.5c-0.2,0-0.3,0-0.5-0.1L857.6,702z"/>
	<path class="st4" d="M858.8,702.1c0.2,0,0.3,0,0.5,0.1l0.7-5.5c-0.2,0-0.3,0-0.5-0.1L858.8,702.1z"/>
	<path class="st4" d="M862.4,702.6c0.2,0,0.3,0,0.5,0.1l1-5.5c-0.2,0-0.3,0-0.5-0.1L862.4,702.6z"/>
	<path class="st4" d="M868.3,703.9c0.1,0,0.3,0.1,0.4,0.1l1.4-5.4c-0.1,0-0.3-0.1-0.4-0.1L868.3,703.9z"/>
	<path class="st4" d="M867.1,703.6c0.1,0,0.3,0.1,0.5,0.1l1.3-5.4c-0.1,0-0.3-0.1-0.5-0.1L867.1,703.6z"/>
	<path class="st4" d="M864.8,703.1c0.2,0,0.3,0.1,0.5,0.1l1.2-5.4c-0.2,0-0.3-0.1-0.5-0.1L864.8,703.1z"/>
	<path class="st4" d="M865.9,703.3c0.2,0,0.3,0.1,0.5,0.1l1.3-5.4c-0.2,0-0.3-0.1-0.5-0.1L865.9,703.3z"/>
	<path class="st4" d="M900.2,722.6c0.1,0.1,0.2,0.2,0.3,0.3l4-3.9c-0.1-0.1-0.2-0.2-0.3-0.3L900.2,722.6z"/>
	<path class="st4" d="M898.5,720.9c0.1,0.1,0.2,0.2,0.3,0.3l3.9-4c-0.1-0.1-0.2-0.2-0.3-0.3L898.5,720.9z"/>
	<path class="st4" d="M897.6,720.1c0.1,0.1,0.2,0.2,0.3,0.3l3.8-4.1c-0.1-0.1-0.2-0.2-0.3-0.3L897.6,720.1z"/>
	<path class="st4" d="M895.8,718.5c0.1,0.1,0.2,0.2,0.3,0.3l3.7-4.2c-0.1-0.1-0.2-0.2-0.3-0.3L895.8,718.5z"/>
	<path class="st4" d="M896.7,719.3c0.1,0.1,0.2,0.2,0.3,0.3l3.7-4.1c-0.1-0.1-0.2-0.2-0.3-0.3L896.7,719.3z"/>
	<path class="st4" d="M883.9,710.2c0.1,0.1,0.3,0.1,0.4,0.2l2.7-4.9c-0.1-0.1-0.3-0.1-0.4-0.2L883.9,710.2z"/>
	<path class="st4" d="M894.9,717.7c0.1,0.1,0.2,0.2,0.4,0.3l3.6-4.3c-0.1-0.1-0.2-0.2-0.4-0.3L894.9,717.7z"/>
	<path class="st4" d="M902.7,725.3c0.1,0.1,0.2,0.2,0.3,0.4l4.2-3.7c-0.1-0.1-0.2-0.2-0.3-0.3L902.7,725.3z"/>
	<path class="st4" d="M901,723.5c0.1,0.1,0.2,0.2,0.3,0.3l4.1-3.8c-0.1-0.1-0.2-0.2-0.3-0.3L901,723.5z"/>
	<path class="st4" d="M903.4,726.2c0.1,0.1,0.2,0.2,0.3,0.4l4.3-3.6c-0.1-0.1-0.2-0.2-0.3-0.4L903.4,726.2z"/>
	<path class="st4" d="M901.9,724.4c0.1,0.1,0.2,0.2,0.3,0.3l4.1-3.7c-0.1-0.1-0.2-0.2-0.3-0.3L901.9,724.4z"/>
	<path class="st4" d="M904.2,727.1c0.1,0.1,0.2,0.2,0.3,0.4l4.3-3.5c-0.1-0.1-0.2-0.2-0.3-0.4L904.2,727.1z"/>
	<path class="st4" d="M887.1,712c0.1,0.1,0.3,0.2,0.4,0.2l2.9-4.7c-0.1-0.1-0.3-0.2-0.4-0.2L887.1,712z"/>
	<path class="st4" d="M888.1,712.7c0.1,0.1,0.3,0.2,0.4,0.3l3-4.7c-0.1-0.1-0.3-0.2-0.4-0.3L888.1,712.7z"/>
	<path class="st4" d="M885,710.8c0.1,0.1,0.3,0.2,0.4,0.2l2.8-4.8c-0.1-0.1-0.3-0.2-0.4-0.2L885,710.8z"/>
	<path class="st4" d="M889.1,713.3c0.1,0.1,0.3,0.2,0.4,0.3l3.1-4.6c-0.1-0.1-0.3-0.2-0.4-0.3L889.1,713.3z"/>
	<path class="st4" d="M886,711.4c0.1,0.1,0.3,0.2,0.4,0.2l2.9-4.8c-0.1-0.1-0.3-0.2-0.4-0.2L886,711.4z"/>
	<path class="st4" d="M892.1,715.4c0.1,0.1,0.2,0.2,0.4,0.3l3.3-4.4c-0.1-0.1-0.2-0.2-0.4-0.3L892.1,715.4z"/>
	<path class="st4" d="M893,716.2c0.1,0.1,0.2,0.2,0.4,0.3l3.4-4.4c-0.1-0.1-0.2-0.2-0.4-0.3L893,716.2z"/>
	<path class="st4" d="M894,716.9c0.1,0.1,0.2,0.2,0.4,0.3l3.5-4.3c-0.1-0.1-0.2-0.2-0.4-0.3L894,716.9z"/>
	<path class="st4" d="M891.1,714.7c0.1,0.1,0.2,0.2,0.4,0.3l3.3-4.5c-0.1-0.1-0.2-0.2-0.4-0.3L891.1,714.7z"/>
	<path class="st4" d="M890.1,714c0.1,0.1,0.3,0.2,0.4,0.3l3.2-4.6c-0.1-0.1-0.3-0.2-0.4-0.3L890.1,714z"/>
	<path class="st4" d="M897.9,821.2c-0.1,0.1-0.2,0.2-0.3,0.3l3.8,4.1c0.1-0.1,0.2-0.2,0.3-0.3L897.9,821.2z"/>
	<path class="st4" d="M884.4,831.2c-0.1,0.1-0.3,0.1-0.4,0.2l2.7,4.9c0.1-0.1,0.3-0.2,0.4-0.2L884.4,831.2z"/>
	<path class="st4" d="M882.2,832.4c-0.1,0.1-0.3,0.1-0.4,0.2l2.5,5c0.1-0.1,0.3-0.1,0.4-0.2L882.2,832.4z"/>
	<path class="st4" d="M883.3,831.8c-0.1,0.1-0.3,0.1-0.4,0.2l2.6,4.9c0.1-0.1,0.3-0.1,0.4-0.2L883.3,831.8z"/>
	<path class="st4" d="M885.4,830.6c-0.1,0.1-0.3,0.2-0.4,0.2l2.8,4.8c0.1-0.1,0.3-0.2,0.4-0.2L885.4,830.6z"/>
	<path class="st4" d="M886.4,830c-0.1,0.1-0.3,0.2-0.4,0.2l2.9,4.8c0.1-0.1,0.3-0.2,0.4-0.2L886.4,830z"/>
	<path class="st4" d="M879,833.9c-0.1,0.1-0.3,0.1-0.4,0.2l2.3,5.1c0.1-0.1,0.3-0.1,0.4-0.2L879,833.9z"/>
	<path class="st4" d="M877.9,834.4c-0.1,0.1-0.3,0.1-0.4,0.2l2.2,5.1c0.1-0.1,0.3-0.1,0.4-0.2L877.9,834.4z"/>
	<path class="st4" d="M881.1,832.9c-0.1,0.1-0.3,0.1-0.4,0.2l2.4,5c0.1-0.1,0.3-0.1,0.4-0.2L881.1,832.9z"/>
	<path class="st4" d="M876.7,834.9c-0.1,0.1-0.3,0.1-0.4,0.2l2.1,5.2c0.1-0.1,0.3-0.1,0.4-0.2L876.7,834.9z"/>
	<path class="st4" d="M880.1,833.4c-0.1,0.1-0.3,0.1-0.4,0.2l2.4,5c0.1-0.1,0.3-0.1,0.4-0.2L880.1,833.4z"/>
	<path class="st4" d="M887.5,829.4c-0.1,0.1-0.3,0.2-0.4,0.2l2.9,4.7c0.1-0.1,0.3-0.2,0.4-0.2L887.5,829.4z"/>
	<path class="st4" d="M875.6,835.3c-0.1,0.1-0.3,0.1-0.4,0.2l2,5.2c0.1-0.1,0.3-0.1,0.4-0.2L875.6,835.3z"/>
	<path class="st4" d="M894.3,824.4c-0.1,0.1-0.2,0.2-0.4,0.3l3.5,4.3c0.1-0.1,0.2-0.2,0.4-0.3L894.3,824.4z"/>
	<path class="st4" d="M893.4,825.2c-0.1,0.1-0.2,0.2-0.4,0.3l3.4,4.4c0.1-0.1,0.2-0.2,0.4-0.3L893.4,825.2z"/>
	<path class="st4" d="M895.2,823.7c-0.1,0.1-0.2,0.2-0.4,0.3l3.6,4.3c0.1-0.1,0.2-0.2,0.4-0.3L895.2,823.7z"/>
	<path class="st4" d="M896.2,822.9c-0.1,0.1-0.2,0.2-0.3,0.3l3.7,4.2c0.1-0.1,0.2-0.2,0.3-0.3L896.2,822.9z"/>
	<path class="st4" d="M897.1,822.1c-0.1,0.1-0.2,0.2-0.3,0.3l3.7,4.1c0.1-0.1,0.2-0.2,0.3-0.3L897.1,822.1z"/>
	<path class="st4" d="M890.5,827.4c-0.1,0.1-0.3,0.2-0.4,0.3l3.2,4.6c0.1-0.1,0.3-0.2,0.4-0.3L890.5,827.4z"/>
	<path class="st4" d="M889.5,828c-0.1,0.1-0.3,0.2-0.4,0.3l3.1,4.6c0.1-0.1,0.3-0.2,0.4-0.3L889.5,828z"/>
	<path class="st4" d="M892.4,825.9c-0.1,0.1-0.2,0.2-0.4,0.3l3.4,4.4c0.1-0.1,0.2-0.2,0.4-0.3L892.4,825.9z"/>
	<path class="st4" d="M888.5,828.7c-0.1,0.1-0.3,0.2-0.4,0.3l3,4.7c0.1-0.1,0.3-0.2,0.4-0.3L888.5,828.7z"/>
	<path class="st4" d="M891.5,826.6c-0.1,0.1-0.2,0.2-0.4,0.3l3.3,4.5c0.1-0.1,0.2-0.2,0.4-0.3L891.5,826.6z"/>
	<path class="st4" d="M854.5,839.9c-0.2,0-0.3,0-0.5,0l0.3,5.6c0.2,0,0.3,0,0.5,0L854.5,839.9z"/>
	<path class="st4" d="M856.9,839.7c-0.2,0-0.3,0-0.5,0l0.5,5.5c0.2,0,0.3,0,0.5,0L856.9,839.7z"/>
	<path class="st4" d="M861.7,839.1c-0.2,0-0.3,0.1-0.5,0.1l0.9,5.5c0.2,0,0.3-0.1,0.5-0.1L861.7,839.1z"/>
	<path class="st4" d="M859.3,839.5c-0.2,0-0.3,0-0.5,0.1l0.7,5.5c0.2,0,0.3,0,0.5-0.1L859.3,839.5z"/>
	<path class="st4" d="M860.5,839.3c-0.2,0-0.3,0-0.5,0.1l0.8,5.5c0.2,0,0.3,0,0.5-0.1L860.5,839.3z"/>
	<path class="st4" d="M855.7,839.8c-0.2,0-0.3,0-0.5,0l0.4,5.6c0.2,0,0.3,0,0.5,0L855.7,839.8z"/>
	<path class="st4" d="M858.1,839.6c-0.2,0-0.3,0-0.5,0.1l0.6,5.5c0.2,0,0.3,0,0.5-0.1L858.1,839.6z"/>
	<path class="st4" d="M850.8,845.6V840c-0.1,0-0.2,0-0.2,0h-0.2v5.6c0.1,0,0.2,0,0.2,0H850.8z"/>
	<path class="st4" d="M852,840c-0.2,0-0.3,0-0.5,0l0.1,5.6c0.2,0,0.3,0,0.5,0L852,840z"/>
	<path class="st4" d="M874.5,835.8c-0.1,0.1-0.3,0.1-0.4,0.2l1.9,5.2c0.1-0.1,0.3-0.1,0.4-0.2L874.5,835.8z"/>
	<path class="st4" d="M898.8,820.4c-0.1,0.1-0.2,0.2-0.3,0.3l3.9,4c0.1-0.1,0.2-0.2,0.3-0.3L898.8,820.4z"/>
	<path class="st4" d="M853.2,840c-0.2,0-0.3,0-0.5,0l0.2,5.6c0.2,0,0.3,0,0.5,0L853.2,840z"/>
	<path class="st4" d="M871.1,836.9c-0.1,0-0.3,0.1-0.4,0.1l1.6,5.3c0.1,0,0.3-0.1,0.4-0.1L871.1,836.9z"/>
	<path class="st4" d="M869.9,837.3c-0.1,0-0.3,0.1-0.4,0.1l1.5,5.4c0.1,0,0.3-0.1,0.4-0.1L869.9,837.3z"/>
	<path class="st4" d="M862.9,838.9c-0.2,0-0.3,0-0.5,0.1l1,5.5c0.2,0,0.3,0,0.5-0.1L862.9,838.9z"/>
	<path class="st4" d="M868.7,837.6c-0.1,0-0.3,0.1-0.4,0.1l1.4,5.4c0.1,0,0.3-0.1,0.4-0.1L868.7,837.6z"/>
	<path class="st4" d="M872.2,836.6c-0.1,0-0.3,0.1-0.4,0.1l1.7,5.3c0.1,0,0.3-0.1,0.4-0.1L872.2,836.6z"/>
	<path class="st4" d="M873.4,836.2c-0.1,0.1-0.3,0.1-0.4,0.2l1.8,5.3c0.1-0.1,0.3-0.1,0.4-0.2L873.4,836.2z"/>
	<path class="st4" d="M867.6,837.9c-0.1,0-0.3,0.1-0.5,0.1l1.3,5.4c0.1,0,0.3-0.1,0.5-0.1L867.6,837.9z"/>
	<path class="st4" d="M865.2,838.5c-0.2,0-0.3,0.1-0.5,0.1l1.2,5.4c0.1,0,0.3-0.1,0.5-0.1L865.2,838.5z"/>
	<path class="st4" d="M864,838.7c-0.1,0-0.3,0.1-0.5,0.1l1.1,5.5c0.2,0,0.3-0.1,0.5-0.1L864,838.7z"/>
	<path class="st4" d="M866.4,838.2c-0.1,0-0.3,0.1-0.5,0.1l1.3,5.4c0.2,0,0.3-0.1,0.5-0.1L866.4,838.2z"/>
	<path class="st4" d="M918.1,786.2c0,0.2-0.1,0.3-0.1,0.5l5.4,1.3c0-0.2,0.1-0.3,0.1-0.5L918.1,786.2z"/>
	<path class="st4" d="M917.5,788.5c0,0.1-0.1,0.3-0.1,0.4l5.4,1.4c0-0.1,0.1-0.3,0.1-0.4L917.5,788.5z"/>
	<path class="st4" d="M917.8,787.3c0,0.1-0.1,0.3-0.1,0.5l5.4,1.3c0-0.1,0.1-0.3,0.1-0.4L917.8,787.3z"/>
	<path class="st4" d="M849.6,840c-0.2,0-0.3,0-0.5,0l-0.1,5.6c0.2,0,0.3,0,0.5,0L849.6,840z"/>
	<path class="st4" d="M918.6,783.8c0,0.2-0.1,0.3-0.1,0.5l5.5,1.1c0-0.2,0.1-0.3,0.1-0.5L918.6,783.8z"/>
	<path class="st4" d="M918.4,785c0,0.1-0.1,0.3-0.1,0.5l5.4,1.2c0-0.1,0.1-0.3,0.1-0.5L918.4,785z"/>
	<path class="st4" d="M917.2,789.7c0,0.1-0.1,0.3-0.1,0.4l5.4,1.5c0-0.1,0.1-0.3,0.1-0.4L917.2,789.7z"/>
	<path class="st4" d="M915.7,794.3c-0.1,0.1-0.1,0.3-0.2,0.4l5.2,1.9c0.1-0.1,0.1-0.3,0.2-0.4L915.7,794.3z"/>
	<path class="st4" d="M915.3,795.4c-0.1,0.1-0.1,0.3-0.2,0.4l5.2,2c0.1-0.1,0.1-0.3,0.2-0.4L915.3,795.4z"/>
	<path class="st4" d="M916.1,793.1c0,0.1-0.1,0.3-0.2,0.4l5.3,1.8c0.1-0.1,0.1-0.3,0.2-0.4L916.1,793.1z"/>
	<path class="st4" d="M914.9,796.5c-0.1,0.1-0.1,0.3-0.2,0.4l5.2,2.1c0.1-0.1,0.1-0.3,0.2-0.4L914.9,796.5z"/>
	<path class="st4" d="M916.9,790.8c0,0.1-0.1,0.3-0.1,0.4l5.3,1.6c0-0.1,0.1-0.3,0.1-0.4L916.9,790.8z"/>
	<path class="st4" d="M916.5,792c0,0.1-0.1,0.3-0.1,0.4l5.3,1.7c0-0.1,0.1-0.3,0.1-0.4L916.5,792z"/>
	<path class="st4" d="M919.7,774.2c0,0.2,0,0.3,0,0.5l5.6,0.3c0-0.2,0-0.3,0-0.5L919.7,774.2z"/>
	<path class="st4" d="M919.7,775.4c0,0.2,0,0.3,0,0.5l5.6,0.4c0-0.2,0-0.3,0-0.5L919.7,775.4z"/>
	<path class="st4" d="M919.6,776.6c0,0.2,0,0.3,0,0.5l5.5,0.5c0-0.2,0-0.3,0-0.5L919.6,776.6z"/>
	<path class="st4" d="M918.8,782.6c0,0.2,0,0.3-0.1,0.5l5.5,1c0-0.2,0-0.3,0.1-0.5L918.8,782.6z"/>
	<path class="st4" d="M919.8,773c0,0.2,0,0.3,0,0.5l5.6,0.2c0-0.2,0-0.3,0-0.5L919.8,773z"/>
	<path class="st4" d="M919.8,771.8c0,0.2,0,0.3,0,0.5l5.6,0.1c0-0.2,0-0.3,0-0.5L919.8,771.8z"/>
	<path class="st4" d="M919.2,780.2c0,0.2,0,0.3-0.1,0.5l5.5,0.8c0-0.2,0-0.3,0.1-0.5L919.2,780.2z"/>
	<path class="st4" d="M919,781.4c0,0.2-0.1,0.3-0.1,0.5l5.5,0.9c0-0.2,0.1-0.3,0.1-0.5L919,781.4z"/>
	<path class="st4" d="M900.5,818.7c-0.1,0.1-0.2,0.2-0.3,0.3l4,3.9c0.1-0.1,0.2-0.2,0.3-0.3L900.5,818.7z"/>
	<path class="st4" d="M919.5,777.8c0,0.2,0,0.3-0.1,0.5l5.5,0.6c0-0.2,0-0.3,0.1-0.5L919.5,777.8z"/>
	<path class="st4" d="M919.3,779c0,0.2,0,0.3-0.1,0.5l5.5,0.7c0-0.2,0-0.3,0.1-0.5L919.3,779z"/>
	<path class="st4" d="M906,812.3c-0.1,0.1-0.2,0.2-0.3,0.4l4.4,3.4c0.1-0.1,0.2-0.2,0.3-0.4L906,812.3z"/>
	<path class="st4" d="M905.3,813.2c-0.1,0.1-0.2,0.2-0.3,0.4l4.4,3.4c0.1-0.1,0.2-0.2,0.3-0.4L905.3,813.2z"/>
	<path class="st4" d="M904.5,814.2c-0.1,0.1-0.2,0.2-0.3,0.4l4.3,3.5c0.1-0.1,0.2-0.2,0.3-0.4L904.5,814.2z"/>
	<path class="st4" d="M907.4,810.3c-0.1,0.1-0.2,0.3-0.3,0.4l4.6,3.2c0.1-0.1,0.2-0.3,0.3-0.4L907.4,810.3z"/>
	<path class="st4" d="M906.7,811.3c-0.1,0.1-0.2,0.2-0.3,0.4l4.5,3.3c0.1-0.1,0.2-0.2,0.3-0.4L906.7,811.3z"/>
	<path class="st4" d="M903,816c-0.1,0.1-0.2,0.2-0.3,0.3l4.2,3.7c0.1-0.1,0.2-0.2,0.3-0.3L903,816z"/>
	<path class="st4" d="M914.4,797.6c-0.1,0.1-0.1,0.3-0.2,0.4l5.1,2.2c0.1-0.1,0.1-0.3,0.2-0.4L914.4,797.6z"/>
	<path class="st4" d="M902.2,816.9c-0.1,0.1-0.2,0.2-0.3,0.3l4.1,3.7c0.1-0.1,0.2-0.2,0.3-0.3L902.2,816.9z"/>
	<path class="st4" d="M903.7,815.1c-0.1,0.1-0.2,0.2-0.3,0.4l4.3,3.6c0.1-0.1,0.2-0.2,0.3-0.4L903.7,815.1z"/>
	<path class="st4" d="M908.1,809.3c-0.1,0.1-0.2,0.3-0.3,0.4l4.6,3.1c0.1-0.1,0.2-0.3,0.3-0.4L908.1,809.3z"/>
	<path class="st4" d="M901.4,817.8c-0.1,0.1-0.2,0.2-0.3,0.3l4.1,3.8c0.1-0.1,0.2-0.2,0.3-0.3L901.4,817.8z"/>
	<path class="st4" d="M912.9,800.9c-0.1,0.1-0.1,0.3-0.2,0.4l5,2.4c0.1-0.1,0.1-0.3,0.2-0.4L912.9,800.9z"/>
	<path class="st4" d="M908.8,808.3c-0.1,0.1-0.2,0.3-0.3,0.4l4.7,3c0.1-0.1,0.2-0.3,0.3-0.4L908.8,808.3z"/>
	<path class="st4" d="M911.8,803.1c-0.1,0.1-0.1,0.3-0.2,0.4l4.9,2.6c0.1-0.1,0.1-0.3,0.2-0.4L911.8,803.1z"/>
	<path class="st4" d="M913.4,799.8c-0.1,0.1-0.1,0.3-0.2,0.4l5,2.4c0.1-0.1,0.1-0.3,0.2-0.4L913.4,799.8z"/>
	<path class="st4" d="M913.9,798.8c-0.1,0.1-0.1,0.3-0.2,0.4l5.1,2.3c0.1-0.1,0.1-0.3,0.2-0.4L913.9,798.8z"/>
	<path class="st4" d="M912.4,802c-0.1,0.1-0.1,0.3-0.2,0.4l5,2.5c0.1-0.1,0.1-0.3,0.2-0.4L912.4,802z"/>
	<path class="st4" d="M910,806.3c-0.1,0.1-0.2,0.3-0.2,0.4l4.8,2.9c0.1-0.1,0.2-0.3,0.2-0.4L910,806.3z"/>
	<path class="st4" d="M911.2,804.2c-0.1,0.1-0.2,0.3-0.2,0.4l4.9,2.7c0.1-0.1,0.2-0.3,0.2-0.4L911.2,804.2z"/>
	<path class="st4" d="M909.4,807.3c-0.1,0.1-0.2,0.3-0.2,0.4l4.7,3c0.1-0.1,0.2-0.3,0.2-0.4L909.4,807.3z"/>
	<path class="st4" d="M910.6,805.2c-0.1,0.1-0.2,0.3-0.2,0.4l4.8,2.8c0.1-0.1,0.2-0.3,0.2-0.4L910.6,805.2z"/>
	<path class="st4" d="M815.2,830.2c-0.1-0.1-0.3-0.2-0.4-0.2l-2.9,4.8c0.1,0.1,0.3,0.2,0.4,0.2L815.2,830.2z"/>
	<path class="st4" d="M791.4,806.7c-0.1-0.1-0.2-0.3-0.2-0.4l-4.8,2.9c0.1,0.1,0.2,0.3,0.2,0.4L791.4,806.7z"/>
	<path class="st4" d="M789.6,803.5c-0.1-0.1-0.1-0.3-0.2-0.4l-4.9,2.6c0.1,0.1,0.1,0.3,0.2,0.4L789.6,803.5z"/>
	<path class="st4" d="M790.8,805.6c-0.1-0.1-0.2-0.3-0.2-0.4l-4.8,2.8c0.1,0.1,0.2,0.3,0.2,0.4L790.8,805.6z"/>
	<path class="st4" d="M790.2,804.6c-0.1-0.1-0.2-0.3-0.2-0.4l-4.9,2.7c0.1,0.1,0.2,0.3,0.2,0.4L790.2,804.6z"/>
	<path class="st4" d="M788.5,801.4c-0.1-0.1-0.1-0.3-0.2-0.4l-5,2.4c0.1,0.1,0.1,0.3,0.2,0.4L788.5,801.4z"/>
	<path class="st4" d="M789.1,802.4c-0.1-0.1-0.1-0.3-0.2-0.4l-5,2.5c0.1,0.1,0.1,0.3,0.2,0.4L789.1,802.4z"/>
	<path class="st4" d="M785.6,794.7c-0.1-0.1-0.1-0.3-0.2-0.4l-5.2,1.9c0.1,0.1,0.1,0.3,0.2,0.4L785.6,794.7z"/>
	<path class="st4" d="M786.5,797c-0.1-0.1-0.1-0.3-0.2-0.4l-5.2,2.1c0.1,0.1,0.1,0.3,0.2,0.4L786.5,797z"/>
	<path class="st4" d="M787.5,799.2c-0.1-0.1-0.1-0.3-0.2-0.4l-5.1,2.3c0.1,0.1,0.1,0.3,0.2,0.4L787.5,799.2z"/>
	<path class="st4" d="M788,800.3c-0.1-0.1-0.1-0.3-0.2-0.4l-5,2.4c0.1,0.1,0.1,0.3,0.2,0.4L788,800.3z"/>
	<path class="st4" d="M787,798.1c-0.1-0.1-0.1-0.3-0.2-0.4l-5.1,2.2c0.1,0.1,0.1,0.3,0.2,0.4L787,798.1z"/>
	<path class="st4" d="M786.1,795.8c-0.1-0.1-0.1-0.3-0.2-0.4l-5.2,2c0.1,0.1,0.1,0.3,0.2,0.4L786.1,795.8z"/>
	<path class="st4" d="M799.4,817.3c-0.1-0.1-0.2-0.2-0.3-0.3l-4.1,3.7c0.1,0.1,0.2,0.2,0.3,0.3L799.4,817.3z"/>
	<path class="st4" d="M797,814.5c-0.1-0.1-0.2-0.2-0.3-0.4l-4.3,3.5c0.1,0.1,0.2,0.2,0.3,0.4L797,814.5z"/>
	<path class="st4" d="M796.2,813.6c-0.1-0.1-0.2-0.2-0.3-0.4l-4.4,3.4c0.1,0.1,0.2,0.2,0.3,0.4L796.2,813.6z"/>
	<path class="st4" d="M792.1,807.7c-0.1-0.1-0.2-0.3-0.2-0.4l-4.7,2.9c0.1,0.1,0.2,0.3,0.2,0.4L792.1,807.7z"/>
	<path class="st4" d="M797.8,815.5c-0.1-0.1-0.2-0.2-0.3-0.4l-4.3,3.6c0.1,0.1,0.2,0.2,0.3,0.4L797.8,815.5z"/>
	<path class="st4" d="M798.5,816.4c-0.1-0.1-0.2-0.2-0.3-0.3l-4.2,3.7c0.1,0.1,0.2,0.2,0.3,0.3L798.5,816.4z"/>
	<path class="st4" d="M792.7,808.7c-0.1-0.1-0.2-0.3-0.3-0.4l-4.7,3c0.1,0.1,0.2,0.3,0.3,0.4L792.7,808.7z"/>
	<path class="st4" d="M794.8,811.7c-0.1-0.1-0.2-0.2-0.3-0.4l-4.5,3.3c0.1,0.1,0.2,0.2,0.3,0.4L794.8,811.7z"/>
	<path class="st4" d="M793.4,809.7c-0.1-0.1-0.2-0.3-0.3-0.4l-4.6,3.1c0.1,0.1,0.2,0.3,0.3,0.4L793.4,809.7z"/>
	<path class="st4" d="M794.1,810.7c-0.1-0.1-0.2-0.3-0.3-0.4l-4.6,3.2c0.1,0.1,0.2,0.3,0.3,0.4L794.1,810.7z"/>
	<path class="st4" d="M795.5,812.6c-0.1-0.1-0.2-0.2-0.3-0.4l-4.4,3.3c0.1,0.1,0.2,0.2,0.3,0.4L795.5,812.6z"/>
	<path class="st4" d="M781.7,777.1c0-0.2,0-0.3,0-0.5l-5.5,0.5c0,0.2,0,0.3,0,0.5L781.7,777.1z"/>
	<path class="st4" d="M781.6,775.9c0-0.2,0-0.3,0-0.5l-5.6,0.4c0,0.2,0,0.3,0,0.5L781.6,775.9z"/>
	<path class="st4" d="M781.5,774.7c0-0.2,0-0.3,0-0.5l-5.6,0.3c0,0.2,0,0.3,0,0.5L781.5,774.7z"/>
	<path class="st4" d="M781.9,779.5c0-0.2,0-0.3-0.1-0.5l-5.5,0.7c0,0.2,0,0.3,0.1,0.5L781.9,779.5z"/>
	<path class="st4" d="M781.8,778.3c0-0.2,0-0.3-0.1-0.5l-5.5,0.6c0,0.2,0,0.3,0.1,0.5L781.8,778.3z"/>
	<path class="st4" d="M781.4,769.8c0-0.2,0-0.3,0-0.5l-5.6-0.1c0,0.2,0,0.3,0,0.5L781.4,769.8z"/>
	<path class="st4" d="M782.1,780.7c0-0.2,0-0.3-0.1-0.5l-5.5,0.8c0,0.2,0,0.3,0.1,0.5L782.1,780.7z"/>
	<path class="st4" d="M781.4,773.5c0-0.2,0-0.3,0-0.5l-5.6,0.2c0,0.2,0,0.3,0,0.5L781.4,773.5z"/>
	<path class="st4" d="M781.4,768.6c0-0.2,0-0.3,0-0.5l-5.6-0.2c0,0.2,0,0.3,0,0.5L781.4,768.6z"/>
	<path class="st4" d="M781.4,772.3c0-0.2,0-0.3,0-0.5l-5.6,0.1c0,0.2,0,0.3,0,0.5L781.4,772.3z"/>
	<path class="st4" d="M784.9,792.4c0-0.1-0.1-0.3-0.1-0.4l-5.3,1.7c0,0.1,0.1,0.3,0.1,0.4L784.9,792.4z"/>
	<path class="st4" d="M783.5,787.8c0-0.1-0.1-0.3-0.1-0.5l-5.4,1.3c0,0.1,0.1,0.3,0.1,0.4L783.5,787.8z"/>
	<path class="st4" d="M782.3,781.9c0-0.2-0.1-0.3-0.1-0.5l-5.5,0.9c0,0.2,0.1,0.3,0.1,0.5L782.3,781.9z"/>
	<path class="st4" d="M784.1,790.1c0-0.1-0.1-0.3-0.1-0.4l-5.4,1.5c0,0.1,0.1,0.3,0.1,0.4L784.1,790.1z"/>
	<path class="st4" d="M785.2,793.6c-0.1-0.1-0.1-0.3-0.2-0.4l-5.3,1.8c0.1,0.1,0.1,0.3,0.2,0.4L785.2,793.6z"/>
	<path class="st4" d="M784.5,791.3c0-0.1-0.1-0.3-0.1-0.4l-5.3,1.6c0,0.1,0.1,0.3,0.1,0.4L784.5,791.3z"/>
	<path class="st4" d="M783.8,789c0-0.1-0.1-0.3-0.1-0.4l-5.4,1.4c0,0.1,0.1,0.3,0.1,0.4L783.8,789z"/>
	<path class="st4" d="M783.2,786.6c0-0.2-0.1-0.3-0.1-0.5l-5.4,1.3c0,0.2,0.1,0.3,0.1,0.5L783.2,786.6z"/>
	<path class="st4" d="M782.5,783.1c0-0.2,0-0.3-0.1-0.5l-5.5,1c0,0.2,0.1,0.3,0.1,0.5L782.5,783.1z"/>
	<path class="st4" d="M782.7,784.2c0-0.1-0.1-0.3-0.1-0.5l-5.5,1.1c0,0.1,0.1,0.3,0.1,0.5L782.7,784.2z"/>
	<path class="st4" d="M783,785.4c0-0.2-0.1-0.3-0.1-0.5l-5.4,1.2c0,0.2,0.1,0.3,0.1,0.5L783,785.4z"/>
	<path class="st4" d="M805.4,823.2c-0.1-0.1-0.2-0.2-0.3-0.3l-3.7,4.2c0.1,0.1,0.2,0.2,0.3,0.3L805.4,823.2z"/>
	<path class="st4" d="M831.7,837.4c-0.1,0-0.3-0.1-0.4-0.1l-1.5,5.4c0.1,0,0.3,0.1,0.4,0.1L831.7,837.4z"/>
	<path class="st4" d="M830.6,837.1c-0.1,0-0.3-0.1-0.4-0.1l-1.6,5.3c0.1,0,0.3,0.1,0.4,0.1L830.6,837.1z"/>
	<path class="st4" d="M829.4,836.7c-0.1,0-0.3-0.1-0.4-0.1l-1.7,5.3c0.1,0,0.3,0.1,0.4,0.1L829.4,836.7z"/>
	<path class="st4" d="M834.1,838c-0.1,0-0.3-0.1-0.5-0.1l-1.3,5.4c0.1,0,0.3,0.1,0.4,0.1L834.1,838z"/>
	<path class="st4" d="M835.3,838.3c-0.2,0-0.3-0.1-0.5-0.1l-1.3,5.4c0.2,0,0.3,0.1,0.5,0.1L835.3,838.3z"/>
	<path class="st4" d="M822.7,834.1c-0.1-0.1-0.3-0.1-0.4-0.2L820,839c0.1,0.1,0.3,0.1,0.4,0.2L822.7,834.1z"/>
	<path class="st4" d="M824.9,835.1c-0.1-0.1-0.3-0.1-0.4-0.2l-2.1,5.2c0.1,0.1,0.3,0.1,0.4,0.2L824.9,835.1z"/>
	<path class="st4" d="M823.8,834.6c-0.1-0.1-0.3-0.1-0.4-0.2l-2.2,5.1c0.1,0.1,0.3,0.1,0.4,0.2L823.8,834.6z"/>
	<path class="st4" d="M828.3,836.3c-0.1-0.1-0.3-0.1-0.4-0.2l-1.8,5.3c0.1,0.1,0.3,0.1,0.4,0.2L828.3,836.3z"/>
	<path class="st4" d="M826,835.5c-0.1-0.1-0.3-0.1-0.4-0.2l-2,5.2c0.1,0.1,0.3,0.1,0.4,0.2L826,835.5z"/>
	<path class="st4" d="M827.2,835.9c-0.1-0.1-0.3-0.1-0.4-0.2l-1.9,5.2c0.1,0.1,0.3,0.1,0.4,0.2L827.2,835.9z"/>
	<path class="st4" d="M832.9,837.7c-0.1,0-0.3-0.1-0.4-0.1L831,843c0.1,0,0.3,0.1,0.4,0.1L832.9,837.7z"/>
	<path class="st4" d="M844.8,839.8c-0.2,0-0.3,0-0.5,0l-0.5,5.5c0.2,0,0.3,0,0.5,0L844.8,839.8z"/>
	<path class="st4" d="M836.4,838.6c-0.2,0-0.3-0.1-0.5-0.1l-1.2,5.4c0.2,0,0.3,0.1,0.5,0.1L836.4,838.6z"/>
	<path class="st4" d="M842.4,839.5c-0.2,0-0.3,0-0.5-0.1l-0.7,5.5c0.2,0,0.3,0,0.5,0.1L842.4,839.5z"/>
	<path class="st4" d="M847.2,839.9c-0.2,0-0.3,0-0.5,0l-0.3,5.6c0.2,0,0.3,0,0.5,0L847.2,839.9z"/>
	<path class="st4" d="M846,839.9c-0.2,0-0.3,0-0.5,0l-0.4,5.6c0.2,0,0.3,0,0.5,0L846,839.9z"/>
	<path class="st4" d="M843.6,839.7c-0.2,0-0.3,0-0.5-0.1l-0.6,5.5c0.2,0,0.3,0,0.5,0.1L843.6,839.7z"/>
	<path class="st4" d="M837.6,838.8c-0.2,0-0.3-0.1-0.5-0.1l-1.1,5.5c0.2,0,0.3,0.1,0.5,0.1L837.6,838.8z"/>
	<path class="st4" d="M838.8,839c-0.2,0-0.3-0.1-0.5-0.1l-1,5.5c0.2,0,0.3,0.1,0.5,0.1L838.8,839z"/>
	<path class="st4" d="M841.2,839.4c-0.2,0-0.3,0-0.5-0.1l-0.8,5.5c0.2,0,0.3,0,0.5,0.1L841.2,839.4z"/>
	<path class="st4" d="M840,839.2c-0.2,0-0.3-0.1-0.5-0.1l-0.9,5.5c0.2,0,0.3,0.1,0.5,0.1L840,839.2z"/>
	<path class="st4" d="M817.3,831.4c-0.1-0.1-0.3-0.2-0.4-0.2l-2.7,4.9c0.1,0.1,0.3,0.2,0.4,0.2L817.3,831.4z"/>
	<path class="st4" d="M848.4,840c-0.2,0-0.3,0-0.5,0l-0.2,5.6c0.2,0,0.3,0,0.5,0L848.4,840z"/>
	<path class="st4" d="M806.3,824c-0.1-0.1-0.2-0.2-0.4-0.3l-3.6,4.3c0.1,0.1,0.2,0.2,0.4,0.3L806.3,824z"/>
	<path class="st4" d="M807.2,824.7c-0.1-0.1-0.2-0.2-0.4-0.3l-3.5,4.3c0.1,0.1,0.2,0.2,0.4,0.3L807.2,824.7z"/>
	<path class="st4" d="M809.2,826.2c-0.1-0.1-0.2-0.2-0.4-0.3l-3.3,4.4c0.1,0.1,0.2,0.2,0.4,0.3L809.2,826.2z"/>
	<path class="st4" d="M810.1,826.9c-0.1-0.1-0.2-0.2-0.4-0.3l-3.3,4.5c0.1,0.1,0.2,0.2,0.4,0.3L810.1,826.9z"/>
	<path class="st4" d="M821.6,833.6c-0.1-0.1-0.3-0.1-0.4-0.2l-2.4,5c0.1,0.1,0.3,0.1,0.4,0.2L821.6,833.6z"/>
	<path class="st4" d="M801,819c-0.1-0.1-0.2-0.2-0.3-0.3l-4,3.9c0.1,0.1,0.2,0.2,0.3,0.3L801,819z"/>
	<path class="st4" d="M802.7,820.7c-0.1-0.1-0.2-0.2-0.3-0.3l-3.9,4c0.1,0.1,0.2,0.2,0.3,0.3L802.7,820.7z"/>
	<path class="st4" d="M804.5,822.4c-0.1-0.1-0.2-0.2-0.3-0.3l-3.7,4.1c0.1,0.1,0.2,0.2,0.3,0.3L804.5,822.4z"/>
	<path class="st4" d="M803.6,821.6c-0.1-0.1-0.2-0.2-0.3-0.3l-3.8,4.1c0.1,0.1,0.2,0.2,0.3,0.3L803.6,821.6z"/>
	<path class="st4" d="M808.2,825.5c-0.1-0.1-0.2-0.2-0.4-0.3l-3.4,4.4c0.1,0.1,0.2,0.2,0.4,0.3L808.2,825.5z"/>
	<path class="st4" d="M818.3,832c-0.1-0.1-0.3-0.1-0.4-0.2l-2.6,4.9c0.1,0.1,0.3,0.1,0.4,0.2L818.3,832z"/>
	<path class="st4" d="M811.1,827.6c-0.1-0.1-0.3-0.2-0.4-0.3l-3.2,4.6c0.1,0.1,0.3,0.2,0.4,0.3L811.1,827.6z"/>
	<path class="st4" d="M819.4,832.6c-0.1-0.1-0.3-0.1-0.4-0.2l-2.5,5c0.1,0.1,0.3,0.1,0.4,0.2L819.4,832.6z"/>
	<path class="st4" d="M820.5,833.1c-0.1-0.1-0.3-0.1-0.4-0.2l-2.4,5c0.1,0.1,0.3,0.1,0.4,0.2L820.5,833.1z"/>
	<path class="st4" d="M816.2,830.9c-0.1-0.1-0.3-0.2-0.4-0.2l-2.8,4.8c0.1,0.1,0.3,0.2,0.4,0.2L816.2,830.9z"/>
	<path class="st4" d="M800.2,818.2c-0.1-0.1-0.2-0.2-0.3-0.3l-4.1,3.8c0.1,0.1,0.2,0.2,0.3,0.3L800.2,818.2z"/>
	<path class="st4" d="M813.1,829c-0.1-0.1-0.3-0.2-0.4-0.3l-3,4.7c0.1,0.1,0.3,0.2,0.4,0.3L813.1,829z"/>
	<path class="st4" d="M781.5,767.4c0-0.2,0-0.3,0-0.5l-5.6-0.3c0,0.2,0,0.3,0,0.5L781.5,767.4z"/>
	<path class="st4" d="M812.1,828.3c-0.1-0.1-0.3-0.2-0.4-0.3l-3.1,4.6c0.1,0.1,0.3,0.2,0.4,0.3L812.1,828.3z"/>
	<path class="st4" d="M814.1,829.6c-0.1-0.1-0.3-0.2-0.4-0.2l-2.9,4.7c0.1,0.1,0.3,0.2,0.4,0.2L814.1,829.6z"/>
</g>
<path class="st5" d="M463,536c-0.1,0.2-0.3,0.3-0.4,0.5C462.8,536.3,462.9,536.1,463,536z"/>
<g>
	<circle class="st6" cx="890.5" cy="504.4" r="3.1"/>
	<circle class="st6" cx="872.9" cy="504.4" r="3.1"/>
	<circle class="st6" cx="855.3" cy="504.4" r="3.1"/>
	<circle class="st6" cx="837.6" cy="504.4" r="3.1"/>
	<circle class="st6" cx="820" cy="504.4" r="3.1"/>
	<circle class="st6" cx="890.5" cy="519.9" r="3.1"/>
	<circle class="st6" cx="872.9" cy="519.9" r="3.1"/>
	<circle class="st6" cx="855.3" cy="519.9" r="3.1"/>
	<circle class="st6" cx="837.6" cy="519.9" r="3.1"/>
	<circle class="st6" cx="820" cy="519.9" r="3.1"/>
	<circle class="st6" cx="890.5" cy="535.5" r="3.1"/>
	<circle class="st6" cx="872.9" cy="535.5" r="3.1"/>
	<circle class="st6" cx="855.3" cy="535.5" r="3.1"/>
	<circle class="st6" cx="837.6" cy="535.5" r="3.1"/>
	<circle class="st6" cx="820" cy="535.5" r="3.1"/>
</g>
</svg>