<?xml version="1.0" encoding="UTF-8"?>
<!-- Generator: Adobe Illustrator 16.0.0, SVG Export Plug-In . SVG Version: 6.00 Build 0)  -->
<!DOCTYPE svg PUBLIC "-//W3C//DTD SVG 1.1//EN" "http://www.w3.org/Graphics/SVG/1.1/DTD/svg11.dtd">
<svg version="1.1" id="Layer_1" xmlns="http://www.w3.org/2000/svg" xmlns:xlink="http://www.w3.org/1999/xlink" x="0px" y="0px" width="2554.336px" height="1473.375px" viewBox="0 0 2554.336 1473.375" enable-background="new 0 0 2554.336 1473.375" xml:space="preserve">
<g opacity="0.5">
	<path opacity="0.47" fill="none" stroke="#FFFFFF" stroke-miterlimit="10" enable-background="new    " d="M1.465,1211.701   c0,0,245.233,0.676,556.253,146.568c311.021,145.893,513.232,109.928,513.232,109.928"/>
	<path opacity="0.47" fill="none" stroke="#FFFFFF" stroke-miterlimit="10" enable-background="new    " d="M1.465,1065.13   c0,0,80.576,43.428,377.151,36.642c296.577-6.786,542.119,11.196,846.882,235.122c0,0,150.215,98.432,236.876,135.225"/>
	<path opacity="0.47" fill="none" stroke="#FFFFFF" stroke-miterlimit="10" enable-background="new    " d="M1.465,694.649   c0,0,194.573,26.045,441.177,196.607c246.607,170.567,514.925,256.399,842.18,213.483   c327.254-42.916,730.511-63.415,1210.276,367.379"/>
	<path opacity="0.47" fill="none" stroke="#FFFFFF" stroke-miterlimit="10" enable-background="new    " d="M1.465,593.866   c0,0,142.202,2.375,279.898-16.625c137.695-19,554.155-59.714,843.03,81.768c288.873,141.48,758.294,155.729,999.5,85.499   c241.211-70.231,428.979-167.945,428.979-167.945"/>
	<path opacity="0.47" fill="none" stroke="#FFFFFF" stroke-miterlimit="10" enable-background="new    " d="M1.465,318.03   c0,0,145.09-6.107,331.412-62.089c186.325-55.982,482.419-62.09,788.625-23.41c306.208,38.678,655.264,42.304,992.283-231.274"/>
</g>
</svg>