<?xml version="1.0" encoding="UTF-8"?>
<!-- Generator: Adobe Illustrator 16.0.0, SVG Export Plug-In . SVG Version: 6.00 Build 0)  -->
<!DOCTYPE svg PUBLIC "-//W3C//DTD SVG 1.1//EN" "http://www.w3.org/Graphics/SVG/1.1/DTD/svg11.dtd">
<svg version="1.1" id="Layer_1" xmlns="http://www.w3.org/2000/svg" xmlns:xlink="http://www.w3.org/1999/xlink" x="0px" y="0px" width="1920.805px" height="584.875px" viewBox="0 0 1920.805 584.875" enable-background="new 0 0 1920.805 584.875" xml:space="preserve">
<g opacity="0.22">
	<path opacity="0.47" fill="none" stroke="#FFFFFF" stroke-miterlimit="10" enable-background="new    " d="M0.409,480.332   c0,0,184.544,0.269,418.595,57.995c234.052,57.727,386.221,43.496,386.221,43.496"/>
	<path opacity="0.47" fill="none" stroke="#FFFFFF" stroke-miterlimit="10" enable-background="new    " d="M0.409,422.337   c0,0,60.635,17.185,283.816,14.498c223.182-2.685,407.958,4.431,637.3,93.035c0,0,113.041,38.947,178.256,53.506"/>
	<path opacity="0.47" fill="none" stroke="#FFFFFF" stroke-miterlimit="10" enable-background="new    " d="M0.409,275.744   c0,0,146.421,10.305,331.997,77.794c185.577,67.49,387.493,101.453,633.762,84.472c246.27-16.98,549.729-25.092,910.766,145.366"/>
	<path opacity="0.47" fill="none" stroke="#FFFFFF" stroke-miterlimit="10" enable-background="new    " d="M0.409,235.865   c0,0,107.01,0.94,210.63-6.577c103.62-7.519,417.017-23.629,634.402,32.354c217.385,55.981,570.636,61.619,752.15,33.831   c181.519-27.79,322.816-66.454,322.816-66.454"/>
	<path opacity="0.47" fill="none" stroke="#FFFFFF" stroke-miterlimit="10" enable-background="new    " d="M0.409,126.722   c0,0,109.184-2.417,249.396-24.567c140.214-22.151,363.033-24.567,593.46-9.264c230.43,15.305,493.103,16.739,746.719-91.511"/>
</g>
</svg>