<?xml version="1.0" encoding="UTF-8"?>
<!-- Generator: Adobe Illustrator 16.0.0, SVG Export Plug-In . SVG Version: 6.00 Build 0)  -->
<!DOCTYPE svg PUBLIC "-//W3C//DTD SVG 1.1//EN" "http://www.w3.org/Graphics/SVG/1.1/DTD/svg11.dtd">
<svg version="1.1" id="Layer_1" xmlns="http://www.w3.org/2000/svg" xmlns:xlink="http://www.w3.org/1999/xlink" x="0px" y="0px" width="552.882px" height="550.266px" viewBox="0 0 552.882 550.266" enable-background="new 0 0 552.882 550.266" xml:space="preserve">
<path fill-rule="evenodd" clip-rule="evenodd" fill="#4799E4" d="M179.443,342.516c42.565-54.749,91.158-101.559,140.038-147.972  c47.302-44.911,99.082-83.95,158.144-112.525c11.466-5.546,23.081-10.906,35.887-12.438c3.469-0.415,8.388-2.264,10.339,2.35  c2.027,4.814-1.888,8.167-5.274,10.565c-10.732,7.594-21.785,14.729-32.645,22.146c-99.265,67.783-172.697,158.768-234.001,260.637  c-22.891,38.037-45.179,76.414-65.976,117.83c-10.282-11.565-19.707-21.989-28.943-32.582  c-41.27-47.302-82.367-94.749-123.878-141.838c-4.753-5.392-3.926-7.601,1.36-11.083c24.534-16.171,49.083-32.326,73.245-49.038  c6.554-4.534,9.424-4.53,13.905,2.765C140.216,281.575,159.579,311.338,179.443,342.516z"/>
</svg>